<ttFont>
    <TTGlyph name=".notdef" xMin="4" yMin="0" xMax="514" yMax="701">
      <contour>
        <pt x="259" y="302" on="1"/>
        <pt x="255" y="302" on="1"/>
        <pt x="155" y="93" on="1"/>
        <pt x="95" y="93" on="1"/>
        <pt x="229" y="353" on="1"/>
        <pt x="95" y="608" on="1"/>
        <pt x="155" y="608" on="1"/>
        <pt x="260" y="402" on="1"/>
        <pt x="264" y="402" on="1"/>
        <pt x="364" y="608" on="1"/>
        <pt x="424" y="608" on="1"/>
        <pt x="289" y="347" on="1"/>
        <pt x="424" y="93" on="1"/>
        <pt x="364" y="93" on="1"/>
      </contour>
      <contour>
        <pt x="59" y="649" on="1"/>
        <pt x="59" y="52" on="1"/>
        <pt x="459" y="52" on="1"/>
        <pt x="459" y="649" on="1"/>
      </contour>
      <contour>
        <pt x="4" y="0" on="1"/>
        <pt x="4" y="701" on="1"/>
        <pt x="514" y="701" on="1"/>
        <pt x="514" y="0" on="1"/>
      </contour>
    </TTGlyph>
    <TTGlyph name="A" xMin="10" yMin="0" xMax="586" yMax="676">
      <contour>
        <pt x="563" y="0" on="1"/>
        <pt x="382" y="0" on="1"/>
        <pt x="382" y="8" on="1"/>
        <pt x="382" y="30" on="0"/>
        <pt x="395" y="36" on="1"/>
        <pt x="401" y="39" on="0"/>
        <pt x="410" y="40" on="1"/>
        <pt x="460" y="43" on="1"/>
        <pt x="403" y="236" on="1"/>
        <pt x="183" y="236" on="1"/>
        <pt x="127" y="45" on="1"/>
        <pt x="201" y="39" on="1"/>
        <pt x="205" y="0" on="0"/>
        <pt x="178" y="0" on="1"/>
        <pt x="10" y="0" on="1"/>
        <pt x="10" y="8" on="1"/>
        <pt x="10" y="30" on="0"/>
        <pt x="23" y="36" on="1"/>
        <pt x="30" y="39" on="0"/>
        <pt x="78" y="43" on="1"/>
        <pt x="272" y="676" on="1"/>
        <pt x="300" y="680" on="0"/>
        <pt x="328" y="676" on="1"/>
        <pt x="521" y="45" on="1"/>
        <pt x="522" y="45" on="1"/>
        <pt x="586" y="39" on="1"/>
        <pt x="590" y="0" on="0"/>
      </contour>
      <contour>
        <pt x="197" y="281" on="1"/>
        <pt x="390" y="281" on="1"/>
        <pt x="293" y="609" on="1"/>
      </contour>
    </TTGlyph>
    <TTGlyph name="AE" xMin="10" yMin="0" xMax="808" yMax="677">
      <contour>
        <pt x="808" y="129" on="1"/>
        <pt x="808" y="0" on="1"/>
        <pt x="341" y="0" on="1"/>
        <pt x="341" y="8" on="1"/>
        <pt x="341" y="30" on="0"/>
        <pt x="354" y="36" on="1"/>
        <pt x="360" y="39" on="0"/>
        <pt x="369" y="40" on="1"/>
        <pt x="419" y="43" on="1"/>
        <pt x="419" y="317" on="1"/>
        <pt x="259" y="317" on="1"/>
        <pt x="127" y="45" on="1"/>
        <pt x="201" y="39" on="1"/>
        <pt x="205" y="0" on="0"/>
        <pt x="178" y="0" on="1"/>
        <pt x="10" y="0" on="1"/>
        <pt x="10" y="8" on="1"/>
        <pt x="10" y="30" on="0"/>
        <pt x="23" y="36" on="1"/>
        <pt x="30" y="39" on="0"/>
        <pt x="77" y="43" on="1"/>
        <pt x="387" y="676" on="1"/>
        <pt x="788" y="677" on="1"/>
        <pt x="788" y="538" on="1"/>
        <pt x="788" y="511" on="0"/>
        <pt x="749" y="515" on="1"/>
        <pt x="739" y="627" on="1"/>
        <pt x="477" y="632" on="1"/>
        <pt x="477" y="360" on="1"/>
        <pt x="673" y="371" on="1"/>
        <pt x="679" y="341" on="0"/>
        <pt x="673" y="306" on="1"/>
        <pt x="477" y="317" on="1"/>
        <pt x="477" y="45" on="1"/>
        <pt x="759" y="51" on="1"/>
        <pt x="769" y="152" on="1"/>
        <pt x="776" y="156" on="0"/>
        <pt x="808" y="148" on="0"/>
      </contour>
      <contour>
        <pt x="419" y="362" on="1"/>
        <pt x="419" y="632" on="1"/>
        <pt x="411" y="632" on="1"/>
        <pt x="280" y="362" on="1"/>
      </contour>
    </TTGlyph>
    <TTGlyph name="Aacute" xMin="10" yMin="0" xMax="586" yMax="879">
      <contour>
        <pt x="563" y="0" on="1"/>
        <pt x="382" y="0" on="1"/>
        <pt x="382" y="8" on="1"/>
        <pt x="382" y="30" on="0"/>
        <pt x="395" y="36" on="1"/>
        <pt x="401" y="39" on="0"/>
        <pt x="410" y="40" on="1"/>
        <pt x="460" y="43" on="1"/>
        <pt x="403" y="236" on="1"/>
        <pt x="183" y="236" on="1"/>
        <pt x="127" y="45" on="1"/>
        <pt x="201" y="39" on="1"/>
        <pt x="205" y="0" on="0"/>
        <pt x="178" y="0" on="1"/>
        <pt x="10" y="0" on="1"/>
        <pt x="10" y="8" on="1"/>
        <pt x="10" y="30" on="0"/>
        <pt x="23" y="36" on="1"/>
        <pt x="30" y="39" on="0"/>
        <pt x="78" y="43" on="1"/>
        <pt x="272" y="676" on="1"/>
        <pt x="300" y="680" on="0"/>
        <pt x="328" y="676" on="1"/>
        <pt x="521" y="45" on="1"/>
        <pt x="522" y="45" on="1"/>
        <pt x="586" y="39" on="1"/>
        <pt x="590" y="0" on="0"/>
      </contour>
      <contour>
        <pt x="197" y="281" on="1"/>
        <pt x="390" y="281" on="1"/>
        <pt x="293" y="609" on="1"/>
      </contour>
      <contour>
        <pt x="442" y="835" on="1"/>
        <pt x="246" y="729" on="1"/>
        <pt x="231" y="736" on="0"/>
        <pt x="220" y="755" on="1"/>
        <pt x="384" y="879" on="1"/>
        <pt x="401" y="878" on="0"/>
        <pt x="433" y="852" on="0"/>
      </contour>
    </TTGlyph>
    <TTGlyph name="Abreve" xMin="10" yMin="0" xMax="586" yMax="872">
      <contour>
        <pt x="563" y="0" on="1"/>
        <pt x="382" y="0" on="1"/>
        <pt x="382" y="8" on="1"/>
        <pt x="382" y="30" on="0"/>
        <pt x="395" y="36" on="1"/>
        <pt x="401" y="39" on="0"/>
        <pt x="410" y="40" on="1"/>
        <pt x="460" y="43" on="1"/>
        <pt x="403" y="236" on="1"/>
        <pt x="183" y="236" on="1"/>
        <pt x="127" y="45" on="1"/>
        <pt x="201" y="39" on="1"/>
        <pt x="205" y="0" on="0"/>
        <pt x="178" y="0" on="1"/>
        <pt x="10" y="0" on="1"/>
        <pt x="10" y="8" on="1"/>
        <pt x="10" y="30" on="0"/>
        <pt x="23" y="36" on="1"/>
        <pt x="30" y="39" on="0"/>
        <pt x="78" y="43" on="1"/>
        <pt x="272" y="676" on="1"/>
        <pt x="300" y="680" on="0"/>
        <pt x="328" y="676" on="1"/>
        <pt x="521" y="45" on="1"/>
        <pt x="522" y="45" on="1"/>
        <pt x="586" y="39" on="1"/>
        <pt x="590" y="0" on="0"/>
      </contour>
      <contour>
        <pt x="197" y="281" on="1"/>
        <pt x="390" y="281" on="1"/>
        <pt x="293" y="609" on="1"/>
      </contour>
      <contour>
        <pt x="444" y="810" on="0"/>
        <pt x="365" y="734" on="0"/>
        <pt x="232" y="734" on="0"/>
        <pt x="154" y="810" on="0"/>
        <pt x="147" y="857" on="1"/>
        <pt x="180" y="872" on="1"/>
        <pt x="191" y="843" on="0"/>
        <pt x="251" y="793" on="0"/>
        <pt x="300" y="793" on="1"/>
        <pt x="389" y="793" on="0"/>
        <pt x="418" y="870" on="1"/>
        <pt x="451" y="857" on="1"/>
      </contour>
    </TTGlyph>
    <TTGlyph name="Acircumflex" xMin="10" yMin="0" xMax="586" yMax="864">
      <contour>
        <pt x="563" y="0" on="1"/>
        <pt x="382" y="0" on="1"/>
        <pt x="382" y="8" on="1"/>
        <pt x="382" y="30" on="0"/>
        <pt x="395" y="36" on="1"/>
        <pt x="401" y="39" on="0"/>
        <pt x="410" y="40" on="1"/>
        <pt x="460" y="43" on="1"/>
        <pt x="403" y="236" on="1"/>
        <pt x="183" y="236" on="1"/>
        <pt x="127" y="45" on="1"/>
        <pt x="201" y="39" on="1"/>
        <pt x="205" y="0" on="0"/>
        <pt x="178" y="0" on="1"/>
        <pt x="10" y="0" on="1"/>
        <pt x="10" y="8" on="1"/>
        <pt x="10" y="30" on="0"/>
        <pt x="23" y="36" on="1"/>
        <pt x="30" y="39" on="0"/>
        <pt x="78" y="43" on="1"/>
        <pt x="272" y="676" on="1"/>
        <pt x="300" y="680" on="0"/>
        <pt x="328" y="676" on="1"/>
        <pt x="521" y="45" on="1"/>
        <pt x="522" y="45" on="1"/>
        <pt x="586" y="39" on="1"/>
        <pt x="590" y="0" on="0"/>
      </contour>
      <contour>
        <pt x="197" y="281" on="1"/>
        <pt x="390" y="281" on="1"/>
        <pt x="293" y="609" on="1"/>
      </contour>
      <contour>
        <pt x="299" y="808" on="1"/>
        <pt x="166" y="719" on="1"/>
        <pt x="151" y="726" on="0"/>
        <pt x="140" y="745" on="1"/>
        <pt x="270" y="864" on="1"/>
        <pt x="299" y="872" on="0"/>
        <pt x="328" y="864" on="1"/>
        <pt x="458" y="745" on="1"/>
        <pt x="447" y="726" on="0"/>
        <pt x="432" y="719" on="1"/>
      </contour>
    </TTGlyph>
    <TTGlyph name="Adieresis" xMin="10" yMin="0" xMax="586" yMax="844">
      <contour>
        <pt x="563" y="0" on="1"/>
        <pt x="382" y="0" on="1"/>
        <pt x="382" y="8" on="1"/>
        <pt x="382" y="30" on="0"/>
        <pt x="395" y="36" on="1"/>
        <pt x="401" y="39" on="0"/>
        <pt x="410" y="40" on="1"/>
        <pt x="460" y="43" on="1"/>
        <pt x="403" y="236" on="1"/>
        <pt x="183" y="236" on="1"/>
        <pt x="127" y="45" on="1"/>
        <pt x="201" y="39" on="1"/>
        <pt x="205" y="0" on="0"/>
        <pt x="178" y="0" on="1"/>
        <pt x="10" y="0" on="1"/>
        <pt x="10" y="8" on="1"/>
        <pt x="10" y="30" on="0"/>
        <pt x="23" y="36" on="1"/>
        <pt x="30" y="39" on="0"/>
        <pt x="78" y="43" on="1"/>
        <pt x="272" y="676" on="1"/>
        <pt x="300" y="680" on="0"/>
        <pt x="328" y="676" on="1"/>
        <pt x="521" y="45" on="1"/>
        <pt x="522" y="45" on="1"/>
        <pt x="586" y="39" on="1"/>
        <pt x="590" y="0" on="0"/>
      </contour>
      <contour>
        <pt x="197" y="281" on="1"/>
        <pt x="390" y="281" on="1"/>
        <pt x="293" y="609" on="1"/>
      </contour>
      <contour>
        <pt x="267" y="777" on="0"/>
        <pt x="240" y="750" on="0"/>
        <pt x="201" y="750" on="0"/>
        <pt x="173" y="777" on="0"/>
        <pt x="173" y="816" on="0"/>
        <pt x="201" y="844" on="0"/>
        <pt x="240" y="844" on="0"/>
        <pt x="267" y="816" on="0"/>
      </contour>
      <contour>
        <pt x="425" y="777" on="0"/>
        <pt x="398" y="750" on="0"/>
        <pt x="358" y="750" on="0"/>
        <pt x="331" y="778" on="0"/>
        <pt x="331" y="816" on="0"/>
        <pt x="358" y="844" on="0"/>
        <pt x="398" y="844" on="0"/>
        <pt x="425" y="816" on="0"/>
      </contour>
    </TTGlyph>
    <TTGlyph name="Agrave" xMin="10" yMin="0" xMax="586" yMax="869">
      <contour>
        <pt x="563" y="0" on="1"/>
        <pt x="382" y="0" on="1"/>
        <pt x="382" y="8" on="1"/>
        <pt x="382" y="30" on="0"/>
        <pt x="395" y="36" on="1"/>
        <pt x="401" y="39" on="0"/>
        <pt x="410" y="40" on="1"/>
        <pt x="460" y="43" on="1"/>
        <pt x="403" y="236" on="1"/>
        <pt x="183" y="236" on="1"/>
        <pt x="127" y="45" on="1"/>
        <pt x="201" y="39" on="1"/>
        <pt x="205" y="0" on="0"/>
        <pt x="178" y="0" on="1"/>
        <pt x="10" y="0" on="1"/>
        <pt x="10" y="8" on="1"/>
        <pt x="10" y="30" on="0"/>
        <pt x="23" y="36" on="1"/>
        <pt x="30" y="39" on="0"/>
        <pt x="78" y="43" on="1"/>
        <pt x="272" y="676" on="1"/>
        <pt x="300" y="680" on="0"/>
        <pt x="328" y="676" on="1"/>
        <pt x="521" y="45" on="1"/>
        <pt x="522" y="45" on="1"/>
        <pt x="586" y="39" on="1"/>
        <pt x="590" y="0" on="0"/>
      </contour>
      <contour>
        <pt x="197" y="281" on="1"/>
        <pt x="390" y="281" on="1"/>
        <pt x="293" y="609" on="1"/>
      </contour>
      <contour>
        <pt x="231" y="869" on="1"/>
        <pt x="395" y="745" on="1"/>
        <pt x="384" y="726" on="0"/>
        <pt x="369" y="719" on="1"/>
        <pt x="173" y="825" on="1"/>
        <pt x="182" y="842" on="0"/>
        <pt x="214" y="868" on="0"/>
      </contour>
    </TTGlyph>
    <TTGlyph name="Amacron" xMin="10" yMin="0" xMax="586" yMax="821">
      <contour>
        <pt x="563" y="0" on="1"/>
        <pt x="382" y="0" on="1"/>
        <pt x="382" y="8" on="1"/>
        <pt x="382" y="30" on="0"/>
        <pt x="395" y="36" on="1"/>
        <pt x="401" y="39" on="0"/>
        <pt x="410" y="40" on="1"/>
        <pt x="460" y="43" on="1"/>
        <pt x="403" y="236" on="1"/>
        <pt x="183" y="236" on="1"/>
        <pt x="127" y="45" on="1"/>
        <pt x="201" y="39" on="1"/>
        <pt x="205" y="0" on="0"/>
        <pt x="178" y="0" on="1"/>
        <pt x="10" y="0" on="1"/>
        <pt x="10" y="8" on="1"/>
        <pt x="10" y="30" on="0"/>
        <pt x="23" y="36" on="1"/>
        <pt x="30" y="39" on="0"/>
        <pt x="78" y="43" on="1"/>
        <pt x="272" y="676" on="1"/>
        <pt x="300" y="680" on="0"/>
        <pt x="328" y="676" on="1"/>
        <pt x="521" y="45" on="1"/>
        <pt x="522" y="45" on="1"/>
        <pt x="586" y="39" on="1"/>
        <pt x="590" y="0" on="0"/>
      </contour>
      <contour>
        <pt x="197" y="281" on="1"/>
        <pt x="390" y="281" on="1"/>
        <pt x="293" y="609" on="1"/>
      </contour>
      <contour>
        <pt x="426" y="821" on="1"/>
        <pt x="426" y="768" on="1"/>
        <pt x="171" y="768" on="1"/>
        <pt x="171" y="821" on="1"/>
      </contour>
    </TTGlyph>
    <TTGlyph name="Aogonek" xMin="10" yMin="-164" xMax="599" yMax="676">
      <contour>
        <pt x="563" y="0" on="1"/>
        <pt x="548" y="0" on="1"/>
        <pt x="481" y="-28" on="0"/>
        <pt x="481" y="-123" on="0"/>
        <pt x="534" y="-123" on="1"/>
        <pt x="561" y="-123" on="0"/>
        <pt x="592" y="-100" on="1"/>
        <pt x="596" y="-103" on="0"/>
        <pt x="601" y="-123" on="0"/>
        <pt x="599" y="-129" on="1"/>
        <pt x="574" y="-164" on="0"/>
        <pt x="515" y="-164" on="1"/>
        <pt x="478" y="-164" on="0"/>
        <pt x="427" y="-124" on="0"/>
        <pt x="427" y="-87" on="1"/>
        <pt x="427" y="-36" on="0"/>
        <pt x="479" y="0" on="1"/>
        <pt x="382" y="0" on="1"/>
        <pt x="382" y="8" on="1"/>
        <pt x="382" y="30" on="0"/>
        <pt x="395" y="36" on="1"/>
        <pt x="401" y="39" on="0"/>
        <pt x="410" y="40" on="1"/>
        <pt x="460" y="43" on="1"/>
        <pt x="403" y="236" on="1"/>
        <pt x="183" y="236" on="1"/>
        <pt x="127" y="45" on="1"/>
        <pt x="201" y="39" on="1"/>
        <pt x="205" y="0" on="0"/>
        <pt x="178" y="0" on="1"/>
        <pt x="10" y="0" on="1"/>
        <pt x="10" y="8" on="1"/>
        <pt x="10" y="30" on="0"/>
        <pt x="23" y="36" on="1"/>
        <pt x="30" y="39" on="0"/>
        <pt x="78" y="43" on="1"/>
        <pt x="272" y="676" on="1"/>
        <pt x="300" y="680" on="0"/>
        <pt x="328" y="676" on="1"/>
        <pt x="521" y="45" on="1"/>
        <pt x="522" y="45" on="1"/>
        <pt x="586" y="39" on="1"/>
        <pt x="590" y="0" on="0"/>
      </contour>
      <contour>
        <pt x="197" y="281" on="1"/>
        <pt x="390" y="281" on="1"/>
        <pt x="293" y="609" on="1"/>
      </contour>
    </TTGlyph>
    <TTGlyph name="Aring" xMin="10" yMin="0" xMax="586" yMax="904">
      <contour>
        <pt x="563" y="0" on="1"/>
        <pt x="382" y="0" on="1"/>
        <pt x="382" y="8" on="1"/>
        <pt x="382" y="30" on="0"/>
        <pt x="395" y="36" on="1"/>
        <pt x="401" y="39" on="0"/>
        <pt x="410" y="40" on="1"/>
        <pt x="460" y="43" on="1"/>
        <pt x="403" y="236" on="1"/>
        <pt x="183" y="236" on="1"/>
        <pt x="127" y="45" on="1"/>
        <pt x="201" y="39" on="1"/>
        <pt x="205" y="0" on="0"/>
        <pt x="178" y="0" on="1"/>
        <pt x="10" y="0" on="1"/>
        <pt x="10" y="8" on="1"/>
        <pt x="10" y="30" on="0"/>
        <pt x="23" y="36" on="1"/>
        <pt x="30" y="39" on="0"/>
        <pt x="78" y="43" on="1"/>
        <pt x="272" y="676" on="1"/>
        <pt x="300" y="680" on="0"/>
        <pt x="328" y="676" on="1"/>
        <pt x="521" y="45" on="1"/>
        <pt x="522" y="45" on="1"/>
        <pt x="586" y="39" on="1"/>
        <pt x="590" y="0" on="0"/>
      </contour>
      <contour>
        <pt x="197" y="281" on="1"/>
        <pt x="390" y="281" on="1"/>
        <pt x="293" y="609" on="1"/>
      </contour>
      <contour>
        <pt x="390" y="780" on="0"/>
        <pt x="340" y="732" on="0"/>
        <pt x="259" y="732" on="0"/>
        <pt x="211" y="778" on="0"/>
        <pt x="211" y="856" on="0"/>
        <pt x="262" y="904" on="0"/>
        <pt x="343" y="904" on="0"/>
        <pt x="391" y="858" on="0"/>
      </contour>
      <contour>
        <pt x="322" y="864" on="0"/>
        <pt x="280" y="864" on="0"/>
        <pt x="255" y="839" on="0"/>
        <pt x="255" y="797" on="0"/>
        <pt x="280" y="772" on="0"/>
        <pt x="322" y="772" on="0"/>
        <pt x="347" y="797" on="0"/>
        <pt x="347" y="839" on="0"/>
      </contour>
    </TTGlyph>
    <TTGlyph name="Atilde" xMin="10" yMin="0" xMax="586" yMax="860">
      <contour>
        <pt x="563" y="0" on="1"/>
        <pt x="382" y="0" on="1"/>
        <pt x="382" y="8" on="1"/>
        <pt x="382" y="30" on="0"/>
        <pt x="395" y="36" on="1"/>
        <pt x="401" y="39" on="0"/>
        <pt x="410" y="40" on="1"/>
        <pt x="460" y="43" on="1"/>
        <pt x="403" y="236" on="1"/>
        <pt x="183" y="236" on="1"/>
        <pt x="127" y="45" on="1"/>
        <pt x="201" y="39" on="1"/>
        <pt x="205" y="0" on="0"/>
        <pt x="178" y="0" on="1"/>
        <pt x="10" y="0" on="1"/>
        <pt x="10" y="8" on="1"/>
        <pt x="10" y="30" on="0"/>
        <pt x="23" y="36" on="1"/>
        <pt x="30" y="39" on="0"/>
        <pt x="78" y="43" on="1"/>
        <pt x="272" y="676" on="1"/>
        <pt x="300" y="680" on="0"/>
        <pt x="328" y="676" on="1"/>
        <pt x="521" y="45" on="1"/>
        <pt x="522" y="45" on="1"/>
        <pt x="586" y="39" on="1"/>
        <pt x="590" y="0" on="0"/>
      </contour>
      <contour>
        <pt x="197" y="281" on="1"/>
        <pt x="390" y="281" on="1"/>
        <pt x="293" y="609" on="1"/>
      </contour>
      <contour>
        <pt x="455" y="810" on="0"/>
        <pt x="402" y="756" on="0"/>
        <pt x="326" y="756" on="0"/>
        <pt x="243" y="806" on="0"/>
        <pt x="221" y="806" on="1"/>
        <pt x="181" y="806" on="0"/>
        <pt x="164" y="757" on="1"/>
        <pt x="134" y="768" on="1"/>
        <pt x="145" y="813" on="0"/>
        <pt x="202" y="860" on="0"/>
        <pt x="266" y="860" on="0"/>
        <pt x="345" y="808" on="0"/>
        <pt x="395" y="808" on="0"/>
        <pt x="427" y="837" on="0"/>
        <pt x="433" y="860" on="1"/>
        <pt x="463" y="851" on="1"/>
      </contour>
    </TTGlyph>
    <TTGlyph name="B" xMin="42" yMin="0" xMax="501" yMax="677">
      <contour>
        <pt x="70" y="677" on="1"/>
        <pt x="274" y="677" on="1"/>
        <pt x="368" y="677" on="0"/>
        <pt x="467" y="583" on="0"/>
        <pt x="467" y="511" on="1"/>
        <pt x="467" y="407" on="0"/>
        <pt x="360" y="360" on="1"/>
        <pt x="417" y="348" on="0"/>
        <pt x="500" y="262" on="0"/>
        <pt x="501" y="196" on="1"/>
        <pt x="502" y="104" on="0"/>
        <pt x="379" y="0" on="0"/>
        <pt x="279" y="0" on="1"/>
        <pt x="42" y="0" on="1"/>
        <pt x="42" y="0" on="0"/>
        <pt x="42" y="8" on="1"/>
        <pt x="42" y="30" on="0"/>
        <pt x="55" y="36" on="1"/>
        <pt x="61" y="39" on="0"/>
        <pt x="70" y="40" on="1"/>
        <pt x="120" y="43" on="1"/>
        <pt x="120" y="632" on="1"/>
        <pt x="47" y="638" on="1"/>
        <pt x="43" y="677" on="0"/>
      </contour>
      <contour>
        <pt x="178" y="634" on="1"/>
        <pt x="178" y="372" on="1"/>
        <pt x="227" y="372" on="1"/>
        <pt x="321" y="372" on="0"/>
        <pt x="405" y="442" on="0"/>
        <pt x="405" y="579" on="0"/>
        <pt x="314" y="642" on="0"/>
        <pt x="229" y="637" on="1"/>
        <pt x="179" y="634" on="1"/>
      </contour>
      <contour>
        <pt x="356" y="41" on="0"/>
        <pt x="439" y="116" on="0"/>
        <pt x="439" y="269" on="0"/>
        <pt x="346" y="334" on="0"/>
        <pt x="239" y="332" on="1"/>
        <pt x="178" y="331" on="1"/>
        <pt x="178" y="43" on="1"/>
        <pt x="254" y="42" on="1"/>
      </contour>
    </TTGlyph>
    <TTGlyph name="C" xMin="39" yMin="-15" xMax="521" yMax="690">
      <contour>
        <pt x="326" y="690" on="1"/>
        <pt x="406" y="690" on="0"/>
        <pt x="514" y="618" on="0"/>
        <pt x="514" y="513" on="0"/>
        <pt x="461" y="512" on="1"/>
        <pt x="461" y="575" on="0"/>
        <pt x="384" y="644" on="0"/>
        <pt x="319" y="644" on="1"/>
        <pt x="214" y="644" on="0"/>
        <pt x="103" y="474" on="0"/>
        <pt x="103" y="198" on="0"/>
        <pt x="211" y="39" on="0"/>
        <pt x="438" y="39" on="0"/>
        <pt x="509" y="100" on="1"/>
        <pt x="521" y="94" on="0"/>
        <pt x="521" y="80" on="1"/>
        <pt x="521" y="52" on="0"/>
        <pt x="405" y="-15" on="0"/>
        <pt x="319" y="-15" on="1"/>
        <pt x="187" y="-15" on="0"/>
        <pt x="44" y="160" on="0"/>
        <pt x="35" y="476" on="0"/>
        <pt x="191" y="690" on="0"/>
      </contour>
    </TTGlyph>
    <TTGlyph name="Cacute" xMin="39" yMin="-15" xMax="521" yMax="879">
      <contour>
        <pt x="467" y="835" on="1"/>
        <pt x="271" y="729" on="1"/>
        <pt x="256" y="736" on="0"/>
        <pt x="245" y="755" on="1"/>
        <pt x="409" y="879" on="1"/>
        <pt x="426" y="878" on="0"/>
        <pt x="458" y="852" on="0"/>
      </contour>
      <contour>
        <pt x="326" y="690" on="1"/>
        <pt x="406" y="690" on="0"/>
        <pt x="514" y="618" on="0"/>
        <pt x="514" y="513" on="0"/>
        <pt x="461" y="512" on="1"/>
        <pt x="461" y="575" on="0"/>
        <pt x="384" y="644" on="0"/>
        <pt x="319" y="644" on="1"/>
        <pt x="214" y="644" on="0"/>
        <pt x="103" y="474" on="0"/>
        <pt x="103" y="198" on="0"/>
        <pt x="211" y="39" on="0"/>
        <pt x="438" y="39" on="0"/>
        <pt x="509" y="100" on="1"/>
        <pt x="521" y="94" on="0"/>
        <pt x="521" y="80" on="1"/>
        <pt x="521" y="52" on="0"/>
        <pt x="405" y="-15" on="0"/>
        <pt x="319" y="-15" on="1"/>
        <pt x="187" y="-15" on="0"/>
        <pt x="44" y="160" on="0"/>
        <pt x="35" y="476" on="0"/>
        <pt x="191" y="690" on="0"/>
      </contour>
    </TTGlyph>
    <TTGlyph name="Ccaron" xMin="39" yMin="-15" xMax="521" yMax="879">
      <contour>
        <pt x="521" y="80" on="1"/>
        <pt x="521" y="52" on="0"/>
        <pt x="405" y="-15" on="0"/>
        <pt x="319" y="-15" on="1"/>
        <pt x="187" y="-15" on="0"/>
        <pt x="44" y="160" on="0"/>
        <pt x="35" y="476" on="0"/>
        <pt x="191" y="690" on="0"/>
        <pt x="326" y="690" on="1"/>
        <pt x="406" y="690" on="0"/>
        <pt x="514" y="618" on="0"/>
        <pt x="514" y="513" on="0"/>
        <pt x="461" y="512" on="1"/>
        <pt x="461" y="575" on="0"/>
        <pt x="384" y="644" on="0"/>
        <pt x="319" y="644" on="1"/>
        <pt x="214" y="644" on="0"/>
        <pt x="103" y="474" on="0"/>
        <pt x="103" y="198" on="0"/>
        <pt x="211" y="39" on="0"/>
        <pt x="438" y="39" on="0"/>
        <pt x="509" y="100" on="1"/>
        <pt x="521" y="94" on="0"/>
      </contour>
      <contour>
        <pt x="483" y="853" on="1"/>
        <pt x="353" y="734" on="1"/>
        <pt x="324" y="726" on="0"/>
        <pt x="295" y="734" on="1"/>
        <pt x="165" y="853" on="1"/>
        <pt x="176" y="872" on="0"/>
        <pt x="191" y="879" on="1"/>
        <pt x="324" y="790" on="1"/>
        <pt x="457" y="879" on="1"/>
        <pt x="472" y="872" on="0"/>
      </contour>
    </TTGlyph>
    <TTGlyph name="Ccedilla" xMin="39" yMin="-189" xMax="521" yMax="690">
      <contour>
        <pt x="326" y="690" on="1"/>
        <pt x="406" y="690" on="0"/>
        <pt x="514" y="618" on="0"/>
        <pt x="514" y="513" on="0"/>
        <pt x="461" y="512" on="1"/>
        <pt x="461" y="575" on="0"/>
        <pt x="384" y="644" on="0"/>
        <pt x="319" y="644" on="1"/>
        <pt x="214" y="644" on="0"/>
        <pt x="103" y="474" on="0"/>
        <pt x="103" y="198" on="0"/>
        <pt x="211" y="39" on="0"/>
        <pt x="438" y="39" on="0"/>
        <pt x="509" y="100" on="1"/>
        <pt x="521" y="94" on="0"/>
        <pt x="521" y="80" on="1"/>
        <pt x="521" y="54" on="0"/>
        <pt x="417" y="-10" on="0"/>
        <pt x="339" y="-14" on="1"/>
        <pt x="333" y="-41" on="1"/>
        <pt x="374" y="-41" on="0"/>
        <pt x="413" y="-79" on="0"/>
        <pt x="413" y="-147" on="0"/>
        <pt x="362" y="-189" on="0"/>
        <pt x="275" y="-189" on="0"/>
        <pt x="249" y="-161" on="1"/>
        <pt x="246" y="-142" on="0"/>
        <pt x="261" y="-132" on="1"/>
        <pt x="285" y="-151" on="0"/>
        <pt x="312" y="-151" on="1"/>
        <pt x="361" y="-151" on="0"/>
        <pt x="361" y="-112" on="1"/>
        <pt x="361" y="-77" on="0"/>
        <pt x="287" y="-77" on="1"/>
        <pt x="303" y="-15" on="1"/>
        <pt x="179" y="-9" on="0"/>
        <pt x="44" y="165" on="0"/>
        <pt x="35" y="476" on="0"/>
        <pt x="191" y="690" on="0"/>
      </contour>
    </TTGlyph>
    <TTGlyph name="Ccircumflex" xMin="39" yMin="-15" xMax="521" yMax="864">
      <contour>
        <pt x="521" y="80" on="1"/>
        <pt x="521" y="52" on="0"/>
        <pt x="405" y="-15" on="0"/>
        <pt x="319" y="-15" on="1"/>
        <pt x="187" y="-15" on="0"/>
        <pt x="44" y="160" on="0"/>
        <pt x="35" y="476" on="0"/>
        <pt x="191" y="690" on="0"/>
        <pt x="326" y="690" on="1"/>
        <pt x="406" y="690" on="0"/>
        <pt x="514" y="618" on="0"/>
        <pt x="514" y="513" on="0"/>
        <pt x="461" y="512" on="1"/>
        <pt x="461" y="575" on="0"/>
        <pt x="384" y="644" on="0"/>
        <pt x="319" y="644" on="1"/>
        <pt x="214" y="644" on="0"/>
        <pt x="103" y="474" on="0"/>
        <pt x="103" y="198" on="0"/>
        <pt x="211" y="39" on="0"/>
        <pt x="438" y="39" on="0"/>
        <pt x="509" y="100" on="1"/>
        <pt x="521" y="94" on="0"/>
      </contour>
      <contour>
        <pt x="324" y="808" on="1"/>
        <pt x="191" y="719" on="1"/>
        <pt x="176" y="726" on="0"/>
        <pt x="165" y="745" on="1"/>
        <pt x="295" y="864" on="1"/>
        <pt x="324" y="872" on="0"/>
        <pt x="353" y="864" on="1"/>
        <pt x="483" y="745" on="1"/>
        <pt x="472" y="726" on="0"/>
        <pt x="457" y="719" on="1"/>
      </contour>
    </TTGlyph>
    <TTGlyph name="Cdotaccent" xMin="39" yMin="-15" xMax="521" yMax="883">
      <contour>
        <pt x="326" y="690" on="1"/>
        <pt x="406" y="690" on="0"/>
        <pt x="514" y="618" on="0"/>
        <pt x="514" y="513" on="0"/>
        <pt x="461" y="512" on="1"/>
        <pt x="461" y="575" on="0"/>
        <pt x="384" y="644" on="0"/>
        <pt x="319" y="644" on="1"/>
        <pt x="214" y="644" on="0"/>
        <pt x="103" y="474" on="0"/>
        <pt x="103" y="198" on="0"/>
        <pt x="211" y="39" on="0"/>
        <pt x="438" y="39" on="0"/>
        <pt x="509" y="100" on="1"/>
        <pt x="521" y="94" on="0"/>
        <pt x="521" y="80" on="1"/>
        <pt x="521" y="52" on="0"/>
        <pt x="405" y="-15" on="0"/>
        <pt x="319" y="-15" on="1"/>
        <pt x="187" y="-15" on="0"/>
        <pt x="44" y="160" on="0"/>
        <pt x="35" y="476" on="0"/>
        <pt x="191" y="690" on="0"/>
      </contour>
      <contour>
        <pt x="342" y="797" on="0"/>
        <pt x="302" y="797" on="0"/>
        <pt x="279" y="820" on="0"/>
        <pt x="279" y="860" on="0"/>
        <pt x="302" y="883" on="0"/>
        <pt x="342" y="883" on="0"/>
        <pt x="365" y="860" on="0"/>
        <pt x="365" y="820" on="0"/>
      </contour>
    </TTGlyph>
    <TTGlyph name="D" xMin="42" yMin="0" xMax="612" yMax="677">
      <contour>
        <pt x="70" y="677" on="1"/>
        <pt x="273" y="677" on="1"/>
        <pt x="453" y="677" on="0"/>
        <pt x="612" y="514" on="0"/>
        <pt x="612" y="175" on="0"/>
        <pt x="441" y="0" on="0"/>
        <pt x="273" y="0" on="1"/>
        <pt x="42" y="0" on="1"/>
        <pt x="42" y="8" on="1"/>
        <pt x="42" y="30" on="0"/>
        <pt x="55" y="36" on="1"/>
        <pt x="61" y="39" on="0"/>
        <pt x="70" y="40" on="1"/>
        <pt x="120" y="43" on="1"/>
        <pt x="120" y="632" on="1"/>
        <pt x="47" y="638" on="1"/>
        <pt x="43" y="677" on="0"/>
      </contour>
      <contour>
        <pt x="178" y="42" on="1"/>
        <pt x="252" y="42" on="1"/>
        <pt x="395" y="42" on="0"/>
        <pt x="550" y="188" on="0"/>
        <pt x="550" y="500" on="0"/>
        <pt x="389" y="642" on="0"/>
        <pt x="229" y="636" on="1"/>
        <pt x="178" y="634" on="1"/>
      </contour>
    </TTGlyph>
    <TTGlyph name="Dcaron" xMin="42" yMin="0" xMax="612" yMax="881">
      <contour>
        <pt x="70" y="677" on="1"/>
        <pt x="273" y="677" on="1"/>
        <pt x="453" y="677" on="0"/>
        <pt x="612" y="514" on="0"/>
        <pt x="612" y="175" on="0"/>
        <pt x="441" y="0" on="0"/>
        <pt x="273" y="0" on="1"/>
        <pt x="42" y="0" on="1"/>
        <pt x="42" y="8" on="1"/>
        <pt x="42" y="30" on="0"/>
        <pt x="55" y="36" on="1"/>
        <pt x="61" y="39" on="0"/>
        <pt x="70" y="40" on="1"/>
        <pt x="120" y="43" on="1"/>
        <pt x="120" y="632" on="1"/>
        <pt x="47" y="638" on="1"/>
        <pt x="43" y="677" on="0"/>
      </contour>
      <contour>
        <pt x="178" y="42" on="1"/>
        <pt x="252" y="42" on="1"/>
        <pt x="395" y="42" on="0"/>
        <pt x="550" y="188" on="0"/>
        <pt x="550" y="500" on="0"/>
        <pt x="389" y="642" on="0"/>
        <pt x="229" y="636" on="1"/>
        <pt x="178" y="634" on="1"/>
      </contour>
      <contour>
        <pt x="432" y="855" on="1"/>
        <pt x="302" y="736" on="1"/>
        <pt x="273" y="728" on="0"/>
        <pt x="244" y="736" on="1"/>
        <pt x="114" y="855" on="1"/>
        <pt x="125" y="874" on="0"/>
        <pt x="140" y="881" on="1"/>
        <pt x="273" y="792" on="1"/>
        <pt x="406" y="881" on="1"/>
        <pt x="421" y="874" on="0"/>
      </contour>
    </TTGlyph>
    <TTGlyph name="Dcroat" xMin="42" yMin="0" xMax="612" yMax="677">
      <contour>
        <pt x="70" y="677" on="1"/>
        <pt x="273" y="677" on="1"/>
        <pt x="453" y="677" on="0"/>
        <pt x="612" y="514" on="0"/>
        <pt x="612" y="175" on="0"/>
        <pt x="441" y="0" on="0"/>
        <pt x="273" y="0" on="1"/>
        <pt x="42" y="0" on="1"/>
        <pt x="42" y="8" on="1"/>
        <pt x="42" y="30" on="0"/>
        <pt x="55" y="36" on="1"/>
        <pt x="61" y="39" on="0"/>
        <pt x="70" y="40" on="1"/>
        <pt x="120" y="43" on="1"/>
        <pt x="120" y="315" on="1"/>
        <pt x="69" y="315" on="1"/>
        <pt x="69" y="360" on="1"/>
        <pt x="120" y="360" on="1"/>
        <pt x="120" y="632" on="1"/>
        <pt x="47" y="638" on="1"/>
        <pt x="43" y="677" on="0"/>
      </contour>
      <contour>
        <pt x="178" y="42" on="1"/>
        <pt x="252" y="42" on="1"/>
        <pt x="395" y="42" on="0"/>
        <pt x="550" y="188" on="0"/>
        <pt x="550" y="500" on="0"/>
        <pt x="389" y="642" on="0"/>
        <pt x="229" y="636" on="1"/>
        <pt x="178" y="634" on="1"/>
        <pt x="178" y="360" on="1"/>
        <pt x="367" y="360" on="1"/>
        <pt x="367" y="315" on="1"/>
        <pt x="178" y="315" on="1"/>
      </contour>
    </TTGlyph>
    <TTGlyph name="E" xMin="42" yMin="0" xMax="501" yMax="675">
      <contour>
        <pt x="501" y="129" on="1"/>
        <pt x="501" y="0" on="1"/>
        <pt x="42" y="0" on="1"/>
        <pt x="42" y="8" on="1"/>
        <pt x="42" y="30" on="0"/>
        <pt x="55" y="36" on="1"/>
        <pt x="61" y="39" on="0"/>
        <pt x="70" y="40" on="1"/>
        <pt x="120" y="43" on="1"/>
        <pt x="120" y="630" on="1"/>
        <pt x="47" y="637" on="1"/>
        <pt x="43" y="675" on="0"/>
        <pt x="71" y="675" on="1"/>
        <pt x="489" y="675" on="1"/>
        <pt x="489" y="536" on="1"/>
        <pt x="489" y="509" on="0"/>
        <pt x="450" y="513" on="1"/>
        <pt x="440" y="625" on="1"/>
        <pt x="178" y="630" on="1"/>
        <pt x="178" y="358" on="1"/>
        <pt x="374" y="369" on="1"/>
        <pt x="380" y="339" on="0"/>
        <pt x="374" y="304" on="1"/>
        <pt x="178" y="315" on="1"/>
        <pt x="178" y="45" on="1"/>
        <pt x="452" y="51" on="1"/>
        <pt x="462" y="152" on="1"/>
        <pt x="470" y="156" on="0"/>
        <pt x="501" y="148" on="0"/>
      </contour>
    </TTGlyph>
    <TTGlyph name="Eacute" xMin="42" yMin="0" xMax="501" yMax="879">
      <contour>
        <pt x="444" y="835" on="1"/>
        <pt x="248" y="729" on="1"/>
        <pt x="233" y="736" on="0"/>
        <pt x="222" y="755" on="1"/>
        <pt x="386" y="879" on="1"/>
        <pt x="403" y="878" on="0"/>
        <pt x="435" y="852" on="0"/>
      </contour>
      <contour>
        <pt x="501" y="129" on="1"/>
        <pt x="501" y="0" on="1"/>
        <pt x="42" y="0" on="1"/>
        <pt x="42" y="8" on="1"/>
        <pt x="42" y="30" on="0"/>
        <pt x="55" y="36" on="1"/>
        <pt x="61" y="39" on="0"/>
        <pt x="70" y="40" on="1"/>
        <pt x="120" y="43" on="1"/>
        <pt x="120" y="630" on="1"/>
        <pt x="47" y="637" on="1"/>
        <pt x="43" y="675" on="0"/>
        <pt x="71" y="675" on="1"/>
        <pt x="489" y="675" on="1"/>
        <pt x="489" y="536" on="1"/>
        <pt x="489" y="509" on="0"/>
        <pt x="450" y="513" on="1"/>
        <pt x="440" y="625" on="1"/>
        <pt x="178" y="630" on="1"/>
        <pt x="178" y="358" on="1"/>
        <pt x="374" y="369" on="1"/>
        <pt x="380" y="339" on="0"/>
        <pt x="374" y="304" on="1"/>
        <pt x="178" y="315" on="1"/>
        <pt x="178" y="45" on="1"/>
        <pt x="452" y="51" on="1"/>
        <pt x="462" y="152" on="1"/>
        <pt x="470" y="156" on="0"/>
        <pt x="501" y="148" on="0"/>
      </contour>
    </TTGlyph>
    <TTGlyph name="Ebreve" xMin="42" yMin="0" xMax="501" yMax="872">
      <contour>
        <pt x="501" y="129" on="1"/>
        <pt x="501" y="0" on="1"/>
        <pt x="42" y="0" on="1"/>
        <pt x="42" y="8" on="1"/>
        <pt x="42" y="30" on="0"/>
        <pt x="55" y="36" on="1"/>
        <pt x="61" y="39" on="0"/>
        <pt x="70" y="40" on="1"/>
        <pt x="120" y="43" on="1"/>
        <pt x="120" y="630" on="1"/>
        <pt x="47" y="637" on="1"/>
        <pt x="43" y="675" on="0"/>
        <pt x="71" y="675" on="1"/>
        <pt x="489" y="675" on="1"/>
        <pt x="489" y="536" on="1"/>
        <pt x="489" y="509" on="0"/>
        <pt x="450" y="513" on="1"/>
        <pt x="440" y="625" on="1"/>
        <pt x="178" y="630" on="1"/>
        <pt x="178" y="358" on="1"/>
        <pt x="374" y="369" on="1"/>
        <pt x="380" y="339" on="0"/>
        <pt x="374" y="304" on="1"/>
        <pt x="178" y="315" on="1"/>
        <pt x="178" y="45" on="1"/>
        <pt x="452" y="51" on="1"/>
        <pt x="462" y="152" on="1"/>
        <pt x="470" y="156" on="0"/>
        <pt x="501" y="148" on="0"/>
      </contour>
      <contour>
        <pt x="302" y="793" on="1"/>
        <pt x="391" y="793" on="0"/>
        <pt x="420" y="870" on="1"/>
        <pt x="453" y="857" on="1"/>
        <pt x="446" y="810" on="0"/>
        <pt x="367" y="734" on="0"/>
        <pt x="234" y="734" on="0"/>
        <pt x="156" y="810" on="0"/>
        <pt x="149" y="857" on="1"/>
        <pt x="182" y="872" on="1"/>
        <pt x="193" y="843" on="0"/>
        <pt x="253" y="793" on="0"/>
      </contour>
    </TTGlyph>
    <TTGlyph name="Ecaron" xMin="42" yMin="0" xMax="501" yMax="879">
      <contour>
        <pt x="501" y="129" on="1"/>
        <pt x="501" y="0" on="1"/>
        <pt x="42" y="0" on="1"/>
        <pt x="42" y="8" on="1"/>
        <pt x="42" y="30" on="0"/>
        <pt x="55" y="36" on="1"/>
        <pt x="61" y="39" on="0"/>
        <pt x="70" y="40" on="1"/>
        <pt x="120" y="43" on="1"/>
        <pt x="120" y="630" on="1"/>
        <pt x="47" y="637" on="1"/>
        <pt x="43" y="675" on="0"/>
        <pt x="71" y="675" on="1"/>
        <pt x="489" y="675" on="1"/>
        <pt x="489" y="536" on="1"/>
        <pt x="489" y="509" on="0"/>
        <pt x="450" y="513" on="1"/>
        <pt x="440" y="625" on="1"/>
        <pt x="178" y="630" on="1"/>
        <pt x="178" y="358" on="1"/>
        <pt x="374" y="369" on="1"/>
        <pt x="380" y="339" on="0"/>
        <pt x="374" y="304" on="1"/>
        <pt x="178" y="315" on="1"/>
        <pt x="178" y="45" on="1"/>
        <pt x="452" y="51" on="1"/>
        <pt x="462" y="152" on="1"/>
        <pt x="470" y="156" on="0"/>
        <pt x="501" y="148" on="0"/>
      </contour>
      <contour>
        <pt x="460" y="853" on="1"/>
        <pt x="330" y="734" on="1"/>
        <pt x="301" y="726" on="0"/>
        <pt x="272" y="734" on="1"/>
        <pt x="142" y="853" on="1"/>
        <pt x="153" y="872" on="0"/>
        <pt x="168" y="879" on="1"/>
        <pt x="301" y="790" on="1"/>
        <pt x="434" y="879" on="1"/>
        <pt x="449" y="872" on="0"/>
      </contour>
    </TTGlyph>
    <TTGlyph name="Ecircumflex" xMin="42" yMin="0" xMax="501" yMax="864">
      <contour>
        <pt x="501" y="129" on="1"/>
        <pt x="501" y="0" on="1"/>
        <pt x="42" y="0" on="1"/>
        <pt x="42" y="8" on="1"/>
        <pt x="42" y="30" on="0"/>
        <pt x="55" y="36" on="1"/>
        <pt x="61" y="39" on="0"/>
        <pt x="70" y="40" on="1"/>
        <pt x="120" y="43" on="1"/>
        <pt x="120" y="630" on="1"/>
        <pt x="47" y="637" on="1"/>
        <pt x="43" y="675" on="0"/>
        <pt x="71" y="675" on="1"/>
        <pt x="489" y="675" on="1"/>
        <pt x="489" y="536" on="1"/>
        <pt x="489" y="509" on="0"/>
        <pt x="450" y="513" on="1"/>
        <pt x="440" y="625" on="1"/>
        <pt x="178" y="630" on="1"/>
        <pt x="178" y="358" on="1"/>
        <pt x="374" y="369" on="1"/>
        <pt x="380" y="339" on="0"/>
        <pt x="374" y="304" on="1"/>
        <pt x="178" y="315" on="1"/>
        <pt x="178" y="45" on="1"/>
        <pt x="452" y="51" on="1"/>
        <pt x="462" y="152" on="1"/>
        <pt x="470" y="156" on="0"/>
        <pt x="501" y="148" on="0"/>
      </contour>
      <contour>
        <pt x="301" y="808" on="1"/>
        <pt x="168" y="719" on="1"/>
        <pt x="153" y="726" on="0"/>
        <pt x="142" y="745" on="1"/>
        <pt x="272" y="864" on="1"/>
        <pt x="301" y="872" on="0"/>
        <pt x="330" y="864" on="1"/>
        <pt x="460" y="745" on="1"/>
        <pt x="449" y="726" on="0"/>
        <pt x="434" y="719" on="1"/>
      </contour>
    </TTGlyph>
    <TTGlyph name="Edieresis" xMin="42" yMin="0" xMax="501" yMax="844">
      <contour>
        <pt x="427" y="777" on="0"/>
        <pt x="400" y="750" on="0"/>
        <pt x="360" y="750" on="0"/>
        <pt x="333" y="778" on="0"/>
        <pt x="333" y="816" on="0"/>
        <pt x="360" y="844" on="0"/>
        <pt x="400" y="844" on="0"/>
        <pt x="427" y="816" on="0"/>
      </contour>
      <contour>
        <pt x="269" y="777" on="0"/>
        <pt x="242" y="750" on="0"/>
        <pt x="203" y="750" on="0"/>
        <pt x="175" y="777" on="0"/>
        <pt x="175" y="816" on="0"/>
        <pt x="203" y="844" on="0"/>
        <pt x="242" y="844" on="0"/>
        <pt x="269" y="816" on="0"/>
      </contour>
      <contour>
        <pt x="501" y="129" on="1"/>
        <pt x="501" y="0" on="1"/>
        <pt x="42" y="0" on="1"/>
        <pt x="42" y="8" on="1"/>
        <pt x="42" y="30" on="0"/>
        <pt x="55" y="36" on="1"/>
        <pt x="61" y="39" on="0"/>
        <pt x="70" y="40" on="1"/>
        <pt x="120" y="43" on="1"/>
        <pt x="120" y="630" on="1"/>
        <pt x="47" y="637" on="1"/>
        <pt x="43" y="675" on="0"/>
        <pt x="71" y="675" on="1"/>
        <pt x="489" y="675" on="1"/>
        <pt x="489" y="536" on="1"/>
        <pt x="489" y="509" on="0"/>
        <pt x="450" y="513" on="1"/>
        <pt x="440" y="625" on="1"/>
        <pt x="178" y="630" on="1"/>
        <pt x="178" y="358" on="1"/>
        <pt x="374" y="369" on="1"/>
        <pt x="380" y="339" on="0"/>
        <pt x="374" y="304" on="1"/>
        <pt x="178" y="315" on="1"/>
        <pt x="178" y="45" on="1"/>
        <pt x="452" y="51" on="1"/>
        <pt x="462" y="152" on="1"/>
        <pt x="470" y="156" on="0"/>
        <pt x="501" y="148" on="0"/>
      </contour>
    </TTGlyph>
    <TTGlyph name="Edotaccent" xMin="42" yMin="0" xMax="501" yMax="883">
      <contour>
        <pt x="318" y="797" on="0"/>
        <pt x="280" y="797" on="0"/>
        <pt x="256" y="820" on="0"/>
        <pt x="256" y="860" on="0"/>
        <pt x="280" y="883" on="0"/>
        <pt x="318" y="883" on="0"/>
        <pt x="342" y="860" on="0"/>
        <pt x="342" y="820" on="0"/>
      </contour>
      <contour>
        <pt x="501" y="129" on="1"/>
        <pt x="501" y="0" on="1"/>
        <pt x="42" y="0" on="1"/>
        <pt x="42" y="8" on="1"/>
        <pt x="42" y="30" on="0"/>
        <pt x="55" y="36" on="1"/>
        <pt x="61" y="39" on="0"/>
        <pt x="70" y="40" on="1"/>
        <pt x="120" y="43" on="1"/>
        <pt x="120" y="630" on="1"/>
        <pt x="47" y="637" on="1"/>
        <pt x="43" y="675" on="0"/>
        <pt x="71" y="675" on="1"/>
        <pt x="489" y="675" on="1"/>
        <pt x="489" y="536" on="1"/>
        <pt x="489" y="509" on="0"/>
        <pt x="450" y="513" on="1"/>
        <pt x="440" y="625" on="1"/>
        <pt x="178" y="630" on="1"/>
        <pt x="178" y="358" on="1"/>
        <pt x="374" y="369" on="1"/>
        <pt x="380" y="339" on="0"/>
        <pt x="374" y="304" on="1"/>
        <pt x="178" y="315" on="1"/>
        <pt x="178" y="45" on="1"/>
        <pt x="452" y="51" on="1"/>
        <pt x="462" y="152" on="1"/>
        <pt x="470" y="156" on="0"/>
        <pt x="501" y="148" on="0"/>
      </contour>
    </TTGlyph>
    <TTGlyph name="Egrave" xMin="42" yMin="0" xMax="501" yMax="869">
      <contour>
        <pt x="371" y="719" on="1"/>
        <pt x="175" y="825" on="1"/>
        <pt x="184" y="842" on="0"/>
        <pt x="216" y="868" on="0"/>
        <pt x="233" y="869" on="1"/>
        <pt x="397" y="745" on="1"/>
        <pt x="386" y="726" on="0"/>
      </contour>
      <contour>
        <pt x="501" y="129" on="1"/>
        <pt x="501" y="0" on="1"/>
        <pt x="42" y="0" on="1"/>
        <pt x="42" y="8" on="1"/>
        <pt x="42" y="30" on="0"/>
        <pt x="55" y="36" on="1"/>
        <pt x="61" y="39" on="0"/>
        <pt x="70" y="40" on="1"/>
        <pt x="120" y="43" on="1"/>
        <pt x="120" y="630" on="1"/>
        <pt x="47" y="637" on="1"/>
        <pt x="43" y="675" on="0"/>
        <pt x="71" y="675" on="1"/>
        <pt x="489" y="675" on="1"/>
        <pt x="489" y="536" on="1"/>
        <pt x="489" y="509" on="0"/>
        <pt x="450" y="513" on="1"/>
        <pt x="440" y="625" on="1"/>
        <pt x="178" y="630" on="1"/>
        <pt x="178" y="358" on="1"/>
        <pt x="374" y="369" on="1"/>
        <pt x="380" y="339" on="0"/>
        <pt x="374" y="304" on="1"/>
        <pt x="178" y="315" on="1"/>
        <pt x="178" y="45" on="1"/>
        <pt x="452" y="51" on="1"/>
        <pt x="462" y="152" on="1"/>
        <pt x="470" y="156" on="0"/>
        <pt x="501" y="148" on="0"/>
      </contour>
    </TTGlyph>
    <TTGlyph name="Emacron" xMin="42" yMin="0" xMax="501" yMax="821">
      <contour>
        <pt x="173" y="821" on="1"/>
        <pt x="428" y="821" on="1"/>
        <pt x="428" y="768" on="1"/>
        <pt x="173" y="768" on="1"/>
      </contour>
      <contour>
        <pt x="501" y="129" on="1"/>
        <pt x="501" y="0" on="1"/>
        <pt x="42" y="0" on="1"/>
        <pt x="42" y="8" on="1"/>
        <pt x="42" y="30" on="0"/>
        <pt x="55" y="36" on="1"/>
        <pt x="61" y="39" on="0"/>
        <pt x="70" y="40" on="1"/>
        <pt x="120" y="43" on="1"/>
        <pt x="120" y="630" on="1"/>
        <pt x="47" y="637" on="1"/>
        <pt x="43" y="675" on="0"/>
        <pt x="71" y="675" on="1"/>
        <pt x="489" y="675" on="1"/>
        <pt x="489" y="536" on="1"/>
        <pt x="489" y="509" on="0"/>
        <pt x="450" y="513" on="1"/>
        <pt x="440" y="625" on="1"/>
        <pt x="178" y="630" on="1"/>
        <pt x="178" y="358" on="1"/>
        <pt x="374" y="369" on="1"/>
        <pt x="380" y="339" on="0"/>
        <pt x="374" y="304" on="1"/>
        <pt x="178" y="315" on="1"/>
        <pt x="178" y="45" on="1"/>
        <pt x="452" y="51" on="1"/>
        <pt x="462" y="152" on="1"/>
        <pt x="470" y="156" on="0"/>
        <pt x="501" y="148" on="0"/>
      </contour>
    </TTGlyph>
    <TTGlyph name="Eng" xMin="42" yMin="-177" xMax="657" yMax="675">
      <contour>
        <pt x="478" y="675" on="1"/>
        <pt x="657" y="675" on="1"/>
        <pt x="657" y="675" on="0"/>
        <pt x="657" y="668" on="1"/>
        <pt x="657" y="646" on="0"/>
        <pt x="644" y="639" on="1"/>
        <pt x="638" y="636" on="0"/>
        <pt x="629" y="635" on="1"/>
        <pt x="577" y="632" on="1"/>
        <pt x="577" y="11" on="1"/>
        <pt x="577" y="-66" on="0"/>
        <pt x="510" y="-177" on="0"/>
        <pt x="443" y="-177" on="1"/>
        <pt x="413" y="-177" on="0"/>
        <pt x="369" y="-145" on="0"/>
        <pt x="369" y="-126" on="1"/>
        <pt x="369" y="-86" on="0"/>
        <pt x="408" y="-88" on="1"/>
        <pt x="411" y="-130" on="0"/>
        <pt x="457" y="-130" on="1"/>
        <pt x="528" y="-130" on="0"/>
        <pt x="529" y="4" on="1"/>
        <pt x="170" y="560" on="1"/>
        <pt x="170" y="45" on="1"/>
        <pt x="244" y="39" on="1"/>
        <pt x="248" y="0" on="0"/>
        <pt x="221" y="0" on="1"/>
        <pt x="42" y="0" on="1"/>
        <pt x="42" y="8" on="1"/>
        <pt x="42" y="30" on="0"/>
        <pt x="55" y="36" on="1"/>
        <pt x="61" y="39" on="0"/>
        <pt x="70" y="40" on="1"/>
        <pt x="121" y="43" on="1"/>
        <pt x="121" y="630" on="1"/>
        <pt x="47" y="636" on="1"/>
        <pt x="43" y="675" on="0"/>
        <pt x="70" y="675" on="1"/>
        <pt x="169" y="675" on="1"/>
        <pt x="529" y="115" on="1"/>
        <pt x="529" y="630" on="1"/>
        <pt x="455" y="636" on="1"/>
        <pt x="451" y="675" on="0"/>
      </contour>
    </TTGlyph>
    <TTGlyph name="Eogonek" xMin="42" yMin="-154" xMax="606" yMax="675">
      <contour>
        <pt x="488" y="-66" on="1"/>
        <pt x="488" y="-113" on="0"/>
        <pt x="541" y="-113" on="1"/>
        <pt x="568" y="-113" on="0"/>
        <pt x="599" y="-90" on="1"/>
        <pt x="603" y="-93" on="0"/>
        <pt x="608" y="-113" on="0"/>
        <pt x="606" y="-119" on="1"/>
        <pt x="595" y="-134" on="0"/>
        <pt x="549" y="-154" on="0"/>
        <pt x="485" y="-154" on="0"/>
        <pt x="434" y="-114" on="0"/>
        <pt x="434" y="-34" on="0"/>
        <pt x="473" y="0" on="1"/>
        <pt x="42" y="0" on="1"/>
        <pt x="42" y="8" on="1"/>
        <pt x="42" y="30" on="0"/>
        <pt x="55" y="36" on="1"/>
        <pt x="61" y="39" on="0"/>
        <pt x="70" y="40" on="1"/>
        <pt x="120" y="43" on="1"/>
        <pt x="120" y="630" on="1"/>
        <pt x="47" y="637" on="1"/>
        <pt x="43" y="675" on="0"/>
        <pt x="71" y="675" on="1"/>
        <pt x="489" y="675" on="1"/>
        <pt x="489" y="536" on="1"/>
        <pt x="489" y="509" on="0"/>
        <pt x="450" y="513" on="1"/>
        <pt x="440" y="625" on="1"/>
        <pt x="178" y="630" on="1"/>
        <pt x="178" y="358" on="1"/>
        <pt x="374" y="369" on="1"/>
        <pt x="380" y="339" on="0"/>
        <pt x="374" y="304" on="1"/>
        <pt x="178" y="315" on="1"/>
        <pt x="178" y="45" on="1"/>
        <pt x="452" y="51" on="1"/>
        <pt x="462" y="152" on="1"/>
        <pt x="470" y="156" on="0"/>
        <pt x="501" y="148" on="0"/>
        <pt x="501" y="129" on="1"/>
        <pt x="501" y="19" on="1"/>
        <pt x="520" y="31" on="0"/>
        <pt x="549" y="39" on="1"/>
        <pt x="568" y="15" on="1"/>
        <pt x="488" y="-13" on="0"/>
      </contour>
    </TTGlyph>
    <TTGlyph name="Eth" xMin="42" yMin="0" xMax="612" yMax="677">
      <contour>
        <pt x="70" y="677" on="1"/>
        <pt x="273" y="677" on="1"/>
        <pt x="453" y="677" on="0"/>
        <pt x="612" y="514" on="0"/>
        <pt x="612" y="175" on="0"/>
        <pt x="441" y="0" on="0"/>
        <pt x="273" y="0" on="1"/>
        <pt x="42" y="0" on="1"/>
        <pt x="42" y="8" on="1"/>
        <pt x="42" y="30" on="0"/>
        <pt x="55" y="36" on="1"/>
        <pt x="61" y="39" on="0"/>
        <pt x="70" y="40" on="1"/>
        <pt x="120" y="43" on="1"/>
        <pt x="120" y="315" on="1"/>
        <pt x="69" y="315" on="1"/>
        <pt x="69" y="360" on="1"/>
        <pt x="120" y="360" on="1"/>
        <pt x="120" y="632" on="1"/>
        <pt x="47" y="638" on="1"/>
        <pt x="43" y="677" on="0"/>
      </contour>
      <contour>
        <pt x="178" y="42" on="1"/>
        <pt x="252" y="42" on="1"/>
        <pt x="395" y="42" on="0"/>
        <pt x="550" y="188" on="0"/>
        <pt x="550" y="500" on="0"/>
        <pt x="389" y="642" on="0"/>
        <pt x="229" y="636" on="1"/>
        <pt x="178" y="634" on="1"/>
        <pt x="178" y="360" on="1"/>
        <pt x="367" y="360" on="1"/>
        <pt x="367" y="315" on="1"/>
        <pt x="178" y="315" on="1"/>
      </contour>
    </TTGlyph>
    <TTGlyph name="Euro" xMin="40" yMin="-16" xMax="490" yMax="620">
      <contour>
        <pt x="362" y="226" on="1"/>
        <pt x="163" y="226" on="1"/>
        <pt x="175" y="132" on="0"/>
        <pt x="263" y="26" on="0"/>
        <pt x="413" y="26" on="0"/>
        <pt x="480" y="87" on="1"/>
        <pt x="490" y="82" on="0"/>
        <pt x="490" y="69" on="1"/>
        <pt x="490" y="42" on="0"/>
        <pt x="389" y="-16" on="0"/>
        <pt x="324" y="-16" on="1"/>
        <pt x="233" y="-16" on="0"/>
        <pt x="116" y="111" on="0"/>
        <pt x="103" y="226" on="1"/>
        <pt x="40" y="226" on="1"/>
        <pt x="40" y="271" on="1"/>
        <pt x="99" y="271" on="1"/>
        <pt x="99" y="292" on="1"/>
        <pt x="99" y="312" on="0"/>
        <pt x="100" y="322" on="1"/>
        <pt x="40" y="322" on="1"/>
        <pt x="40" y="367" on="1"/>
        <pt x="103" y="367" on="1"/>
        <pt x="117" y="483" on="0"/>
        <pt x="235" y="620" on="0"/>
        <pt x="338" y="620" on="1"/>
        <pt x="404" y="620" on="0"/>
        <pt x="484" y="556" on="0"/>
        <pt x="484" y="464" on="0"/>
        <pt x="435" y="460" on="1"/>
        <pt x="435" y="513" on="0"/>
        <pt x="375" y="578" on="0"/>
        <pt x="262" y="578" on="0"/>
        <pt x="175" y="465" on="0"/>
        <pt x="163" y="367" on="1"/>
        <pt x="362" y="367" on="1"/>
        <pt x="362" y="322" on="1"/>
        <pt x="159" y="322" on="1"/>
        <pt x="159" y="298" on="1"/>
        <pt x="159" y="280" on="0"/>
        <pt x="160" y="271" on="1"/>
        <pt x="362" y="271" on="1"/>
      </contour>
    </TTGlyph>
    <TTGlyph name="F" xMin="42" yMin="0" xMax="490" yMax="675">
      <contour>
        <pt x="490" y="675" on="1"/>
        <pt x="490" y="546" on="1"/>
        <pt x="490" y="519" on="0"/>
        <pt x="451" y="523" on="1"/>
        <pt x="440" y="630" on="1"/>
        <pt x="180" y="630" on="1"/>
        <pt x="180" y="370" on="1"/>
        <pt x="375" y="381" on="1"/>
        <pt x="381" y="351" on="0"/>
        <pt x="375" y="316" on="1"/>
        <pt x="180" y="327" on="1"/>
        <pt x="180" y="45" on="1"/>
        <pt x="266" y="39" on="1"/>
        <pt x="270" y="0" on="0"/>
        <pt x="243" y="0" on="1"/>
        <pt x="42" y="0" on="1"/>
        <pt x="42" y="0" on="0"/>
        <pt x="42" y="8" on="1"/>
        <pt x="42" y="30" on="0"/>
        <pt x="55" y="36" on="1"/>
        <pt x="61" y="39" on="0"/>
        <pt x="70" y="40" on="1"/>
        <pt x="120" y="43" on="1"/>
        <pt x="120" y="630" on="1"/>
        <pt x="47" y="637" on="1"/>
        <pt x="43" y="675" on="0"/>
        <pt x="71" y="675" on="1"/>
      </contour>
    </TTGlyph>
    <TTGlyph name="G" xMin="40" yMin="-15" xMax="596" yMax="692">
      <contour>
        <pt x="402" y="303" on="1"/>
        <pt x="596" y="303" on="1"/>
        <pt x="596" y="303" on="0"/>
        <pt x="596" y="296" on="1"/>
        <pt x="596" y="266" on="0"/>
        <pt x="568" y="263" on="1"/>
        <pt x="544" y="260" on="1"/>
        <pt x="544" y="65" on="1"/>
        <pt x="508" y="29" on="0"/>
        <pt x="379" y="-15" on="0"/>
        <pt x="314" y="-15" on="1"/>
        <pt x="188" y="-15" on="0"/>
        <pt x="45" y="156" on="0"/>
        <pt x="35" y="481" on="0"/>
        <pt x="197" y="692" on="0"/>
        <pt x="346" y="692" on="1"/>
        <pt x="444" y="692" on="0"/>
        <pt x="540" y="616" on="0"/>
        <pt x="540" y="512" on="0"/>
        <pt x="487" y="512" on="1"/>
        <pt x="487" y="581" on="0"/>
        <pt x="404" y="646" on="0"/>
        <pt x="332" y="646" on="1"/>
        <pt x="220" y="646" on="0"/>
        <pt x="102" y="473" on="0"/>
        <pt x="102" y="197" on="0"/>
        <pt x="209" y="32" on="0"/>
        <pt x="325" y="32" on="1"/>
        <pt x="424" y="32" on="0"/>
        <pt x="485" y="80" on="1"/>
        <pt x="485" y="258" on="1"/>
        <pt x="380" y="264" on="1"/>
        <pt x="376" y="303" on="0"/>
      </contour>
    </TTGlyph>
    <TTGlyph name="Gbreve" xMin="40" yMin="-15" xMax="596" yMax="872">
      <contour>
        <pt x="402" y="303" on="1"/>
        <pt x="596" y="303" on="1"/>
        <pt x="596" y="303" on="0"/>
        <pt x="596" y="296" on="1"/>
        <pt x="596" y="266" on="0"/>
        <pt x="568" y="263" on="1"/>
        <pt x="544" y="260" on="1"/>
        <pt x="544" y="65" on="1"/>
        <pt x="508" y="29" on="0"/>
        <pt x="379" y="-15" on="0"/>
        <pt x="314" y="-15" on="1"/>
        <pt x="188" y="-15" on="0"/>
        <pt x="45" y="156" on="0"/>
        <pt x="35" y="481" on="0"/>
        <pt x="197" y="692" on="0"/>
        <pt x="346" y="692" on="1"/>
        <pt x="444" y="692" on="0"/>
        <pt x="540" y="616" on="0"/>
        <pt x="540" y="512" on="0"/>
        <pt x="487" y="512" on="1"/>
        <pt x="487" y="581" on="0"/>
        <pt x="404" y="646" on="0"/>
        <pt x="332" y="646" on="1"/>
        <pt x="220" y="646" on="0"/>
        <pt x="102" y="473" on="0"/>
        <pt x="102" y="197" on="0"/>
        <pt x="209" y="32" on="0"/>
        <pt x="325" y="32" on="1"/>
        <pt x="424" y="32" on="0"/>
        <pt x="485" y="80" on="1"/>
        <pt x="485" y="258" on="1"/>
        <pt x="380" y="264" on="1"/>
        <pt x="376" y="303" on="0"/>
      </contour>
      <contour>
        <pt x="460" y="810" on="0"/>
        <pt x="381" y="734" on="0"/>
        <pt x="248" y="734" on="0"/>
        <pt x="170" y="810" on="0"/>
        <pt x="163" y="857" on="1"/>
        <pt x="196" y="872" on="1"/>
        <pt x="207" y="843" on="0"/>
        <pt x="267" y="793" on="0"/>
        <pt x="316" y="793" on="1"/>
        <pt x="405" y="793" on="0"/>
        <pt x="434" y="870" on="1"/>
        <pt x="467" y="857" on="1"/>
      </contour>
    </TTGlyph>
    <TTGlyph name="Gcircumflex" xMin="40" yMin="-15" xMax="596" yMax="864">
      <contour>
        <pt x="402" y="303" on="1"/>
        <pt x="596" y="303" on="1"/>
        <pt x="596" y="303" on="0"/>
        <pt x="596" y="296" on="1"/>
        <pt x="596" y="266" on="0"/>
        <pt x="568" y="263" on="1"/>
        <pt x="544" y="260" on="1"/>
        <pt x="544" y="65" on="1"/>
        <pt x="508" y="29" on="0"/>
        <pt x="379" y="-15" on="0"/>
        <pt x="314" y="-15" on="1"/>
        <pt x="188" y="-15" on="0"/>
        <pt x="45" y="156" on="0"/>
        <pt x="35" y="481" on="0"/>
        <pt x="197" y="692" on="0"/>
        <pt x="346" y="692" on="1"/>
        <pt x="444" y="692" on="0"/>
        <pt x="540" y="616" on="0"/>
        <pt x="540" y="512" on="0"/>
        <pt x="487" y="512" on="1"/>
        <pt x="487" y="581" on="0"/>
        <pt x="404" y="646" on="0"/>
        <pt x="332" y="646" on="1"/>
        <pt x="220" y="646" on="0"/>
        <pt x="102" y="473" on="0"/>
        <pt x="102" y="197" on="0"/>
        <pt x="209" y="32" on="0"/>
        <pt x="325" y="32" on="1"/>
        <pt x="424" y="32" on="0"/>
        <pt x="485" y="80" on="1"/>
        <pt x="485" y="258" on="1"/>
        <pt x="380" y="264" on="1"/>
        <pt x="376" y="303" on="0"/>
      </contour>
      <contour>
        <pt x="315" y="808" on="1"/>
        <pt x="182" y="719" on="1"/>
        <pt x="167" y="726" on="0"/>
        <pt x="156" y="745" on="1"/>
        <pt x="286" y="864" on="1"/>
        <pt x="315" y="872" on="0"/>
        <pt x="344" y="864" on="1"/>
        <pt x="474" y="745" on="1"/>
        <pt x="463" y="726" on="0"/>
        <pt x="448" y="719" on="1"/>
      </contour>
    </TTGlyph>
    <TTGlyph name="Gdotaccent" xMin="40" yMin="-15" xMax="596" yMax="883">
      <contour>
        <pt x="402" y="303" on="1"/>
        <pt x="596" y="303" on="1"/>
        <pt x="596" y="303" on="0"/>
        <pt x="596" y="296" on="1"/>
        <pt x="596" y="266" on="0"/>
        <pt x="568" y="263" on="1"/>
        <pt x="544" y="260" on="1"/>
        <pt x="544" y="65" on="1"/>
        <pt x="508" y="29" on="0"/>
        <pt x="379" y="-15" on="0"/>
        <pt x="314" y="-15" on="1"/>
        <pt x="188" y="-15" on="0"/>
        <pt x="45" y="156" on="0"/>
        <pt x="35" y="481" on="0"/>
        <pt x="197" y="692" on="0"/>
        <pt x="346" y="692" on="1"/>
        <pt x="444" y="692" on="0"/>
        <pt x="540" y="616" on="0"/>
        <pt x="540" y="512" on="0"/>
        <pt x="487" y="512" on="1"/>
        <pt x="487" y="581" on="0"/>
        <pt x="404" y="646" on="0"/>
        <pt x="332" y="646" on="1"/>
        <pt x="220" y="646" on="0"/>
        <pt x="102" y="473" on="0"/>
        <pt x="102" y="197" on="0"/>
        <pt x="209" y="32" on="0"/>
        <pt x="325" y="32" on="1"/>
        <pt x="424" y="32" on="0"/>
        <pt x="485" y="80" on="1"/>
        <pt x="485" y="258" on="1"/>
        <pt x="380" y="264" on="1"/>
        <pt x="376" y="303" on="0"/>
      </contour>
      <contour>
        <pt x="332" y="797" on="0"/>
        <pt x="294" y="797" on="0"/>
        <pt x="270" y="820" on="0"/>
        <pt x="270" y="860" on="0"/>
        <pt x="294" y="883" on="0"/>
        <pt x="332" y="883" on="0"/>
        <pt x="356" y="860" on="0"/>
        <pt x="356" y="820" on="0"/>
      </contour>
    </TTGlyph>
    <TTGlyph name="H" xMin="42" yMin="0" xMax="657" yMax="675">
      <contour>
        <pt x="629" y="0" on="1"/>
        <pt x="443" y="0" on="1"/>
        <pt x="443" y="8" on="1"/>
        <pt x="443" y="30" on="0"/>
        <pt x="456" y="36" on="1"/>
        <pt x="462" y="39" on="0"/>
        <pt x="471" y="40" on="1"/>
        <pt x="521" y="43" on="1"/>
        <pt x="521" y="316" on="1"/>
        <pt x="178" y="316" on="1"/>
        <pt x="178" y="45" on="1"/>
        <pt x="252" y="39" on="1"/>
        <pt x="256" y="0" on="0"/>
        <pt x="229" y="0" on="1"/>
        <pt x="42" y="0" on="1"/>
        <pt x="42" y="8" on="1"/>
        <pt x="42" y="30" on="0"/>
        <pt x="55" y="36" on="1"/>
        <pt x="61" y="39" on="0"/>
        <pt x="70" y="40" on="1"/>
        <pt x="120" y="43" on="1"/>
        <pt x="120" y="630" on="1"/>
        <pt x="47" y="636" on="1"/>
        <pt x="43" y="675" on="0"/>
        <pt x="70" y="675" on="1"/>
        <pt x="257" y="675" on="1"/>
        <pt x="257" y="668" on="1"/>
        <pt x="257" y="646" on="0"/>
        <pt x="244" y="639" on="1"/>
        <pt x="238" y="636" on="0"/>
        <pt x="229" y="635" on="1"/>
        <pt x="179" y="632" on="1"/>
        <pt x="179" y="361" on="1"/>
        <pt x="521" y="361" on="1"/>
        <pt x="521" y="630" on="1"/>
        <pt x="448" y="636" on="1"/>
        <pt x="444" y="675" on="0"/>
        <pt x="471" y="675" on="1"/>
        <pt x="657" y="675" on="1"/>
        <pt x="657" y="668" on="1"/>
        <pt x="657" y="646" on="0"/>
        <pt x="644" y="639" on="1"/>
        <pt x="638" y="636" on="0"/>
        <pt x="629" y="635" on="1"/>
        <pt x="579" y="632" on="1"/>
        <pt x="579" y="45" on="1"/>
        <pt x="652" y="39" on="1"/>
        <pt x="656" y="0" on="0"/>
      </contour>
    </TTGlyph>
    <TTGlyph name="Hbar" xMin="42" yMin="0" xMax="657" yMax="675">
      <contour>
        <pt x="579" y="506" on="1"/>
        <pt x="642" y="506" on="1"/>
        <pt x="642" y="461" on="1"/>
        <pt x="579" y="461" on="1"/>
        <pt x="579" y="45" on="1"/>
        <pt x="652" y="39" on="1"/>
        <pt x="656" y="0" on="0"/>
        <pt x="629" y="0" on="1"/>
        <pt x="443" y="0" on="1"/>
        <pt x="443" y="8" on="1"/>
        <pt x="443" y="30" on="0"/>
        <pt x="456" y="36" on="1"/>
        <pt x="462" y="39" on="0"/>
        <pt x="471" y="40" on="1"/>
        <pt x="521" y="43" on="1"/>
        <pt x="521" y="316" on="1"/>
        <pt x="178" y="316" on="1"/>
        <pt x="178" y="45" on="1"/>
        <pt x="252" y="39" on="1"/>
        <pt x="256" y="0" on="0"/>
        <pt x="229" y="0" on="1"/>
        <pt x="42" y="0" on="1"/>
        <pt x="42" y="8" on="1"/>
        <pt x="42" y="30" on="0"/>
        <pt x="55" y="36" on="1"/>
        <pt x="61" y="39" on="0"/>
        <pt x="70" y="40" on="1"/>
        <pt x="120" y="43" on="1"/>
        <pt x="120" y="461" on="1"/>
        <pt x="51" y="461" on="1"/>
        <pt x="51" y="506" on="1"/>
        <pt x="120" y="506" on="1"/>
        <pt x="120" y="630" on="1"/>
        <pt x="47" y="636" on="1"/>
        <pt x="43" y="675" on="0"/>
        <pt x="70" y="675" on="1"/>
        <pt x="257" y="675" on="1"/>
        <pt x="257" y="668" on="1"/>
        <pt x="257" y="646" on="0"/>
        <pt x="244" y="639" on="1"/>
        <pt x="238" y="636" on="0"/>
        <pt x="229" y="635" on="1"/>
        <pt x="179" y="632" on="1"/>
        <pt x="179" y="506" on="1"/>
        <pt x="521" y="506" on="1"/>
        <pt x="521" y="630" on="1"/>
        <pt x="448" y="636" on="1"/>
        <pt x="444" y="675" on="0"/>
        <pt x="471" y="675" on="1"/>
        <pt x="657" y="675" on="1"/>
        <pt x="657" y="668" on="1"/>
        <pt x="657" y="646" on="0"/>
        <pt x="644" y="639" on="1"/>
        <pt x="638" y="636" on="0"/>
        <pt x="629" y="635" on="1"/>
        <pt x="579" y="632" on="1"/>
      </contour>
      <contour>
        <pt x="521" y="361" on="1"/>
        <pt x="521" y="461" on="1"/>
        <pt x="179" y="461" on="1"/>
        <pt x="179" y="361" on="1"/>
      </contour>
    </TTGlyph>
    <TTGlyph name="Hcircumflex" xMin="42" yMin="0" xMax="657" yMax="864">
      <contour>
        <pt x="629" y="0" on="1"/>
        <pt x="443" y="0" on="1"/>
        <pt x="443" y="8" on="1"/>
        <pt x="443" y="30" on="0"/>
        <pt x="456" y="36" on="1"/>
        <pt x="462" y="39" on="0"/>
        <pt x="471" y="40" on="1"/>
        <pt x="521" y="43" on="1"/>
        <pt x="521" y="316" on="1"/>
        <pt x="178" y="316" on="1"/>
        <pt x="178" y="45" on="1"/>
        <pt x="252" y="39" on="1"/>
        <pt x="256" y="0" on="0"/>
        <pt x="229" y="0" on="1"/>
        <pt x="42" y="0" on="1"/>
        <pt x="42" y="8" on="1"/>
        <pt x="42" y="30" on="0"/>
        <pt x="55" y="36" on="1"/>
        <pt x="61" y="39" on="0"/>
        <pt x="70" y="40" on="1"/>
        <pt x="120" y="43" on="1"/>
        <pt x="120" y="630" on="1"/>
        <pt x="47" y="636" on="1"/>
        <pt x="43" y="675" on="0"/>
        <pt x="70" y="675" on="1"/>
        <pt x="257" y="675" on="1"/>
        <pt x="257" y="668" on="1"/>
        <pt x="257" y="646" on="0"/>
        <pt x="244" y="639" on="1"/>
        <pt x="238" y="636" on="0"/>
        <pt x="229" y="635" on="1"/>
        <pt x="179" y="632" on="1"/>
        <pt x="179" y="361" on="1"/>
        <pt x="521" y="361" on="1"/>
        <pt x="521" y="630" on="1"/>
        <pt x="448" y="636" on="1"/>
        <pt x="444" y="675" on="0"/>
        <pt x="471" y="675" on="1"/>
        <pt x="657" y="675" on="1"/>
        <pt x="657" y="668" on="1"/>
        <pt x="657" y="646" on="0"/>
        <pt x="644" y="639" on="1"/>
        <pt x="638" y="636" on="0"/>
        <pt x="629" y="635" on="1"/>
        <pt x="579" y="632" on="1"/>
        <pt x="579" y="45" on="1"/>
        <pt x="652" y="39" on="1"/>
        <pt x="656" y="0" on="0"/>
      </contour>
      <contour>
        <pt x="354" y="808" on="1"/>
        <pt x="221" y="719" on="1"/>
        <pt x="206" y="726" on="0"/>
        <pt x="195" y="745" on="1"/>
        <pt x="325" y="864" on="1"/>
        <pt x="354" y="872" on="0"/>
        <pt x="383" y="864" on="1"/>
        <pt x="513" y="745" on="1"/>
        <pt x="502" y="726" on="0"/>
        <pt x="487" y="719" on="1"/>
      </contour>
    </TTGlyph>
    <TTGlyph name="I" xMin="42" yMin="0" xMax="257" yMax="675">
      <contour>
        <pt x="178" y="632" on="1"/>
        <pt x="178" y="45" on="1"/>
        <pt x="252" y="39" on="1"/>
        <pt x="256" y="0" on="0"/>
        <pt x="229" y="0" on="1"/>
        <pt x="42" y="0" on="1"/>
        <pt x="42" y="8" on="1"/>
        <pt x="42" y="30" on="0"/>
        <pt x="55" y="36" on="1"/>
        <pt x="61" y="39" on="0"/>
        <pt x="70" y="40" on="1"/>
        <pt x="120" y="43" on="1"/>
        <pt x="120" y="630" on="1"/>
        <pt x="47" y="636" on="1"/>
        <pt x="43" y="675" on="0"/>
        <pt x="70" y="675" on="1"/>
        <pt x="257" y="675" on="1"/>
        <pt x="257" y="668" on="1"/>
        <pt x="257" y="646" on="0"/>
        <pt x="244" y="639" on="1"/>
        <pt x="238" y="636" on="0"/>
        <pt x="229" y="635" on="1"/>
        <pt x="179" y="632" on="1"/>
      </contour>
    </TTGlyph>
    <TTGlyph name="IJ" xMin="42" yMin="-100" xMax="517" yMax="677">
      <contour>
        <pt x="321" y="677" on="1"/>
        <pt x="517" y="677" on="1"/>
        <pt x="517" y="677" on="0"/>
        <pt x="517" y="670" on="1"/>
        <pt x="517" y="648" on="0"/>
        <pt x="504" y="641" on="1"/>
        <pt x="497" y="638" on="0"/>
        <pt x="444" y="634" on="1"/>
        <pt x="443" y="634" on="1"/>
        <pt x="441" y="115" on="1"/>
        <pt x="441" y="25" on="0"/>
        <pt x="372" y="-100" on="0"/>
        <pt x="301" y="-100" on="1"/>
        <pt x="271" y="-100" on="0"/>
        <pt x="227" y="-68" on="0"/>
        <pt x="227" y="-48" on="1"/>
        <pt x="227" y="-9" on="0"/>
        <pt x="266" y="-11" on="1"/>
        <pt x="269" y="-53" on="0"/>
        <pt x="315" y="-53" on="1"/>
        <pt x="348" y="-53" on="0"/>
        <pt x="379" y="6" on="0"/>
        <pt x="379" y="79" on="1"/>
        <pt x="381" y="632" on="1"/>
        <pt x="298" y="638" on="1"/>
        <pt x="294" y="677" on="0"/>
      </contour>
      <contour>
        <pt x="229" y="0" on="1"/>
        <pt x="42" y="0" on="1"/>
        <pt x="42" y="8" on="1"/>
        <pt x="42" y="30" on="0"/>
        <pt x="55" y="36" on="1"/>
        <pt x="61" y="39" on="0"/>
        <pt x="70" y="40" on="1"/>
        <pt x="120" y="43" on="1"/>
        <pt x="120" y="630" on="1"/>
        <pt x="47" y="636" on="1"/>
        <pt x="43" y="675" on="0"/>
        <pt x="70" y="675" on="1"/>
        <pt x="257" y="675" on="1"/>
        <pt x="257" y="668" on="1"/>
        <pt x="257" y="646" on="0"/>
        <pt x="244" y="639" on="1"/>
        <pt x="238" y="636" on="0"/>
        <pt x="229" y="635" on="1"/>
        <pt x="179" y="632" on="1"/>
        <pt x="178" y="632" on="1"/>
        <pt x="178" y="45" on="1"/>
        <pt x="252" y="39" on="1"/>
        <pt x="256" y="0" on="0"/>
      </contour>
    </TTGlyph>
    <TTGlyph name="Iacute" xMin="42" yMin="0" xMax="297" yMax="879">
      <contour>
        <pt x="70" y="675" on="1"/>
        <pt x="257" y="675" on="1"/>
        <pt x="257" y="675" on="0"/>
        <pt x="257" y="668" on="1"/>
        <pt x="257" y="646" on="0"/>
        <pt x="244" y="639" on="1"/>
        <pt x="238" y="636" on="0"/>
        <pt x="229" y="635" on="1"/>
        <pt x="179" y="632" on="1"/>
        <pt x="178" y="632" on="1"/>
        <pt x="178" y="45" on="1"/>
        <pt x="252" y="39" on="1"/>
        <pt x="256" y="0" on="0"/>
        <pt x="229" y="0" on="1"/>
        <pt x="42" y="0" on="1"/>
        <pt x="42" y="0" on="0"/>
        <pt x="42" y="8" on="1"/>
        <pt x="42" y="30" on="0"/>
        <pt x="55" y="36" on="1"/>
        <pt x="61" y="39" on="0"/>
        <pt x="70" y="40" on="1"/>
        <pt x="120" y="43" on="1"/>
        <pt x="120" y="630" on="1"/>
        <pt x="47" y="636" on="1"/>
        <pt x="43" y="675" on="0"/>
      </contour>
      <contour>
        <pt x="297" y="835" on="1"/>
        <pt x="101" y="729" on="1"/>
        <pt x="86" y="736" on="0"/>
        <pt x="75" y="755" on="1"/>
        <pt x="239" y="879" on="1"/>
        <pt x="256" y="878" on="0"/>
        <pt x="288" y="852" on="0"/>
      </contour>
    </TTGlyph>
    <TTGlyph name="Ibreve" xMin="2" yMin="0" xMax="306" yMax="872">
      <contour>
        <pt x="299" y="810" on="0"/>
        <pt x="220" y="734" on="0"/>
        <pt x="87" y="734" on="0"/>
        <pt x="9" y="810" on="0"/>
        <pt x="2" y="857" on="1"/>
        <pt x="35" y="872" on="1"/>
        <pt x="46" y="843" on="0"/>
        <pt x="106" y="793" on="0"/>
        <pt x="155" y="793" on="1"/>
        <pt x="244" y="793" on="0"/>
        <pt x="273" y="870" on="1"/>
        <pt x="306" y="857" on="1"/>
      </contour>
      <contour>
        <pt x="70" y="675" on="1"/>
        <pt x="257" y="675" on="1"/>
        <pt x="257" y="668" on="1"/>
        <pt x="257" y="646" on="0"/>
        <pt x="244" y="639" on="1"/>
        <pt x="238" y="636" on="0"/>
        <pt x="229" y="635" on="1"/>
        <pt x="179" y="632" on="1"/>
        <pt x="178" y="632" on="1"/>
        <pt x="178" y="45" on="1"/>
        <pt x="252" y="39" on="1"/>
        <pt x="256" y="0" on="0"/>
        <pt x="229" y="0" on="1"/>
        <pt x="42" y="0" on="1"/>
        <pt x="42" y="8" on="1"/>
        <pt x="42" y="30" on="0"/>
        <pt x="55" y="36" on="1"/>
        <pt x="61" y="39" on="0"/>
        <pt x="70" y="40" on="1"/>
        <pt x="120" y="43" on="1"/>
        <pt x="120" y="630" on="1"/>
        <pt x="47" y="636" on="1"/>
        <pt x="43" y="675" on="0"/>
      </contour>
    </TTGlyph>
    <TTGlyph name="Icircumflex" xMin="-5" yMin="0" xMax="313" yMax="864">
      <contour>
        <pt x="183" y="864" on="1"/>
        <pt x="313" y="745" on="1"/>
        <pt x="302" y="726" on="0"/>
        <pt x="287" y="719" on="1"/>
        <pt x="154" y="808" on="1"/>
        <pt x="21" y="719" on="1"/>
        <pt x="6" y="726" on="0"/>
        <pt x="-5" y="745" on="1"/>
        <pt x="125" y="864" on="1"/>
        <pt x="154" y="872" on="0"/>
      </contour>
      <contour>
        <pt x="70" y="675" on="1"/>
        <pt x="257" y="675" on="1"/>
        <pt x="257" y="675" on="0"/>
        <pt x="257" y="668" on="1"/>
        <pt x="257" y="646" on="0"/>
        <pt x="244" y="639" on="1"/>
        <pt x="238" y="636" on="0"/>
        <pt x="229" y="635" on="1"/>
        <pt x="179" y="632" on="1"/>
        <pt x="178" y="632" on="1"/>
        <pt x="178" y="45" on="1"/>
        <pt x="252" y="39" on="1"/>
        <pt x="256" y="0" on="0"/>
        <pt x="229" y="0" on="1"/>
        <pt x="42" y="0" on="1"/>
        <pt x="42" y="0" on="0"/>
        <pt x="42" y="8" on="1"/>
        <pt x="42" y="30" on="0"/>
        <pt x="55" y="36" on="1"/>
        <pt x="61" y="39" on="0"/>
        <pt x="70" y="40" on="1"/>
        <pt x="120" y="43" on="1"/>
        <pt x="120" y="630" on="1"/>
        <pt x="47" y="636" on="1"/>
        <pt x="43" y="675" on="0"/>
      </contour>
    </TTGlyph>
    <TTGlyph name="Idieresis" xMin="28" yMin="0" xMax="280" yMax="844">
      <contour>
        <pt x="186" y="816" on="0"/>
        <pt x="213" y="844" on="0"/>
        <pt x="253" y="844" on="0"/>
        <pt x="280" y="816" on="0"/>
        <pt x="280" y="777" on="0"/>
        <pt x="253" y="750" on="0"/>
        <pt x="213" y="750" on="0"/>
        <pt x="186" y="778" on="0"/>
      </contour>
      <contour>
        <pt x="70" y="675" on="1"/>
        <pt x="257" y="675" on="1"/>
        <pt x="257" y="668" on="1"/>
        <pt x="257" y="646" on="0"/>
        <pt x="244" y="639" on="1"/>
        <pt x="238" y="636" on="0"/>
        <pt x="229" y="635" on="1"/>
        <pt x="179" y="632" on="1"/>
        <pt x="178" y="632" on="1"/>
        <pt x="178" y="45" on="1"/>
        <pt x="252" y="39" on="1"/>
        <pt x="256" y="0" on="0"/>
        <pt x="229" y="0" on="1"/>
        <pt x="42" y="0" on="1"/>
        <pt x="42" y="8" on="1"/>
        <pt x="42" y="30" on="0"/>
        <pt x="55" y="36" on="1"/>
        <pt x="61" y="39" on="0"/>
        <pt x="70" y="40" on="1"/>
        <pt x="120" y="43" on="1"/>
        <pt x="120" y="630" on="1"/>
        <pt x="47" y="636" on="1"/>
        <pt x="43" y="675" on="0"/>
      </contour>
      <contour>
        <pt x="95" y="844" on="0"/>
        <pt x="122" y="816" on="0"/>
        <pt x="122" y="777" on="0"/>
        <pt x="95" y="750" on="0"/>
        <pt x="56" y="750" on="0"/>
        <pt x="28" y="777" on="0"/>
        <pt x="28" y="816" on="0"/>
        <pt x="56" y="844" on="0"/>
      </contour>
    </TTGlyph>
    <TTGlyph name="Idotaccent" xMin="42" yMin="0" xMax="257" yMax="883">
      <contour>
        <pt x="178" y="632" on="1"/>
        <pt x="178" y="45" on="1"/>
        <pt x="252" y="39" on="1"/>
        <pt x="256" y="0" on="0"/>
        <pt x="229" y="0" on="1"/>
        <pt x="42" y="0" on="1"/>
        <pt x="42" y="8" on="1"/>
        <pt x="42" y="30" on="0"/>
        <pt x="55" y="36" on="1"/>
        <pt x="61" y="39" on="0"/>
        <pt x="70" y="40" on="1"/>
        <pt x="120" y="43" on="1"/>
        <pt x="120" y="630" on="1"/>
        <pt x="47" y="636" on="1"/>
        <pt x="43" y="675" on="0"/>
        <pt x="70" y="675" on="1"/>
        <pt x="257" y="675" on="1"/>
        <pt x="257" y="668" on="1"/>
        <pt x="257" y="646" on="0"/>
        <pt x="244" y="639" on="1"/>
        <pt x="238" y="636" on="0"/>
        <pt x="229" y="635" on="1"/>
        <pt x="179" y="632" on="1"/>
      </contour>
      <contour>
        <pt x="172" y="797" on="0"/>
        <pt x="132" y="797" on="0"/>
        <pt x="109" y="820" on="0"/>
        <pt x="109" y="860" on="0"/>
        <pt x="132" y="883" on="0"/>
        <pt x="172" y="883" on="0"/>
        <pt x="195" y="860" on="0"/>
        <pt x="195" y="820" on="0"/>
      </contour>
    </TTGlyph>
    <TTGlyph name="Igrave" xMin="28" yMin="0" xMax="257" yMax="869">
      <contour>
        <pt x="178" y="632" on="1"/>
        <pt x="178" y="45" on="1"/>
        <pt x="252" y="39" on="1"/>
        <pt x="256" y="0" on="0"/>
        <pt x="229" y="0" on="1"/>
        <pt x="42" y="0" on="1"/>
        <pt x="42" y="8" on="1"/>
        <pt x="42" y="30" on="0"/>
        <pt x="55" y="36" on="1"/>
        <pt x="61" y="39" on="0"/>
        <pt x="70" y="40" on="1"/>
        <pt x="120" y="43" on="1"/>
        <pt x="120" y="630" on="1"/>
        <pt x="47" y="636" on="1"/>
        <pt x="43" y="675" on="0"/>
        <pt x="70" y="675" on="1"/>
        <pt x="257" y="675" on="1"/>
        <pt x="257" y="668" on="1"/>
        <pt x="257" y="646" on="0"/>
        <pt x="244" y="639" on="1"/>
        <pt x="238" y="636" on="0"/>
        <pt x="229" y="635" on="1"/>
        <pt x="179" y="632" on="1"/>
      </contour>
      <contour>
        <pt x="86" y="869" on="1"/>
        <pt x="250" y="745" on="1"/>
        <pt x="239" y="726" on="0"/>
        <pt x="224" y="719" on="1"/>
        <pt x="28" y="825" on="1"/>
        <pt x="37" y="842" on="0"/>
        <pt x="69" y="868" on="0"/>
      </contour>
    </TTGlyph>
    <TTGlyph name="Imacron" xMin="26" yMin="0" xMax="281" yMax="821">
      <contour>
        <pt x="26" y="821" on="1"/>
        <pt x="281" y="821" on="1"/>
        <pt x="281" y="768" on="1"/>
        <pt x="26" y="768" on="1"/>
      </contour>
      <contour>
        <pt x="70" y="675" on="1"/>
        <pt x="257" y="675" on="1"/>
        <pt x="257" y="675" on="0"/>
        <pt x="257" y="668" on="1"/>
        <pt x="257" y="646" on="0"/>
        <pt x="244" y="639" on="1"/>
        <pt x="238" y="636" on="0"/>
        <pt x="229" y="635" on="1"/>
        <pt x="179" y="632" on="1"/>
        <pt x="178" y="632" on="1"/>
        <pt x="178" y="45" on="1"/>
        <pt x="252" y="39" on="1"/>
        <pt x="256" y="0" on="0"/>
        <pt x="229" y="0" on="1"/>
        <pt x="42" y="0" on="1"/>
        <pt x="42" y="0" on="0"/>
        <pt x="42" y="8" on="1"/>
        <pt x="42" y="30" on="0"/>
        <pt x="55" y="36" on="1"/>
        <pt x="61" y="39" on="0"/>
        <pt x="70" y="40" on="1"/>
        <pt x="120" y="43" on="1"/>
        <pt x="120" y="630" on="1"/>
        <pt x="47" y="636" on="1"/>
        <pt x="43" y="675" on="0"/>
      </contour>
    </TTGlyph>
    <TTGlyph name="Iogonek" xMin="42" yMin="-154" xMax="348" yMax="675">
      <contour>
        <pt x="230" y="-66" on="1"/>
        <pt x="230" y="-113" on="0"/>
        <pt x="283" y="-113" on="1"/>
        <pt x="310" y="-113" on="0"/>
        <pt x="341" y="-90" on="1"/>
        <pt x="345" y="-93" on="0"/>
        <pt x="350" y="-113" on="0"/>
        <pt x="348" y="-119" on="1"/>
        <pt x="323" y="-154" on="0"/>
        <pt x="264" y="-154" on="1"/>
        <pt x="227" y="-154" on="0"/>
        <pt x="176" y="-114" on="0"/>
        <pt x="176" y="-34" on="0"/>
        <pt x="215" y="0" on="1"/>
        <pt x="42" y="0" on="1"/>
        <pt x="42" y="8" on="1"/>
        <pt x="42" y="30" on="0"/>
        <pt x="55" y="36" on="1"/>
        <pt x="61" y="39" on="0"/>
        <pt x="70" y="40" on="1"/>
        <pt x="120" y="43" on="1"/>
        <pt x="120" y="630" on="1"/>
        <pt x="47" y="636" on="1"/>
        <pt x="43" y="675" on="0"/>
        <pt x="70" y="675" on="1"/>
        <pt x="257" y="675" on="1"/>
        <pt x="257" y="668" on="1"/>
        <pt x="257" y="646" on="0"/>
        <pt x="244" y="639" on="1"/>
        <pt x="238" y="636" on="0"/>
        <pt x="229" y="635" on="1"/>
        <pt x="179" y="632" on="1"/>
        <pt x="178" y="632" on="1"/>
        <pt x="178" y="45" on="1"/>
        <pt x="252" y="39" on="1"/>
        <pt x="252" y="38" on="0"/>
        <pt x="253" y="27" on="0"/>
        <pt x="253" y="24" on="1"/>
        <pt x="270" y="33" on="0"/>
        <pt x="291" y="39" on="1"/>
        <pt x="310" y="15" on="1"/>
        <pt x="230" y="-13" on="0"/>
      </contour>
    </TTGlyph>
    <TTGlyph name="Itilde" xMin="-11" yMin="0" xMax="318" yMax="860">
      <contour>
        <pt x="310" y="810" on="0"/>
        <pt x="257" y="756" on="0"/>
        <pt x="181" y="756" on="0"/>
        <pt x="98" y="806" on="0"/>
        <pt x="76" y="806" on="1"/>
        <pt x="36" y="806" on="0"/>
        <pt x="19" y="757" on="1"/>
        <pt x="-11" y="768" on="1"/>
        <pt x="0" y="813" on="0"/>
        <pt x="57" y="860" on="0"/>
        <pt x="121" y="860" on="0"/>
        <pt x="200" y="808" on="0"/>
        <pt x="250" y="808" on="0"/>
        <pt x="282" y="837" on="0"/>
        <pt x="288" y="860" on="1"/>
        <pt x="318" y="851" on="1"/>
      </contour>
      <contour>
        <pt x="70" y="675" on="1"/>
        <pt x="257" y="675" on="1"/>
        <pt x="257" y="668" on="1"/>
        <pt x="257" y="646" on="0"/>
        <pt x="244" y="639" on="1"/>
        <pt x="238" y="636" on="0"/>
        <pt x="229" y="635" on="1"/>
        <pt x="179" y="632" on="1"/>
        <pt x="178" y="632" on="1"/>
        <pt x="178" y="45" on="1"/>
        <pt x="252" y="39" on="1"/>
        <pt x="256" y="0" on="0"/>
        <pt x="229" y="0" on="1"/>
        <pt x="42" y="0" on="1"/>
        <pt x="42" y="8" on="1"/>
        <pt x="42" y="30" on="0"/>
        <pt x="55" y="36" on="1"/>
        <pt x="61" y="39" on="0"/>
        <pt x="70" y="40" on="1"/>
        <pt x="120" y="43" on="1"/>
        <pt x="120" y="630" on="1"/>
        <pt x="47" y="636" on="1"/>
        <pt x="43" y="675" on="0"/>
      </contour>
    </TTGlyph>
    <TTGlyph name="J" xMin="-20" yMin="-62" xMax="264" yMax="675">
      <contour>
        <pt x="72" y="675" on="1"/>
        <pt x="264" y="675" on="1"/>
        <pt x="264" y="675" on="0"/>
        <pt x="264" y="668" on="1"/>
        <pt x="264" y="646" on="0"/>
        <pt x="251" y="639" on="1"/>
        <pt x="244" y="636" on="0"/>
        <pt x="191" y="632" on="1"/>
        <pt x="191" y="128" on="1"/>
        <pt x="191" y="44" on="0"/>
        <pt x="118" y="-62" on="0"/>
        <pt x="54" y="-62" on="1"/>
        <pt x="24" y="-62" on="0"/>
        <pt x="-20" y="-30" on="0"/>
        <pt x="-20" y="-10" on="1"/>
        <pt x="-20" y="29" on="0"/>
        <pt x="19" y="27" on="1"/>
        <pt x="22" y="-15" on="0"/>
        <pt x="68" y="-15" on="1"/>
        <pt x="102" y="-15" on="0"/>
        <pt x="133" y="44" on="0"/>
        <pt x="133" y="117" on="1"/>
        <pt x="133" y="630" on="1"/>
        <pt x="49" y="636" on="1"/>
        <pt x="45" y="675" on="0"/>
      </contour>
    </TTGlyph>
    <TTGlyph name="Jcircumflex" xMin="-20" yMin="-62" xMax="326" yMax="864">
      <contour>
        <pt x="196" y="864" on="1"/>
        <pt x="326" y="745" on="1"/>
        <pt x="315" y="726" on="0"/>
        <pt x="300" y="719" on="1"/>
        <pt x="167" y="808" on="1"/>
        <pt x="34" y="719" on="1"/>
        <pt x="19" y="726" on="0"/>
        <pt x="8" y="745" on="1"/>
        <pt x="138" y="864" on="1"/>
        <pt x="167" y="872" on="0"/>
      </contour>
      <contour>
        <pt x="72" y="675" on="1"/>
        <pt x="264" y="675" on="1"/>
        <pt x="264" y="675" on="0"/>
        <pt x="264" y="668" on="1"/>
        <pt x="264" y="646" on="0"/>
        <pt x="251" y="639" on="1"/>
        <pt x="244" y="636" on="0"/>
        <pt x="191" y="632" on="1"/>
        <pt x="191" y="128" on="1"/>
        <pt x="191" y="44" on="0"/>
        <pt x="118" y="-62" on="0"/>
        <pt x="54" y="-62" on="1"/>
        <pt x="24" y="-62" on="0"/>
        <pt x="-20" y="-30" on="0"/>
        <pt x="-20" y="-10" on="1"/>
        <pt x="-20" y="29" on="0"/>
        <pt x="19" y="27" on="1"/>
        <pt x="22" y="-15" on="0"/>
        <pt x="68" y="-15" on="1"/>
        <pt x="102" y="-15" on="0"/>
        <pt x="133" y="44" on="0"/>
        <pt x="133" y="117" on="1"/>
        <pt x="133" y="630" on="1"/>
        <pt x="49" y="636" on="1"/>
        <pt x="45" y="675" on="0"/>
      </contour>
    </TTGlyph>
    <TTGlyph name="K" xMin="42" yMin="0" xMax="561" yMax="675">
      <contour>
        <pt x="395" y="675" on="1"/>
        <pt x="561" y="675" on="1"/>
        <pt x="561" y="675" on="0"/>
        <pt x="561" y="668" on="1"/>
        <pt x="561" y="646" on="0"/>
        <pt x="548" y="639" on="1"/>
        <pt x="541" y="636" on="0"/>
        <pt x="494" y="632" on="1"/>
        <pt x="268" y="361" on="1"/>
        <pt x="499" y="41" on="1"/>
        <pt x="560" y="35" on="1"/>
        <pt x="564" y="0" on="0"/>
        <pt x="537" y="0" on="1"/>
        <pt x="454" y="0" on="1"/>
        <pt x="231" y="317" on="1"/>
        <pt x="178" y="253" on="1"/>
        <pt x="178" y="45" on="1"/>
        <pt x="252" y="39" on="1"/>
        <pt x="256" y="0" on="0"/>
        <pt x="229" y="0" on="1"/>
        <pt x="42" y="0" on="1"/>
        <pt x="42" y="8" on="1"/>
        <pt x="42" y="30" on="0"/>
        <pt x="55" y="36" on="1"/>
        <pt x="61" y="39" on="0"/>
        <pt x="70" y="40" on="1"/>
        <pt x="120" y="43" on="1"/>
        <pt x="120" y="630" on="1"/>
        <pt x="47" y="636" on="1"/>
        <pt x="43" y="675" on="0"/>
        <pt x="70" y="675" on="1"/>
        <pt x="257" y="675" on="1"/>
        <pt x="257" y="668" on="1"/>
        <pt x="257" y="646" on="0"/>
        <pt x="244" y="639" on="1"/>
        <pt x="238" y="636" on="0"/>
        <pt x="229" y="635" on="1"/>
        <pt x="179" y="632" on="1"/>
        <pt x="178" y="317" on="1"/>
        <pt x="435" y="630" on="1"/>
        <pt x="372" y="636" on="1"/>
        <pt x="368" y="675" on="0"/>
      </contour>
    </TTGlyph>
    <TTGlyph name="L" xMin="42" yMin="0" xMax="499" yMax="677">
      <contour>
        <pt x="499" y="129" on="1"/>
        <pt x="499" y="0" on="1"/>
        <pt x="42" y="0" on="1"/>
        <pt x="42" y="8" on="1"/>
        <pt x="42" y="30" on="0"/>
        <pt x="55" y="36" on="1"/>
        <pt x="61" y="39" on="0"/>
        <pt x="70" y="40" on="1"/>
        <pt x="120" y="43" on="1"/>
        <pt x="120" y="632" on="1"/>
        <pt x="46" y="638" on="1"/>
        <pt x="42" y="677" on="0"/>
        <pt x="69" y="677" on="1"/>
        <pt x="256" y="677" on="1"/>
        <pt x="256" y="670" on="1"/>
        <pt x="256" y="648" on="0"/>
        <pt x="243" y="641" on="1"/>
        <pt x="237" y="638" on="0"/>
        <pt x="228" y="637" on="1"/>
        <pt x="178" y="634" on="1"/>
        <pt x="178" y="45" on="1"/>
        <pt x="450" y="49" on="1"/>
        <pt x="460" y="152" on="1"/>
        <pt x="499" y="156" on="0"/>
      </contour>
    </TTGlyph>
    <TTGlyph name="Lacute" xMin="42" yMin="0" xMax="499" yMax="879">
      <contour>
        <pt x="499" y="129" on="1"/>
        <pt x="499" y="0" on="1"/>
        <pt x="42" y="0" on="1"/>
        <pt x="42" y="8" on="1"/>
        <pt x="42" y="30" on="0"/>
        <pt x="55" y="36" on="1"/>
        <pt x="61" y="39" on="0"/>
        <pt x="70" y="40" on="1"/>
        <pt x="120" y="43" on="1"/>
        <pt x="120" y="632" on="1"/>
        <pt x="46" y="638" on="1"/>
        <pt x="42" y="677" on="0"/>
        <pt x="69" y="677" on="1"/>
        <pt x="256" y="677" on="1"/>
        <pt x="256" y="670" on="1"/>
        <pt x="256" y="648" on="0"/>
        <pt x="243" y="641" on="1"/>
        <pt x="237" y="638" on="0"/>
        <pt x="228" y="637" on="1"/>
        <pt x="178" y="634" on="1"/>
        <pt x="178" y="45" on="1"/>
        <pt x="450" y="49" on="1"/>
        <pt x="460" y="152" on="1"/>
        <pt x="499" y="156" on="0"/>
      </contour>
      <contour>
        <pt x="337" y="835" on="1"/>
        <pt x="141" y="729" on="1"/>
        <pt x="126" y="736" on="0"/>
        <pt x="115" y="755" on="1"/>
        <pt x="279" y="879" on="1"/>
        <pt x="296" y="878" on="0"/>
        <pt x="328" y="852" on="0"/>
      </contour>
    </TTGlyph>
    <TTGlyph name="Lcaron" xMin="42" yMin="0" xMax="499" yMax="747">
      <contour>
        <pt x="499" y="129" on="1"/>
        <pt x="499" y="0" on="1"/>
        <pt x="42" y="0" on="1"/>
        <pt x="42" y="8" on="1"/>
        <pt x="42" y="30" on="0"/>
        <pt x="55" y="36" on="1"/>
        <pt x="61" y="39" on="0"/>
        <pt x="70" y="40" on="1"/>
        <pt x="120" y="43" on="1"/>
        <pt x="120" y="632" on="1"/>
        <pt x="46" y="638" on="1"/>
        <pt x="42" y="677" on="0"/>
        <pt x="69" y="677" on="1"/>
        <pt x="256" y="677" on="1"/>
        <pt x="256" y="670" on="1"/>
        <pt x="256" y="648" on="0"/>
        <pt x="243" y="641" on="1"/>
        <pt x="237" y="638" on="0"/>
        <pt x="228" y="637" on="1"/>
        <pt x="178" y="634" on="1"/>
        <pt x="178" y="45" on="1"/>
        <pt x="450" y="49" on="1"/>
        <pt x="460" y="152" on="1"/>
        <pt x="499" y="156" on="0"/>
      </contour>
      <contour>
        <pt x="348" y="550" on="1"/>
        <pt x="343" y="547" on="0"/>
        <pt x="317" y="561" on="0"/>
        <pt x="317" y="566" on="1"/>
        <pt x="331" y="601" on="0"/>
        <pt x="336" y="709" on="0"/>
        <pt x="326" y="740" on="1"/>
        <pt x="340" y="751" on="0"/>
        <pt x="396" y="743" on="0"/>
        <pt x="403" y="729" on="1"/>
        <pt x="408" y="619" on="0"/>
      </contour>
    </TTGlyph>
    <TTGlyph name="Ldot" xMin="42" yMin="0" xMax="499" yMax="677">
      <contour>
        <pt x="499" y="129" on="1"/>
        <pt x="499" y="0" on="1"/>
        <pt x="42" y="0" on="1"/>
        <pt x="42" y="8" on="1"/>
        <pt x="42" y="30" on="0"/>
        <pt x="55" y="36" on="1"/>
        <pt x="61" y="39" on="0"/>
        <pt x="70" y="40" on="1"/>
        <pt x="120" y="43" on="1"/>
        <pt x="120" y="632" on="1"/>
        <pt x="46" y="638" on="1"/>
        <pt x="42" y="677" on="0"/>
        <pt x="69" y="677" on="1"/>
        <pt x="256" y="677" on="1"/>
        <pt x="256" y="670" on="1"/>
        <pt x="256" y="648" on="0"/>
        <pt x="243" y="641" on="1"/>
        <pt x="237" y="638" on="0"/>
        <pt x="228" y="637" on="1"/>
        <pt x="178" y="634" on="1"/>
        <pt x="178" y="45" on="1"/>
        <pt x="450" y="49" on="1"/>
        <pt x="460" y="152" on="1"/>
        <pt x="499" y="156" on="0"/>
      </contour>
      <contour>
        <pt x="422" y="276" on="0"/>
        <pt x="382" y="276" on="0"/>
        <pt x="356" y="303" on="0"/>
        <pt x="356" y="343" on="0"/>
        <pt x="382" y="370" on="0"/>
        <pt x="422" y="370" on="0"/>
        <pt x="448" y="343" on="0"/>
        <pt x="448" y="303" on="0"/>
      </contour>
    </TTGlyph>
    <TTGlyph name="Lslash" xMin="35" yMin="0" xMax="508" yMax="677">
      <contour>
        <pt x="508" y="129" on="1"/>
        <pt x="508" y="0" on="1"/>
        <pt x="51" y="0" on="1"/>
        <pt x="51" y="8" on="1"/>
        <pt x="51" y="30" on="0"/>
        <pt x="64" y="36" on="1"/>
        <pt x="70" y="39" on="0"/>
        <pt x="79" y="40" on="1"/>
        <pt x="129" y="43" on="1"/>
        <pt x="129" y="238" on="1"/>
        <pt x="63" y="186" on="1"/>
        <pt x="35" y="221" on="1"/>
        <pt x="129" y="296" on="1"/>
        <pt x="129" y="632" on="1"/>
        <pt x="55" y="638" on="1"/>
        <pt x="51" y="677" on="0"/>
        <pt x="78" y="677" on="1"/>
        <pt x="265" y="677" on="1"/>
        <pt x="265" y="670" on="1"/>
        <pt x="265" y="648" on="0"/>
        <pt x="252" y="641" on="1"/>
        <pt x="246" y="638" on="0"/>
        <pt x="237" y="637" on="1"/>
        <pt x="187" y="634" on="1"/>
        <pt x="187" y="342" on="1"/>
        <pt x="310" y="440" on="1"/>
        <pt x="339" y="404" on="1"/>
        <pt x="187" y="284" on="1"/>
        <pt x="187" y="45" on="1"/>
        <pt x="459" y="49" on="1"/>
        <pt x="469" y="152" on="1"/>
        <pt x="508" y="156" on="0"/>
      </contour>
    </TTGlyph>
    <TTGlyph name="M" xMin="15" yMin="0" xMax="770" yMax="677">
      <contour>
        <pt x="747" y="0" on="1"/>
        <pt x="572" y="0" on="1"/>
        <pt x="572" y="8" on="1"/>
        <pt x="572" y="30" on="0"/>
        <pt x="585" y="36" on="1"/>
        <pt x="592" y="39" on="0"/>
        <pt x="646" y="43" on="1"/>
        <pt x="608" y="575" on="1"/>
        <pt x="418" y="127" on="1"/>
        <pt x="394" y="122" on="0"/>
        <pt x="379" y="125" on="1"/>
        <pt x="182" y="559" on="1"/>
        <pt x="142" y="45" on="1"/>
        <pt x="213" y="39" on="1"/>
        <pt x="217" y="0" on="0"/>
        <pt x="190" y="0" on="1"/>
        <pt x="15" y="0" on="1"/>
        <pt x="15" y="8" on="1"/>
        <pt x="15" y="30" on="0"/>
        <pt x="28" y="36" on="1"/>
        <pt x="35" y="39" on="0"/>
        <pt x="89" y="43" on="1"/>
        <pt x="138" y="632" on="1"/>
        <pt x="66" y="638" on="1"/>
        <pt x="62" y="677" on="0"/>
        <pt x="89" y="677" on="1"/>
        <pt x="195" y="677" on="1"/>
        <pt x="405" y="209" on="1"/>
        <pt x="598" y="677" on="1"/>
        <pt x="707" y="677" on="1"/>
        <pt x="734" y="677" on="0"/>
        <pt x="730" y="638" on="1"/>
        <pt x="660" y="632" on="1"/>
        <pt x="706" y="47" on="1"/>
        <pt x="770" y="39" on="1"/>
        <pt x="774" y="0" on="0"/>
      </contour>
    </TTGlyph>
    <TTGlyph name="N" xMin="42" yMin="0" xMax="657" yMax="675">
      <contour>
        <pt x="478" y="675" on="1"/>
        <pt x="657" y="675" on="1"/>
        <pt x="657" y="675" on="0"/>
        <pt x="657" y="668" on="1"/>
        <pt x="657" y="646" on="0"/>
        <pt x="644" y="639" on="1"/>
        <pt x="638" y="636" on="0"/>
        <pt x="629" y="635" on="1"/>
        <pt x="577" y="632" on="1"/>
        <pt x="577" y="11" on="1"/>
        <pt x="554" y="0" on="0"/>
        <pt x="532" y="0" on="1"/>
        <pt x="170" y="562" on="1"/>
        <pt x="170" y="45" on="1"/>
        <pt x="244" y="39" on="1"/>
        <pt x="248" y="0" on="0"/>
        <pt x="221" y="0" on="1"/>
        <pt x="42" y="0" on="1"/>
        <pt x="42" y="0" on="0"/>
        <pt x="42" y="8" on="1"/>
        <pt x="42" y="30" on="0"/>
        <pt x="55" y="36" on="1"/>
        <pt x="61" y="39" on="0"/>
        <pt x="70" y="40" on="1"/>
        <pt x="121" y="43" on="1"/>
        <pt x="121" y="630" on="1"/>
        <pt x="47" y="636" on="1"/>
        <pt x="43" y="675" on="0"/>
        <pt x="70" y="675" on="1"/>
        <pt x="169" y="675" on="1"/>
        <pt x="529" y="115" on="1"/>
        <pt x="529" y="630" on="1"/>
        <pt x="455" y="636" on="1"/>
        <pt x="451" y="675" on="0"/>
      </contour>
    </TTGlyph>
    <TTGlyph name="Nacute" xMin="42" yMin="0" xMax="657" yMax="879">
      <contour>
        <pt x="478" y="675" on="1"/>
        <pt x="657" y="675" on="1"/>
        <pt x="657" y="675" on="0"/>
        <pt x="657" y="668" on="1"/>
        <pt x="657" y="646" on="0"/>
        <pt x="644" y="639" on="1"/>
        <pt x="638" y="636" on="0"/>
        <pt x="629" y="635" on="1"/>
        <pt x="577" y="632" on="1"/>
        <pt x="577" y="11" on="1"/>
        <pt x="554" y="0" on="0"/>
        <pt x="532" y="0" on="1"/>
        <pt x="170" y="562" on="1"/>
        <pt x="170" y="45" on="1"/>
        <pt x="244" y="39" on="1"/>
        <pt x="248" y="0" on="0"/>
        <pt x="221" y="0" on="1"/>
        <pt x="42" y="0" on="1"/>
        <pt x="42" y="0" on="0"/>
        <pt x="42" y="8" on="1"/>
        <pt x="42" y="30" on="0"/>
        <pt x="55" y="36" on="1"/>
        <pt x="61" y="39" on="0"/>
        <pt x="70" y="40" on="1"/>
        <pt x="121" y="43" on="1"/>
        <pt x="121" y="630" on="1"/>
        <pt x="47" y="636" on="1"/>
        <pt x="43" y="675" on="0"/>
        <pt x="70" y="675" on="1"/>
        <pt x="169" y="675" on="1"/>
        <pt x="529" y="115" on="1"/>
        <pt x="529" y="630" on="1"/>
        <pt x="455" y="636" on="1"/>
        <pt x="451" y="675" on="0"/>
      </contour>
      <contour>
        <pt x="479" y="835" on="1"/>
        <pt x="283" y="729" on="1"/>
        <pt x="268" y="736" on="0"/>
        <pt x="257" y="755" on="1"/>
        <pt x="421" y="879" on="1"/>
        <pt x="438" y="878" on="0"/>
        <pt x="470" y="852" on="0"/>
      </contour>
    </TTGlyph>
    <TTGlyph name="Ncaron" xMin="42" yMin="0" xMax="657" yMax="879">
      <contour>
        <pt x="478" y="675" on="1"/>
        <pt x="657" y="675" on="1"/>
        <pt x="657" y="675" on="0"/>
        <pt x="657" y="668" on="1"/>
        <pt x="657" y="646" on="0"/>
        <pt x="644" y="639" on="1"/>
        <pt x="638" y="636" on="0"/>
        <pt x="629" y="635" on="1"/>
        <pt x="577" y="632" on="1"/>
        <pt x="577" y="11" on="1"/>
        <pt x="554" y="0" on="0"/>
        <pt x="532" y="0" on="1"/>
        <pt x="170" y="562" on="1"/>
        <pt x="170" y="45" on="1"/>
        <pt x="244" y="39" on="1"/>
        <pt x="248" y="0" on="0"/>
        <pt x="221" y="0" on="1"/>
        <pt x="42" y="0" on="1"/>
        <pt x="42" y="0" on="0"/>
        <pt x="42" y="8" on="1"/>
        <pt x="42" y="30" on="0"/>
        <pt x="55" y="36" on="1"/>
        <pt x="61" y="39" on="0"/>
        <pt x="70" y="40" on="1"/>
        <pt x="121" y="43" on="1"/>
        <pt x="121" y="630" on="1"/>
        <pt x="47" y="636" on="1"/>
        <pt x="43" y="675" on="0"/>
        <pt x="70" y="675" on="1"/>
        <pt x="169" y="675" on="1"/>
        <pt x="529" y="115" on="1"/>
        <pt x="529" y="630" on="1"/>
        <pt x="455" y="636" on="1"/>
        <pt x="451" y="675" on="0"/>
      </contour>
      <contour>
        <pt x="495" y="853" on="1"/>
        <pt x="365" y="734" on="1"/>
        <pt x="336" y="726" on="0"/>
        <pt x="307" y="734" on="1"/>
        <pt x="177" y="853" on="1"/>
        <pt x="188" y="872" on="0"/>
        <pt x="203" y="879" on="1"/>
        <pt x="336" y="790" on="1"/>
        <pt x="469" y="879" on="1"/>
        <pt x="484" y="872" on="0"/>
      </contour>
    </TTGlyph>
    <TTGlyph name="Ntilde" xMin="42" yMin="0" xMax="657" yMax="860">
      <contour>
        <pt x="478" y="675" on="1"/>
        <pt x="657" y="675" on="1"/>
        <pt x="657" y="675" on="0"/>
        <pt x="657" y="668" on="1"/>
        <pt x="657" y="646" on="0"/>
        <pt x="644" y="639" on="1"/>
        <pt x="638" y="636" on="0"/>
        <pt x="629" y="635" on="1"/>
        <pt x="577" y="632" on="1"/>
        <pt x="577" y="11" on="1"/>
        <pt x="554" y="0" on="0"/>
        <pt x="532" y="0" on="1"/>
        <pt x="170" y="562" on="1"/>
        <pt x="170" y="45" on="1"/>
        <pt x="244" y="39" on="1"/>
        <pt x="248" y="0" on="0"/>
        <pt x="221" y="0" on="1"/>
        <pt x="42" y="0" on="1"/>
        <pt x="42" y="0" on="0"/>
        <pt x="42" y="8" on="1"/>
        <pt x="42" y="30" on="0"/>
        <pt x="55" y="36" on="1"/>
        <pt x="61" y="39" on="0"/>
        <pt x="70" y="40" on="1"/>
        <pt x="121" y="43" on="1"/>
        <pt x="121" y="630" on="1"/>
        <pt x="47" y="636" on="1"/>
        <pt x="43" y="675" on="0"/>
        <pt x="70" y="675" on="1"/>
        <pt x="169" y="675" on="1"/>
        <pt x="529" y="115" on="1"/>
        <pt x="529" y="630" on="1"/>
        <pt x="455" y="636" on="1"/>
        <pt x="451" y="675" on="0"/>
      </contour>
      <contour>
        <pt x="492" y="810" on="0"/>
        <pt x="439" y="756" on="0"/>
        <pt x="363" y="756" on="0"/>
        <pt x="280" y="806" on="0"/>
        <pt x="258" y="806" on="1"/>
        <pt x="218" y="806" on="0"/>
        <pt x="201" y="757" on="1"/>
        <pt x="171" y="768" on="1"/>
        <pt x="182" y="813" on="0"/>
        <pt x="239" y="860" on="0"/>
        <pt x="303" y="860" on="0"/>
        <pt x="382" y="808" on="0"/>
        <pt x="432" y="808" on="0"/>
        <pt x="464" y="837" on="0"/>
        <pt x="470" y="860" on="1"/>
        <pt x="500" y="851" on="1"/>
      </contour>
    </TTGlyph>
    <TTGlyph name="O" xMin="40" yMin="-15" xMax="589" yMax="690">
      <contour>
        <pt x="148" y="120" on="1"/>
        <pt x="172" y="78" on="0"/>
        <pt x="257" y="31" on="0"/>
        <pt x="314" y="31" on="1"/>
        <pt x="423" y="32" on="0"/>
        <pt x="531" y="198" on="0"/>
        <pt x="531" y="335" on="1"/>
        <pt x="531" y="470" on="0"/>
        <pt x="482" y="554" on="1"/>
        <pt x="430" y="644" on="0"/>
        <pt x="207" y="643" on="0"/>
        <pt x="99" y="475" on="0"/>
        <pt x="99" y="203" on="0"/>
      </contour>
      <contour>
        <pt x="326" y="690" on="1"/>
        <pt x="398" y="690" on="0"/>
        <pt x="459" y="654" on="1"/>
        <pt x="496" y="633" on="0"/>
        <pt x="550" y="563" on="0"/>
        <pt x="588" y="439" on="0"/>
        <pt x="589" y="358" on="1"/>
        <pt x="591" y="190" on="0"/>
        <pt x="442" y="-15" on="0"/>
        <pt x="298" y="-15" on="1"/>
        <pt x="180" y="-15" on="0"/>
        <pt x="44" y="159" on="0"/>
        <pt x="36" y="480" on="0"/>
        <pt x="188" y="690" on="0"/>
      </contour>
    </TTGlyph>
    <TTGlyph name="OE" xMin="39" yMin="-15" xMax="828" yMax="692">
      <contour>
        <pt x="330" y="31" on="1"/>
        <pt x="393" y="31" on="0"/>
        <pt x="439" y="57" on="1"/>
        <pt x="439" y="621" on="1"/>
        <pt x="395" y="646" on="0"/>
        <pt x="331" y="646" on="1"/>
        <pt x="216" y="645" on="0"/>
        <pt x="102" y="476" on="0"/>
        <pt x="102" y="202" on="0"/>
        <pt x="210" y="31" on="0"/>
      </contour>
      <contour>
        <pt x="828" y="0" on="1"/>
        <pt x="416" y="0" on="1"/>
        <pt x="370" y="-15" on="0"/>
        <pt x="313" y="-15" on="1"/>
        <pt x="188" y="-15" on="0"/>
        <pt x="44" y="159" on="0"/>
        <pt x="35" y="481" on="0"/>
        <pt x="197" y="692" on="0"/>
        <pt x="343" y="692" on="1"/>
        <pt x="394" y="692" on="0"/>
        <pt x="440" y="677" on="1"/>
        <pt x="808" y="677" on="1"/>
        <pt x="808" y="538" on="1"/>
        <pt x="808" y="511" on="0"/>
        <pt x="769" y="515" on="1"/>
        <pt x="759" y="627" on="1"/>
        <pt x="497" y="632" on="1"/>
        <pt x="497" y="360" on="1"/>
        <pt x="693" y="371" on="1"/>
        <pt x="699" y="341" on="0"/>
        <pt x="693" y="306" on="1"/>
        <pt x="497" y="317" on="1"/>
        <pt x="497" y="45" on="1"/>
        <pt x="779" y="51" on="1"/>
        <pt x="789" y="152" on="1"/>
        <pt x="796" y="156" on="0"/>
        <pt x="828" y="148" on="0"/>
        <pt x="828" y="129" on="1"/>
      </contour>
    </TTGlyph>
    <TTGlyph name="Oacute" xMin="40" yMin="-15" xMax="589" yMax="879">
      <contour>
        <pt x="473" y="835" on="1"/>
        <pt x="277" y="729" on="1"/>
        <pt x="262" y="736" on="0"/>
        <pt x="251" y="755" on="1"/>
        <pt x="415" y="879" on="1"/>
        <pt x="432" y="878" on="0"/>
        <pt x="464" y="852" on="0"/>
      </contour>
      <contour>
        <pt x="148" y="120" on="1"/>
        <pt x="172" y="78" on="0"/>
        <pt x="257" y="31" on="0"/>
        <pt x="314" y="31" on="1"/>
        <pt x="423" y="32" on="0"/>
        <pt x="531" y="198" on="0"/>
        <pt x="531" y="335" on="1"/>
        <pt x="531" y="470" on="0"/>
        <pt x="482" y="554" on="1"/>
        <pt x="430" y="644" on="0"/>
        <pt x="207" y="643" on="0"/>
        <pt x="99" y="475" on="0"/>
        <pt x="99" y="203" on="0"/>
      </contour>
      <contour>
        <pt x="326" y="690" on="1"/>
        <pt x="398" y="690" on="0"/>
        <pt x="459" y="654" on="1"/>
        <pt x="496" y="633" on="0"/>
        <pt x="550" y="563" on="0"/>
        <pt x="588" y="439" on="0"/>
        <pt x="589" y="358" on="1"/>
        <pt x="591" y="190" on="0"/>
        <pt x="442" y="-15" on="0"/>
        <pt x="298" y="-15" on="1"/>
        <pt x="180" y="-15" on="0"/>
        <pt x="44" y="159" on="0"/>
        <pt x="36" y="480" on="0"/>
        <pt x="188" y="690" on="0"/>
      </contour>
    </TTGlyph>
    <TTGlyph name="Obreve" xMin="40" yMin="-15" xMax="589" yMax="872">
      <contour>
        <pt x="148" y="120" on="1"/>
        <pt x="172" y="78" on="0"/>
        <pt x="257" y="31" on="0"/>
        <pt x="314" y="31" on="1"/>
        <pt x="423" y="32" on="0"/>
        <pt x="531" y="198" on="0"/>
        <pt x="531" y="335" on="1"/>
        <pt x="531" y="470" on="0"/>
        <pt x="482" y="554" on="1"/>
        <pt x="430" y="644" on="0"/>
        <pt x="207" y="643" on="0"/>
        <pt x="99" y="475" on="0"/>
        <pt x="99" y="203" on="0"/>
      </contour>
      <contour>
        <pt x="326" y="690" on="1"/>
        <pt x="398" y="690" on="0"/>
        <pt x="459" y="654" on="1"/>
        <pt x="496" y="633" on="0"/>
        <pt x="550" y="563" on="0"/>
        <pt x="588" y="439" on="0"/>
        <pt x="589" y="358" on="1"/>
        <pt x="591" y="190" on="0"/>
        <pt x="442" y="-15" on="0"/>
        <pt x="298" y="-15" on="1"/>
        <pt x="180" y="-15" on="0"/>
        <pt x="44" y="159" on="0"/>
        <pt x="36" y="480" on="0"/>
        <pt x="188" y="690" on="0"/>
      </contour>
      <contour>
        <pt x="331" y="793" on="1"/>
        <pt x="420" y="793" on="0"/>
        <pt x="449" y="870" on="1"/>
        <pt x="482" y="857" on="1"/>
        <pt x="475" y="810" on="0"/>
        <pt x="396" y="734" on="0"/>
        <pt x="263" y="734" on="0"/>
        <pt x="185" y="810" on="0"/>
        <pt x="178" y="857" on="1"/>
        <pt x="211" y="872" on="1"/>
        <pt x="222" y="843" on="0"/>
        <pt x="282" y="793" on="0"/>
      </contour>
    </TTGlyph>
    <TTGlyph name="Ocircumflex" xMin="40" yMin="-15" xMax="589" yMax="864">
      <contour>
        <pt x="298" y="-15" on="1"/>
        <pt x="180" y="-15" on="0"/>
        <pt x="44" y="159" on="0"/>
        <pt x="36" y="480" on="0"/>
        <pt x="188" y="690" on="0"/>
        <pt x="326" y="690" on="1"/>
        <pt x="398" y="690" on="0"/>
        <pt x="459" y="654" on="1"/>
        <pt x="496" y="633" on="0"/>
        <pt x="550" y="563" on="0"/>
        <pt x="588" y="439" on="0"/>
        <pt x="589" y="358" on="1"/>
        <pt x="591" y="190" on="0"/>
        <pt x="442" y="-15" on="0"/>
      </contour>
      <contour>
        <pt x="430" y="644" on="0"/>
        <pt x="207" y="643" on="0"/>
        <pt x="99" y="475" on="0"/>
        <pt x="99" y="333" on="1"/>
        <pt x="99" y="203" on="0"/>
        <pt x="148" y="120" on="1"/>
        <pt x="172" y="78" on="0"/>
        <pt x="257" y="31" on="0"/>
        <pt x="314" y="31" on="1"/>
        <pt x="423" y="32" on="0"/>
        <pt x="531" y="198" on="0"/>
        <pt x="531" y="470" on="0"/>
      </contour>
      <contour>
        <pt x="330" y="808" on="1"/>
        <pt x="197" y="719" on="1"/>
        <pt x="182" y="726" on="0"/>
        <pt x="171" y="745" on="1"/>
        <pt x="301" y="864" on="1"/>
        <pt x="330" y="872" on="0"/>
        <pt x="359" y="864" on="1"/>
        <pt x="489" y="745" on="1"/>
        <pt x="478" y="726" on="0"/>
        <pt x="463" y="719" on="1"/>
      </contour>
    </TTGlyph>
    <TTGlyph name="Odieresis" xMin="40" yMin="-15" xMax="589" yMax="844">
      <contour>
        <pt x="456" y="777" on="0"/>
        <pt x="429" y="750" on="0"/>
        <pt x="389" y="750" on="0"/>
        <pt x="362" y="778" on="0"/>
        <pt x="362" y="816" on="0"/>
        <pt x="389" y="844" on="0"/>
        <pt x="429" y="844" on="0"/>
        <pt x="456" y="816" on="0"/>
      </contour>
      <contour>
        <pt x="298" y="777" on="0"/>
        <pt x="271" y="750" on="0"/>
        <pt x="232" y="750" on="0"/>
        <pt x="204" y="777" on="0"/>
        <pt x="204" y="816" on="0"/>
        <pt x="232" y="844" on="0"/>
        <pt x="271" y="844" on="0"/>
        <pt x="298" y="816" on="0"/>
      </contour>
      <contour>
        <pt x="148" y="120" on="1"/>
        <pt x="172" y="78" on="0"/>
        <pt x="257" y="31" on="0"/>
        <pt x="314" y="31" on="1"/>
        <pt x="423" y="32" on="0"/>
        <pt x="531" y="198" on="0"/>
        <pt x="531" y="335" on="1"/>
        <pt x="531" y="470" on="0"/>
        <pt x="482" y="554" on="1"/>
        <pt x="430" y="644" on="0"/>
        <pt x="207" y="643" on="0"/>
        <pt x="99" y="475" on="0"/>
        <pt x="99" y="203" on="0"/>
      </contour>
      <contour>
        <pt x="326" y="690" on="1"/>
        <pt x="398" y="690" on="0"/>
        <pt x="459" y="654" on="1"/>
        <pt x="496" y="633" on="0"/>
        <pt x="550" y="563" on="0"/>
        <pt x="588" y="439" on="0"/>
        <pt x="589" y="358" on="1"/>
        <pt x="591" y="190" on="0"/>
        <pt x="442" y="-15" on="0"/>
        <pt x="298" y="-15" on="1"/>
        <pt x="180" y="-15" on="0"/>
        <pt x="44" y="159" on="0"/>
        <pt x="36" y="480" on="0"/>
        <pt x="188" y="690" on="0"/>
      </contour>
    </TTGlyph>
    <TTGlyph name="Ograve" xMin="40" yMin="-15" xMax="589" yMax="869">
      <contour>
        <pt x="400" y="719" on="1"/>
        <pt x="204" y="825" on="1"/>
        <pt x="213" y="842" on="0"/>
        <pt x="245" y="868" on="0"/>
        <pt x="262" y="869" on="1"/>
        <pt x="426" y="745" on="1"/>
        <pt x="415" y="726" on="0"/>
      </contour>
      <contour>
        <pt x="326" y="690" on="1"/>
        <pt x="398" y="690" on="0"/>
        <pt x="459" y="654" on="1"/>
        <pt x="496" y="633" on="0"/>
        <pt x="550" y="563" on="0"/>
        <pt x="588" y="439" on="0"/>
        <pt x="589" y="358" on="1"/>
        <pt x="591" y="190" on="0"/>
        <pt x="442" y="-15" on="0"/>
        <pt x="298" y="-15" on="1"/>
        <pt x="180" y="-15" on="0"/>
        <pt x="44" y="159" on="0"/>
        <pt x="36" y="480" on="0"/>
        <pt x="188" y="690" on="0"/>
      </contour>
      <contour>
        <pt x="148" y="120" on="1"/>
        <pt x="172" y="78" on="0"/>
        <pt x="257" y="31" on="0"/>
        <pt x="314" y="31" on="1"/>
        <pt x="423" y="32" on="0"/>
        <pt x="531" y="198" on="0"/>
        <pt x="531" y="335" on="1"/>
        <pt x="531" y="470" on="0"/>
        <pt x="482" y="554" on="1"/>
        <pt x="430" y="644" on="0"/>
        <pt x="207" y="643" on="0"/>
        <pt x="99" y="475" on="0"/>
        <pt x="99" y="203" on="0"/>
      </contour>
    </TTGlyph>
    <TTGlyph name="Ohungarumlaut" xMin="40" yMin="-15" xMax="589" yMax="838">
      <contour>
        <pt x="148" y="120" on="1"/>
        <pt x="172" y="78" on="0"/>
        <pt x="257" y="31" on="0"/>
        <pt x="314" y="31" on="1"/>
        <pt x="423" y="32" on="0"/>
        <pt x="531" y="198" on="0"/>
        <pt x="531" y="335" on="1"/>
        <pt x="531" y="470" on="0"/>
        <pt x="482" y="554" on="1"/>
        <pt x="430" y="644" on="0"/>
        <pt x="207" y="643" on="0"/>
        <pt x="99" y="475" on="0"/>
        <pt x="99" y="203" on="0"/>
      </contour>
      <contour>
        <pt x="326" y="690" on="1"/>
        <pt x="398" y="690" on="0"/>
        <pt x="459" y="654" on="1"/>
        <pt x="496" y="633" on="0"/>
        <pt x="550" y="563" on="0"/>
        <pt x="588" y="439" on="0"/>
        <pt x="589" y="358" on="1"/>
        <pt x="591" y="190" on="0"/>
        <pt x="442" y="-15" on="0"/>
        <pt x="298" y="-15" on="1"/>
        <pt x="180" y="-15" on="0"/>
        <pt x="44" y="159" on="0"/>
        <pt x="36" y="480" on="0"/>
        <pt x="188" y="690" on="0"/>
      </contour>
      <contour>
        <pt x="410" y="794" on="1"/>
        <pt x="214" y="688" on="1"/>
        <pt x="199" y="695" on="0"/>
        <pt x="188" y="714" on="1"/>
        <pt x="352" y="838" on="1"/>
        <pt x="369" y="837" on="0"/>
        <pt x="401" y="811" on="0"/>
      </contour>
      <contour>
        <pt x="589" y="794" on="1"/>
        <pt x="393" y="688" on="1"/>
        <pt x="378" y="695" on="0"/>
        <pt x="367" y="714" on="1"/>
        <pt x="531" y="838" on="1"/>
        <pt x="548" y="837" on="0"/>
        <pt x="580" y="811" on="0"/>
      </contour>
    </TTGlyph>
    <TTGlyph name="Omacron" xMin="40" yMin="-15" xMax="589" yMax="821">
      <contour>
        <pt x="202" y="821" on="1"/>
        <pt x="457" y="821" on="1"/>
        <pt x="457" y="768" on="1"/>
        <pt x="202" y="768" on="1"/>
      </contour>
      <contour>
        <pt x="148" y="120" on="1"/>
        <pt x="172" y="78" on="0"/>
        <pt x="257" y="31" on="0"/>
        <pt x="314" y="31" on="1"/>
        <pt x="423" y="32" on="0"/>
        <pt x="531" y="198" on="0"/>
        <pt x="531" y="335" on="1"/>
        <pt x="531" y="470" on="0"/>
        <pt x="482" y="554" on="1"/>
        <pt x="430" y="644" on="0"/>
        <pt x="207" y="643" on="0"/>
        <pt x="99" y="475" on="0"/>
        <pt x="99" y="203" on="0"/>
      </contour>
      <contour>
        <pt x="326" y="690" on="1"/>
        <pt x="398" y="690" on="0"/>
        <pt x="459" y="654" on="1"/>
        <pt x="496" y="633" on="0"/>
        <pt x="550" y="563" on="0"/>
        <pt x="588" y="439" on="0"/>
        <pt x="589" y="358" on="1"/>
        <pt x="591" y="190" on="0"/>
        <pt x="442" y="-15" on="0"/>
        <pt x="298" y="-15" on="1"/>
        <pt x="180" y="-15" on="0"/>
        <pt x="44" y="159" on="0"/>
        <pt x="36" y="480" on="0"/>
        <pt x="188" y="690" on="0"/>
      </contour>
    </TTGlyph>
    <TTGlyph name="Oslash" xMin="40" yMin="-15" xMax="589" yMax="690">
      <contour>
        <pt x="298" y="-15" on="1"/>
        <pt x="242" y="-15" on="0"/>
        <pt x="193" y="7" on="1"/>
        <pt x="180" y="-15" on="1"/>
        <pt x="132" y="11" on="1"/>
        <pt x="147" y="36" on="1"/>
        <pt x="45" y="121" on="0"/>
        <pt x="36" y="480" on="0"/>
        <pt x="188" y="690" on="0"/>
        <pt x="326" y="690" on="1"/>
        <pt x="427" y="690" on="0"/>
        <pt x="493" y="630" on="1"/>
        <pt x="526" y="687" on="1"/>
        <pt x="575" y="663" on="1"/>
        <pt x="531" y="587" on="1"/>
        <pt x="588" y="501" on="0"/>
        <pt x="589" y="358" on="1"/>
        <pt x="591" y="190" on="0"/>
        <pt x="442" y="-15" on="0"/>
      </contour>
      <contour>
        <pt x="99" y="333" on="1"/>
        <pt x="99" y="162" on="0"/>
        <pt x="175" y="85" on="1"/>
        <pt x="463" y="580" on="1"/>
        <pt x="409" y="644" on="0"/>
        <pt x="315" y="644" on="1"/>
        <pt x="207" y="643" on="0"/>
        <pt x="99" y="475" on="0"/>
      </contour>
      <contour>
        <pt x="423" y="32" on="0"/>
        <pt x="531" y="198" on="0"/>
        <pt x="531" y="451" on="0"/>
        <pt x="496" y="527" on="1"/>
        <pt x="219" y="52" on="1"/>
        <pt x="260" y="31" on="0"/>
        <pt x="314" y="31" on="1"/>
      </contour>
    </TTGlyph>
    <TTGlyph name="Otilde" xMin="40" yMin="-15" xMax="589" yMax="860">
      <contour>
        <pt x="176" y="813" on="0"/>
        <pt x="233" y="860" on="0"/>
        <pt x="297" y="860" on="0"/>
        <pt x="376" y="808" on="0"/>
        <pt x="426" y="808" on="0"/>
        <pt x="458" y="837" on="0"/>
        <pt x="464" y="860" on="1"/>
        <pt x="494" y="851" on="1"/>
        <pt x="486" y="810" on="0"/>
        <pt x="433" y="756" on="0"/>
        <pt x="357" y="756" on="0"/>
        <pt x="274" y="806" on="0"/>
        <pt x="252" y="806" on="1"/>
        <pt x="212" y="806" on="0"/>
        <pt x="195" y="757" on="1"/>
        <pt x="165" y="768" on="1"/>
      </contour>
      <contour>
        <pt x="148" y="120" on="1"/>
        <pt x="172" y="78" on="0"/>
        <pt x="257" y="31" on="0"/>
        <pt x="314" y="31" on="1"/>
        <pt x="423" y="32" on="0"/>
        <pt x="531" y="198" on="0"/>
        <pt x="531" y="335" on="1"/>
        <pt x="531" y="470" on="0"/>
        <pt x="482" y="554" on="1"/>
        <pt x="430" y="644" on="0"/>
        <pt x="207" y="643" on="0"/>
        <pt x="99" y="475" on="0"/>
        <pt x="99" y="203" on="0"/>
      </contour>
      <contour>
        <pt x="326" y="690" on="1"/>
        <pt x="398" y="690" on="0"/>
        <pt x="459" y="654" on="1"/>
        <pt x="496" y="633" on="0"/>
        <pt x="550" y="563" on="0"/>
        <pt x="588" y="439" on="0"/>
        <pt x="589" y="358" on="1"/>
        <pt x="591" y="190" on="0"/>
        <pt x="442" y="-15" on="0"/>
        <pt x="298" y="-15" on="1"/>
        <pt x="180" y="-15" on="0"/>
        <pt x="44" y="159" on="0"/>
        <pt x="36" y="480" on="0"/>
        <pt x="188" y="690" on="0"/>
      </contour>
    </TTGlyph>
    <TTGlyph name="P" xMin="42" yMin="0" xMax="520" yMax="677">
      <contour>
        <pt x="70" y="677" on="1"/>
        <pt x="274" y="677" on="1"/>
        <pt x="397" y="677" on="0"/>
        <pt x="520" y="572" on="0"/>
        <pt x="520" y="490" on="1"/>
        <pt x="520" y="277" on="0"/>
        <pt x="250" y="277" on="1"/>
        <pt x="214" y="277" on="0"/>
        <pt x="178" y="280" on="1"/>
        <pt x="178" y="45" on="1"/>
        <pt x="252" y="39" on="1"/>
        <pt x="256" y="0" on="0"/>
        <pt x="229" y="0" on="1"/>
        <pt x="42" y="0" on="1"/>
        <pt x="42" y="0" on="0"/>
        <pt x="42" y="8" on="1"/>
        <pt x="42" y="30" on="0"/>
        <pt x="55" y="36" on="1"/>
        <pt x="61" y="39" on="0"/>
        <pt x="70" y="40" on="1"/>
        <pt x="120" y="43" on="1"/>
        <pt x="120" y="632" on="1"/>
        <pt x="47" y="638" on="1"/>
        <pt x="43" y="677" on="0"/>
      </contour>
      <contour>
        <pt x="242" y="319" on="1"/>
        <pt x="353" y="319" on="0"/>
        <pt x="458" y="396" on="0"/>
        <pt x="458" y="565" on="0"/>
        <pt x="347" y="644" on="0"/>
        <pt x="229" y="637" on="1"/>
        <pt x="178" y="634" on="1"/>
        <pt x="178" y="322" on="1"/>
        <pt x="212" y="319" on="0"/>
      </contour>
    </TTGlyph>
    <TTGlyph name="Q" xMin="40" yMin="-141" xMax="606" yMax="690">
      <contour>
        <pt x="598" y="-66" on="1"/>
        <pt x="606" y="-76" on="0"/>
        <pt x="606" y="-114" on="0"/>
        <pt x="573" y="-141" on="0"/>
        <pt x="521" y="-141" on="0"/>
        <pt x="466" y="-126" on="0"/>
        <pt x="404" y="-93" on="0"/>
        <pt x="363" y="-69" on="0"/>
        <pt x="293" y="-22" on="0"/>
        <pt x="281" y="-14" on="1"/>
        <pt x="171" y="-8" on="0"/>
        <pt x="44" y="164" on="0"/>
        <pt x="36" y="480" on="0"/>
        <pt x="188" y="690" on="0"/>
        <pt x="326" y="690" on="1"/>
        <pt x="398" y="690" on="0"/>
        <pt x="459" y="654" on="1"/>
        <pt x="496" y="633" on="0"/>
        <pt x="550" y="563" on="0"/>
        <pt x="588" y="439" on="0"/>
        <pt x="589" y="358" on="1"/>
        <pt x="591" y="209" on="0"/>
        <pt x="472" y="11" on="0"/>
        <pt x="357" y="-10" on="1"/>
        <pt x="496" y="-82" on="0"/>
        <pt x="548" y="-82" on="1"/>
        <pt x="573" y="-82" on="0"/>
      </contour>
      <contour>
        <pt x="148" y="120" on="1"/>
        <pt x="172" y="78" on="0"/>
        <pt x="257" y="31" on="0"/>
        <pt x="314" y="31" on="1"/>
        <pt x="423" y="32" on="0"/>
        <pt x="531" y="198" on="0"/>
        <pt x="531" y="335" on="1"/>
        <pt x="531" y="470" on="0"/>
        <pt x="482" y="554" on="1"/>
        <pt x="430" y="644" on="0"/>
        <pt x="207" y="643" on="0"/>
        <pt x="99" y="475" on="0"/>
        <pt x="99" y="203" on="0"/>
      </contour>
    </TTGlyph>
    <TTGlyph name="R" xMin="42" yMin="-15" xMax="549" yMax="677">
      <contour>
        <pt x="42" y="0" on="1"/>
        <pt x="42" y="10" on="1"/>
        <pt x="42" y="27" on="0"/>
        <pt x="48" y="32" on="1"/>
        <pt x="61" y="40" on="0"/>
        <pt x="70" y="40" on="1"/>
        <pt x="120" y="43" on="1"/>
        <pt x="120" y="632" on="1"/>
        <pt x="47" y="638" on="1"/>
        <pt x="47" y="639" on="0"/>
        <pt x="46" y="655" on="0"/>
        <pt x="47" y="661" on="0"/>
        <pt x="49" y="666" on="1"/>
        <pt x="53" y="677" on="0"/>
        <pt x="70" y="677" on="1"/>
        <pt x="286" y="677" on="1"/>
        <pt x="497" y="677" on="0"/>
        <pt x="497" y="514" on="1"/>
        <pt x="497" y="431" on="0"/>
        <pt x="389" y="333" on="0"/>
        <pt x="306" y="321" on="1"/>
        <pt x="369" y="188" on="0"/>
        <pt x="504" y="37" on="0"/>
        <pt x="549" y="37" on="1"/>
        <pt x="549" y="13" on="0"/>
        <pt x="527" y="-15" on="0"/>
        <pt x="509" y="-15" on="1"/>
        <pt x="451" y="-15" on="0"/>
        <pt x="300" y="197" on="0"/>
        <pt x="257" y="317" on="1"/>
        <pt x="254" y="317" on="1"/>
        <pt x="216" y="317" on="0"/>
        <pt x="179" y="320" on="1"/>
        <pt x="179" y="45" on="1"/>
        <pt x="253" y="39" on="1"/>
        <pt x="253" y="6" on="0"/>
        <pt x="238" y="1" on="1"/>
        <pt x="235" y="0" on="0"/>
        <pt x="230" y="0" on="1"/>
      </contour>
      <contour>
        <pt x="179" y="634" on="1"/>
        <pt x="179" y="362" on="1"/>
        <pt x="215" y="359" on="0"/>
        <pt x="247" y="359" on="1"/>
        <pt x="339" y="359" on="0"/>
        <pt x="436" y="434" on="0"/>
        <pt x="436" y="500" on="1"/>
        <pt x="436" y="577" on="0"/>
        <pt x="396" y="608" on="1"/>
        <pt x="356" y="638" on="0"/>
        <pt x="298" y="638" on="1"/>
        <pt x="261" y="638" on="0"/>
        <pt x="180" y="634" on="1"/>
      </contour>
    </TTGlyph>
    <TTGlyph name="Racute" xMin="42" yMin="-15" xMax="549" yMax="879">
      <contour>
        <pt x="42" y="0" on="1"/>
        <pt x="42" y="10" on="1"/>
        <pt x="42" y="27" on="0"/>
        <pt x="48" y="32" on="1"/>
        <pt x="61" y="40" on="0"/>
        <pt x="70" y="40" on="1"/>
        <pt x="120" y="43" on="1"/>
        <pt x="120" y="632" on="1"/>
        <pt x="47" y="638" on="1"/>
        <pt x="47" y="639" on="0"/>
        <pt x="46" y="655" on="0"/>
        <pt x="47" y="661" on="0"/>
        <pt x="49" y="666" on="1"/>
        <pt x="53" y="677" on="0"/>
        <pt x="70" y="677" on="1"/>
        <pt x="286" y="677" on="1"/>
        <pt x="497" y="677" on="0"/>
        <pt x="497" y="514" on="1"/>
        <pt x="497" y="431" on="0"/>
        <pt x="389" y="333" on="0"/>
        <pt x="306" y="321" on="1"/>
        <pt x="369" y="188" on="0"/>
        <pt x="504" y="37" on="0"/>
        <pt x="549" y="37" on="1"/>
        <pt x="549" y="13" on="0"/>
        <pt x="527" y="-15" on="0"/>
        <pt x="509" y="-15" on="1"/>
        <pt x="451" y="-15" on="0"/>
        <pt x="300" y="197" on="0"/>
        <pt x="257" y="317" on="1"/>
        <pt x="254" y="317" on="1"/>
        <pt x="216" y="317" on="0"/>
        <pt x="179" y="320" on="1"/>
        <pt x="179" y="45" on="1"/>
        <pt x="253" y="39" on="1"/>
        <pt x="253" y="6" on="0"/>
        <pt x="238" y="1" on="1"/>
        <pt x="235" y="0" on="0"/>
        <pt x="230" y="0" on="1"/>
      </contour>
      <contour>
        <pt x="179" y="634" on="1"/>
        <pt x="179" y="362" on="1"/>
        <pt x="215" y="359" on="0"/>
        <pt x="247" y="359" on="1"/>
        <pt x="339" y="359" on="0"/>
        <pt x="436" y="434" on="0"/>
        <pt x="436" y="500" on="1"/>
        <pt x="436" y="577" on="0"/>
        <pt x="396" y="608" on="1"/>
        <pt x="356" y="638" on="0"/>
        <pt x="298" y="638" on="1"/>
        <pt x="261" y="638" on="0"/>
        <pt x="180" y="634" on="1"/>
      </contour>
      <contour>
        <pt x="405" y="835" on="1"/>
        <pt x="209" y="729" on="1"/>
        <pt x="194" y="736" on="0"/>
        <pt x="183" y="755" on="1"/>
        <pt x="347" y="879" on="1"/>
        <pt x="364" y="878" on="0"/>
        <pt x="396" y="852" on="0"/>
      </contour>
    </TTGlyph>
    <TTGlyph name="Rcaron" xMin="42" yMin="-15" xMax="549" yMax="879">
      <contour>
        <pt x="42" y="0" on="1"/>
        <pt x="42" y="10" on="1"/>
        <pt x="42" y="27" on="0"/>
        <pt x="48" y="32" on="1"/>
        <pt x="61" y="40" on="0"/>
        <pt x="70" y="40" on="1"/>
        <pt x="120" y="43" on="1"/>
        <pt x="120" y="632" on="1"/>
        <pt x="47" y="638" on="1"/>
        <pt x="47" y="639" on="0"/>
        <pt x="46" y="655" on="0"/>
        <pt x="47" y="661" on="0"/>
        <pt x="49" y="666" on="1"/>
        <pt x="53" y="677" on="0"/>
        <pt x="70" y="677" on="1"/>
        <pt x="286" y="677" on="1"/>
        <pt x="497" y="677" on="0"/>
        <pt x="497" y="514" on="1"/>
        <pt x="497" y="431" on="0"/>
        <pt x="389" y="333" on="0"/>
        <pt x="306" y="321" on="1"/>
        <pt x="369" y="188" on="0"/>
        <pt x="504" y="37" on="0"/>
        <pt x="549" y="37" on="1"/>
        <pt x="549" y="13" on="0"/>
        <pt x="527" y="-15" on="0"/>
        <pt x="509" y="-15" on="1"/>
        <pt x="451" y="-15" on="0"/>
        <pt x="300" y="197" on="0"/>
        <pt x="257" y="317" on="1"/>
        <pt x="254" y="317" on="1"/>
        <pt x="216" y="317" on="0"/>
        <pt x="179" y="320" on="1"/>
        <pt x="179" y="45" on="1"/>
        <pt x="253" y="39" on="1"/>
        <pt x="253" y="6" on="0"/>
        <pt x="238" y="1" on="1"/>
        <pt x="235" y="0" on="0"/>
        <pt x="230" y="0" on="1"/>
      </contour>
      <contour>
        <pt x="179" y="634" on="1"/>
        <pt x="179" y="362" on="1"/>
        <pt x="215" y="359" on="0"/>
        <pt x="247" y="359" on="1"/>
        <pt x="339" y="359" on="0"/>
        <pt x="436" y="434" on="0"/>
        <pt x="436" y="500" on="1"/>
        <pt x="436" y="577" on="0"/>
        <pt x="396" y="608" on="1"/>
        <pt x="356" y="638" on="0"/>
        <pt x="298" y="638" on="1"/>
        <pt x="261" y="638" on="0"/>
        <pt x="180" y="634" on="1"/>
      </contour>
      <contour>
        <pt x="421" y="853" on="1"/>
        <pt x="291" y="734" on="1"/>
        <pt x="262" y="726" on="0"/>
        <pt x="233" y="734" on="1"/>
        <pt x="103" y="853" on="1"/>
        <pt x="114" y="872" on="0"/>
        <pt x="129" y="879" on="1"/>
        <pt x="262" y="790" on="1"/>
        <pt x="395" y="879" on="1"/>
        <pt x="410" y="872" on="0"/>
      </contour>
    </TTGlyph>
    <TTGlyph name="S" xMin="25" yMin="-15" xMax="461" yMax="690">
      <contour>
        <pt x="396" y="650" on="1"/>
        <pt x="429" y="624" on="0"/>
        <pt x="429" y="555" on="0"/>
        <pt x="396" y="528" on="0"/>
        <pt x="374" y="528" on="1"/>
        <pt x="374" y="580" on="0"/>
        <pt x="312" y="640" on="0"/>
        <pt x="189" y="640" on="0"/>
        <pt x="111" y="585" on="0"/>
        <pt x="111" y="534" on="1"/>
        <pt x="111" y="474" on="0"/>
        <pt x="167" y="437" on="1"/>
        <pt x="211" y="408" on="0"/>
        <pt x="327" y="360" on="0"/>
        <pt x="379" y="334" on="0"/>
        <pt x="408" y="312" on="1"/>
        <pt x="461" y="273" on="0"/>
        <pt x="461" y="114" on="0"/>
        <pt x="327" y="-15" on="0"/>
        <pt x="221" y="-15" on="1"/>
        <pt x="144" y="-15" on="0"/>
        <pt x="25" y="49" on="0"/>
        <pt x="25" y="99" on="1"/>
        <pt x="25" y="121" on="0"/>
        <pt x="50" y="151" on="0"/>
        <pt x="70" y="151" on="1"/>
        <pt x="85" y="94" on="0"/>
        <pt x="172" y="35" on="0"/>
        <pt x="310" y="35" on="0"/>
        <pt x="401" y="113" on="0"/>
        <pt x="401" y="180" on="1"/>
        <pt x="401" y="210" on="0"/>
        <pt x="384" y="252" on="0"/>
        <pt x="339" y="286" on="0"/>
        <pt x="322" y="295" on="1"/>
        <pt x="294" y="310" on="0"/>
        <pt x="203" y="348" on="0"/>
        <pt x="145" y="378" on="0"/>
        <pt x="113" y="402" on="1"/>
        <pt x="51" y="447" on="0"/>
        <pt x="51" y="594" on="0"/>
        <pt x="164" y="688" on="0"/>
        <pt x="251" y="690" on="1"/>
        <pt x="340" y="692" on="0"/>
      </contour>
    </TTGlyph>
    <TTGlyph name="Sacute" xMin="25" yMin="-15" xMax="461" yMax="879">
      <contour>
        <pt x="393" y="835" on="1"/>
        <pt x="197" y="729" on="1"/>
        <pt x="182" y="736" on="0"/>
        <pt x="171" y="755" on="1"/>
        <pt x="335" y="879" on="1"/>
        <pt x="352" y="878" on="0"/>
        <pt x="384" y="852" on="0"/>
      </contour>
      <contour>
        <pt x="396" y="650" on="1"/>
        <pt x="429" y="624" on="0"/>
        <pt x="429" y="555" on="0"/>
        <pt x="396" y="528" on="0"/>
        <pt x="374" y="528" on="1"/>
        <pt x="374" y="580" on="0"/>
        <pt x="312" y="640" on="0"/>
        <pt x="189" y="640" on="0"/>
        <pt x="111" y="585" on="0"/>
        <pt x="111" y="534" on="1"/>
        <pt x="111" y="474" on="0"/>
        <pt x="167" y="437" on="1"/>
        <pt x="211" y="408" on="0"/>
        <pt x="327" y="360" on="0"/>
        <pt x="379" y="334" on="0"/>
        <pt x="408" y="312" on="1"/>
        <pt x="461" y="273" on="0"/>
        <pt x="461" y="114" on="0"/>
        <pt x="327" y="-15" on="0"/>
        <pt x="221" y="-15" on="1"/>
        <pt x="144" y="-15" on="0"/>
        <pt x="25" y="49" on="0"/>
        <pt x="25" y="99" on="1"/>
        <pt x="25" y="121" on="0"/>
        <pt x="50" y="151" on="0"/>
        <pt x="70" y="151" on="1"/>
        <pt x="85" y="94" on="0"/>
        <pt x="172" y="35" on="0"/>
        <pt x="310" y="35" on="0"/>
        <pt x="401" y="113" on="0"/>
        <pt x="401" y="180" on="1"/>
        <pt x="401" y="210" on="0"/>
        <pt x="384" y="252" on="0"/>
        <pt x="339" y="286" on="0"/>
        <pt x="322" y="295" on="1"/>
        <pt x="294" y="310" on="0"/>
        <pt x="203" y="348" on="0"/>
        <pt x="145" y="378" on="0"/>
        <pt x="113" y="402" on="1"/>
        <pt x="51" y="447" on="0"/>
        <pt x="51" y="594" on="0"/>
        <pt x="164" y="688" on="0"/>
        <pt x="251" y="690" on="1"/>
        <pt x="340" y="692" on="0"/>
      </contour>
    </TTGlyph>
    <TTGlyph name="Scaron" xMin="25" yMin="-15" xMax="461" yMax="879">
      <contour>
        <pt x="461" y="114" on="0"/>
        <pt x="327" y="-15" on="0"/>
        <pt x="221" y="-15" on="1"/>
        <pt x="144" y="-15" on="0"/>
        <pt x="25" y="49" on="0"/>
        <pt x="25" y="99" on="1"/>
        <pt x="25" y="121" on="0"/>
        <pt x="50" y="151" on="0"/>
        <pt x="70" y="151" on="1"/>
        <pt x="85" y="94" on="0"/>
        <pt x="172" y="35" on="0"/>
        <pt x="310" y="35" on="0"/>
        <pt x="401" y="113" on="0"/>
        <pt x="401" y="180" on="1"/>
        <pt x="401" y="210" on="0"/>
        <pt x="384" y="252" on="0"/>
        <pt x="339" y="286" on="0"/>
        <pt x="322" y="295" on="1"/>
        <pt x="294" y="310" on="0"/>
        <pt x="203" y="348" on="0"/>
        <pt x="145" y="378" on="0"/>
        <pt x="113" y="402" on="1"/>
        <pt x="51" y="447" on="0"/>
        <pt x="51" y="594" on="0"/>
        <pt x="164" y="688" on="0"/>
        <pt x="251" y="690" on="1"/>
        <pt x="340" y="692" on="0"/>
        <pt x="396" y="650" on="1"/>
        <pt x="429" y="624" on="0"/>
        <pt x="429" y="555" on="0"/>
        <pt x="396" y="528" on="0"/>
        <pt x="374" y="528" on="1"/>
        <pt x="374" y="580" on="0"/>
        <pt x="312" y="640" on="0"/>
        <pt x="189" y="640" on="0"/>
        <pt x="111" y="585" on="0"/>
        <pt x="111" y="534" on="1"/>
        <pt x="111" y="474" on="0"/>
        <pt x="167" y="437" on="1"/>
        <pt x="211" y="408" on="0"/>
        <pt x="327" y="360" on="0"/>
        <pt x="379" y="334" on="0"/>
        <pt x="408" y="312" on="1"/>
        <pt x="461" y="273" on="0"/>
      </contour>
      <contour>
        <pt x="409" y="853" on="1"/>
        <pt x="279" y="734" on="1"/>
        <pt x="250" y="726" on="0"/>
        <pt x="221" y="734" on="1"/>
        <pt x="91" y="853" on="1"/>
        <pt x="102" y="872" on="0"/>
        <pt x="117" y="879" on="1"/>
        <pt x="250" y="790" on="1"/>
        <pt x="383" y="879" on="1"/>
        <pt x="398" y="872" on="0"/>
      </contour>
    </TTGlyph>
    <TTGlyph name="Scircumflex" xMin="25" yMin="-15" xMax="461" yMax="864">
      <contour>
        <pt x="461" y="114" on="0"/>
        <pt x="327" y="-15" on="0"/>
        <pt x="221" y="-15" on="1"/>
        <pt x="144" y="-15" on="0"/>
        <pt x="25" y="49" on="0"/>
        <pt x="25" y="99" on="1"/>
        <pt x="25" y="121" on="0"/>
        <pt x="50" y="151" on="0"/>
        <pt x="70" y="151" on="1"/>
        <pt x="85" y="94" on="0"/>
        <pt x="172" y="35" on="0"/>
        <pt x="310" y="35" on="0"/>
        <pt x="401" y="113" on="0"/>
        <pt x="401" y="180" on="1"/>
        <pt x="401" y="210" on="0"/>
        <pt x="384" y="252" on="0"/>
        <pt x="339" y="286" on="0"/>
        <pt x="322" y="295" on="1"/>
        <pt x="294" y="310" on="0"/>
        <pt x="203" y="348" on="0"/>
        <pt x="145" y="378" on="0"/>
        <pt x="113" y="402" on="1"/>
        <pt x="51" y="447" on="0"/>
        <pt x="51" y="594" on="0"/>
        <pt x="164" y="688" on="0"/>
        <pt x="251" y="690" on="1"/>
        <pt x="340" y="692" on="0"/>
        <pt x="396" y="650" on="1"/>
        <pt x="429" y="624" on="0"/>
        <pt x="429" y="555" on="0"/>
        <pt x="396" y="528" on="0"/>
        <pt x="374" y="528" on="1"/>
        <pt x="374" y="580" on="0"/>
        <pt x="312" y="640" on="0"/>
        <pt x="189" y="640" on="0"/>
        <pt x="111" y="585" on="0"/>
        <pt x="111" y="534" on="1"/>
        <pt x="111" y="474" on="0"/>
        <pt x="167" y="437" on="1"/>
        <pt x="211" y="408" on="0"/>
        <pt x="327" y="360" on="0"/>
        <pt x="379" y="334" on="0"/>
        <pt x="408" y="312" on="1"/>
        <pt x="461" y="273" on="0"/>
      </contour>
      <contour>
        <pt x="250" y="808" on="1"/>
        <pt x="117" y="719" on="1"/>
        <pt x="102" y="726" on="0"/>
        <pt x="91" y="745" on="1"/>
        <pt x="221" y="864" on="1"/>
        <pt x="250" y="872" on="0"/>
        <pt x="279" y="864" on="1"/>
        <pt x="409" y="745" on="1"/>
        <pt x="398" y="726" on="0"/>
        <pt x="383" y="719" on="1"/>
      </contour>
    </TTGlyph>
    <TTGlyph name="T" xMin="20" yMin="0" xMax="574" yMax="675">
      <contour>
        <pt x="20" y="675" on="1"/>
        <pt x="574" y="675" on="1"/>
        <pt x="574" y="560" on="1"/>
        <pt x="574" y="533" on="0"/>
        <pt x="535" y="537" on="1"/>
        <pt x="529" y="630" on="1"/>
        <pt x="328" y="630" on="1"/>
        <pt x="328" y="45" on="1"/>
        <pt x="402" y="39" on="1"/>
        <pt x="406" y="0" on="0"/>
        <pt x="379" y="0" on="1"/>
        <pt x="192" y="0" on="1"/>
        <pt x="192" y="0" on="0"/>
        <pt x="192" y="8" on="1"/>
        <pt x="192" y="30" on="0"/>
        <pt x="205" y="36" on="1"/>
        <pt x="211" y="39" on="0"/>
        <pt x="220" y="40" on="1"/>
        <pt x="270" y="43" on="1"/>
        <pt x="270" y="630" on="1"/>
        <pt x="65" y="630" on="1"/>
        <pt x="59" y="537" on="1"/>
        <pt x="20" y="533" on="0"/>
        <pt x="20" y="560" on="1"/>
      </contour>
    </TTGlyph>
    <TTGlyph name="Tbar" xMin="20" yMin="0" xMax="574" yMax="821">
      <contour>
        <pt x="20" y="675" on="1"/>
        <pt x="574" y="675" on="1"/>
        <pt x="574" y="560" on="1"/>
        <pt x="574" y="533" on="0"/>
        <pt x="535" y="537" on="1"/>
        <pt x="529" y="630" on="1"/>
        <pt x="328" y="630" on="1"/>
        <pt x="328" y="45" on="1"/>
        <pt x="402" y="39" on="1"/>
        <pt x="406" y="0" on="0"/>
        <pt x="379" y="0" on="1"/>
        <pt x="192" y="0" on="1"/>
        <pt x="192" y="0" on="0"/>
        <pt x="192" y="8" on="1"/>
        <pt x="192" y="30" on="0"/>
        <pt x="205" y="36" on="1"/>
        <pt x="211" y="39" on="0"/>
        <pt x="220" y="40" on="1"/>
        <pt x="270" y="43" on="1"/>
        <pt x="270" y="630" on="1"/>
        <pt x="65" y="630" on="1"/>
        <pt x="59" y="537" on="1"/>
        <pt x="20" y="533" on="0"/>
        <pt x="20" y="560" on="1"/>
      </contour>
      <contour>
        <pt x="428" y="821" on="1"/>
        <pt x="428" y="768" on="1"/>
        <pt x="173" y="768" on="1"/>
        <pt x="173" y="821" on="1"/>
      </contour>
    </TTGlyph>
    <TTGlyph name="Tcaron" xMin="20" yMin="0" xMax="574" yMax="879">
      <contour>
        <pt x="20" y="675" on="1"/>
        <pt x="574" y="675" on="1"/>
        <pt x="574" y="560" on="1"/>
        <pt x="574" y="533" on="0"/>
        <pt x="535" y="537" on="1"/>
        <pt x="529" y="630" on="1"/>
        <pt x="328" y="630" on="1"/>
        <pt x="328" y="45" on="1"/>
        <pt x="402" y="39" on="1"/>
        <pt x="406" y="0" on="0"/>
        <pt x="379" y="0" on="1"/>
        <pt x="192" y="0" on="1"/>
        <pt x="192" y="0" on="0"/>
        <pt x="192" y="8" on="1"/>
        <pt x="192" y="30" on="0"/>
        <pt x="205" y="36" on="1"/>
        <pt x="211" y="39" on="0"/>
        <pt x="220" y="40" on="1"/>
        <pt x="270" y="43" on="1"/>
        <pt x="270" y="630" on="1"/>
        <pt x="65" y="630" on="1"/>
        <pt x="59" y="537" on="1"/>
        <pt x="20" y="533" on="0"/>
        <pt x="20" y="560" on="1"/>
      </contour>
      <contour>
        <pt x="460" y="853" on="1"/>
        <pt x="330" y="734" on="1"/>
        <pt x="301" y="726" on="0"/>
        <pt x="272" y="734" on="1"/>
        <pt x="142" y="853" on="1"/>
        <pt x="153" y="872" on="0"/>
        <pt x="168" y="879" on="1"/>
        <pt x="301" y="790" on="1"/>
        <pt x="434" y="879" on="1"/>
        <pt x="449" y="872" on="0"/>
      </contour>
    </TTGlyph>
    <TTGlyph name="Thorn" xMin="42" yMin="0" xMax="525" yMax="677">
      <contour>
        <pt x="178" y="546" on="1"/>
        <pt x="274" y="546" on="1"/>
        <pt x="401" y="546" on="0"/>
        <pt x="525" y="441" on="0"/>
        <pt x="525" y="359" on="1"/>
        <pt x="525" y="146" on="0"/>
        <pt x="250" y="146" on="1"/>
        <pt x="226" y="146" on="0"/>
        <pt x="178" y="148" on="1"/>
        <pt x="178" y="45" on="1"/>
        <pt x="252" y="39" on="1"/>
        <pt x="256" y="0" on="0"/>
        <pt x="229" y="0" on="1"/>
        <pt x="42" y="0" on="1"/>
        <pt x="42" y="0" on="0"/>
        <pt x="42" y="8" on="1"/>
        <pt x="42" y="30" on="0"/>
        <pt x="55" y="36" on="1"/>
        <pt x="61" y="39" on="0"/>
        <pt x="70" y="40" on="1"/>
        <pt x="120" y="43" on="1"/>
        <pt x="120" y="632" on="1"/>
        <pt x="47" y="638" on="1"/>
        <pt x="43" y="677" on="0"/>
        <pt x="70" y="677" on="1"/>
        <pt x="257" y="677" on="1"/>
        <pt x="257" y="677" on="0"/>
        <pt x="257" y="670" on="1"/>
        <pt x="257" y="648" on="0"/>
        <pt x="244" y="641" on="1"/>
        <pt x="238" y="638" on="0"/>
        <pt x="229" y="637" on="1"/>
        <pt x="179" y="634" on="1"/>
        <pt x="178" y="634" on="1"/>
      </contour>
      <contour>
        <pt x="229" y="505" on="1"/>
        <pt x="178" y="505" on="1"/>
        <pt x="178" y="190" on="1"/>
        <pt x="222" y="188" on="0"/>
        <pt x="242" y="188" on="1"/>
        <pt x="353" y="188" on="0"/>
        <pt x="458" y="265" on="0"/>
        <pt x="458" y="431" on="0"/>
        <pt x="349" y="505" on="0"/>
      </contour>
    </TTGlyph>
    <TTGlyph name="U" xMin="26" yMin="-15" xMax="615" yMax="675">
      <contour>
        <pt x="442" y="675" on="1"/>
        <pt x="615" y="675" on="1"/>
        <pt x="615" y="675" on="0"/>
        <pt x="615" y="668" on="1"/>
        <pt x="615" y="646" on="0"/>
        <pt x="602" y="639" on="1"/>
        <pt x="596" y="636" on="0"/>
        <pt x="587" y="635" on="1"/>
        <pt x="539" y="632" on="1"/>
        <pt x="539" y="244" on="1"/>
        <pt x="539" y="125" on="0"/>
        <pt x="427" y="-15" on="0"/>
        <pt x="307" y="-15" on="1"/>
        <pt x="99" y="-15" on="0"/>
        <pt x="99" y="228" on="1"/>
        <pt x="99" y="630" on="1"/>
        <pt x="26" y="636" on="1"/>
        <pt x="22" y="675" on="0"/>
        <pt x="49" y="675" on="1"/>
        <pt x="235" y="675" on="1"/>
        <pt x="235" y="675" on="0"/>
        <pt x="235" y="668" on="1"/>
        <pt x="235" y="646" on="0"/>
        <pt x="222" y="639" on="1"/>
        <pt x="216" y="636" on="0"/>
        <pt x="207" y="635" on="1"/>
        <pt x="157" y="632" on="1"/>
        <pt x="156" y="237" on="1"/>
        <pt x="156" y="30" on="0"/>
        <pt x="314" y="30" on="1"/>
        <pt x="399" y="30" on="0"/>
        <pt x="492" y="132" on="0"/>
        <pt x="492" y="236" on="1"/>
        <pt x="492" y="630" on="1"/>
        <pt x="419" y="636" on="1"/>
        <pt x="415" y="675" on="0"/>
      </contour>
    </TTGlyph>
    <TTGlyph name="Uacute" xMin="26" yMin="-15" xMax="615" yMax="879">
      <contour>
        <pt x="465" y="835" on="1"/>
        <pt x="269" y="729" on="1"/>
        <pt x="254" y="736" on="0"/>
        <pt x="243" y="755" on="1"/>
        <pt x="407" y="879" on="1"/>
        <pt x="424" y="878" on="0"/>
        <pt x="456" y="852" on="0"/>
      </contour>
      <contour>
        <pt x="442" y="675" on="1"/>
        <pt x="615" y="675" on="1"/>
        <pt x="615" y="675" on="0"/>
        <pt x="615" y="668" on="1"/>
        <pt x="615" y="646" on="0"/>
        <pt x="602" y="639" on="1"/>
        <pt x="596" y="636" on="0"/>
        <pt x="587" y="635" on="1"/>
        <pt x="539" y="632" on="1"/>
        <pt x="539" y="244" on="1"/>
        <pt x="539" y="125" on="0"/>
        <pt x="427" y="-15" on="0"/>
        <pt x="307" y="-15" on="1"/>
        <pt x="99" y="-15" on="0"/>
        <pt x="99" y="228" on="1"/>
        <pt x="99" y="630" on="1"/>
        <pt x="26" y="636" on="1"/>
        <pt x="22" y="675" on="0"/>
        <pt x="49" y="675" on="1"/>
        <pt x="235" y="675" on="1"/>
        <pt x="235" y="675" on="0"/>
        <pt x="235" y="668" on="1"/>
        <pt x="235" y="646" on="0"/>
        <pt x="222" y="639" on="1"/>
        <pt x="216" y="636" on="0"/>
        <pt x="207" y="635" on="1"/>
        <pt x="157" y="632" on="1"/>
        <pt x="156" y="237" on="1"/>
        <pt x="156" y="30" on="0"/>
        <pt x="314" y="30" on="1"/>
        <pt x="399" y="30" on="0"/>
        <pt x="492" y="132" on="0"/>
        <pt x="492" y="236" on="1"/>
        <pt x="492" y="630" on="1"/>
        <pt x="419" y="636" on="1"/>
        <pt x="415" y="675" on="0"/>
      </contour>
    </TTGlyph>
    <TTGlyph name="Ubreve" xMin="26" yMin="-15" xMax="615" yMax="872">
      <contour>
        <pt x="442" y="675" on="1"/>
        <pt x="615" y="675" on="1"/>
        <pt x="615" y="675" on="0"/>
        <pt x="615" y="668" on="1"/>
        <pt x="615" y="646" on="0"/>
        <pt x="602" y="639" on="1"/>
        <pt x="596" y="636" on="0"/>
        <pt x="587" y="635" on="1"/>
        <pt x="539" y="632" on="1"/>
        <pt x="539" y="244" on="1"/>
        <pt x="539" y="125" on="0"/>
        <pt x="427" y="-15" on="0"/>
        <pt x="307" y="-15" on="1"/>
        <pt x="99" y="-15" on="0"/>
        <pt x="99" y="228" on="1"/>
        <pt x="99" y="630" on="1"/>
        <pt x="26" y="636" on="1"/>
        <pt x="22" y="675" on="0"/>
        <pt x="49" y="675" on="1"/>
        <pt x="235" y="675" on="1"/>
        <pt x="235" y="675" on="0"/>
        <pt x="235" y="668" on="1"/>
        <pt x="235" y="646" on="0"/>
        <pt x="222" y="639" on="1"/>
        <pt x="216" y="636" on="0"/>
        <pt x="207" y="635" on="1"/>
        <pt x="157" y="632" on="1"/>
        <pt x="156" y="237" on="1"/>
        <pt x="156" y="30" on="0"/>
        <pt x="314" y="30" on="1"/>
        <pt x="399" y="30" on="0"/>
        <pt x="492" y="132" on="0"/>
        <pt x="492" y="236" on="1"/>
        <pt x="492" y="630" on="1"/>
        <pt x="419" y="636" on="1"/>
        <pt x="415" y="675" on="0"/>
      </contour>
      <contour>
        <pt x="323" y="793" on="1"/>
        <pt x="412" y="793" on="0"/>
        <pt x="441" y="870" on="1"/>
        <pt x="474" y="857" on="1"/>
        <pt x="467" y="810" on="0"/>
        <pt x="388" y="734" on="0"/>
        <pt x="255" y="734" on="0"/>
        <pt x="177" y="810" on="0"/>
        <pt x="170" y="857" on="1"/>
        <pt x="203" y="872" on="1"/>
        <pt x="214" y="843" on="0"/>
        <pt x="274" y="793" on="0"/>
      </contour>
    </TTGlyph>
    <TTGlyph name="Ucircumflex" xMin="26" yMin="-15" xMax="615" yMax="864">
      <contour>
        <pt x="442" y="675" on="1"/>
        <pt x="615" y="675" on="1"/>
        <pt x="615" y="675" on="0"/>
        <pt x="615" y="668" on="1"/>
        <pt x="615" y="646" on="0"/>
        <pt x="602" y="639" on="1"/>
        <pt x="596" y="636" on="0"/>
        <pt x="587" y="635" on="1"/>
        <pt x="539" y="632" on="1"/>
        <pt x="539" y="244" on="1"/>
        <pt x="539" y="125" on="0"/>
        <pt x="427" y="-15" on="0"/>
        <pt x="307" y="-15" on="1"/>
        <pt x="99" y="-15" on="0"/>
        <pt x="99" y="228" on="1"/>
        <pt x="99" y="630" on="1"/>
        <pt x="26" y="636" on="1"/>
        <pt x="22" y="675" on="0"/>
        <pt x="49" y="675" on="1"/>
        <pt x="235" y="675" on="1"/>
        <pt x="235" y="675" on="0"/>
        <pt x="235" y="668" on="1"/>
        <pt x="235" y="646" on="0"/>
        <pt x="222" y="639" on="1"/>
        <pt x="216" y="636" on="0"/>
        <pt x="207" y="635" on="1"/>
        <pt x="157" y="632" on="1"/>
        <pt x="156" y="237" on="1"/>
        <pt x="156" y="30" on="0"/>
        <pt x="314" y="30" on="1"/>
        <pt x="399" y="30" on="0"/>
        <pt x="492" y="132" on="0"/>
        <pt x="492" y="236" on="1"/>
        <pt x="492" y="630" on="1"/>
        <pt x="419" y="636" on="1"/>
        <pt x="415" y="675" on="0"/>
      </contour>
      <contour>
        <pt x="322" y="808" on="1"/>
        <pt x="189" y="719" on="1"/>
        <pt x="174" y="726" on="0"/>
        <pt x="163" y="745" on="1"/>
        <pt x="293" y="864" on="1"/>
        <pt x="322" y="872" on="0"/>
        <pt x="351" y="864" on="1"/>
        <pt x="481" y="745" on="1"/>
        <pt x="470" y="726" on="0"/>
        <pt x="455" y="719" on="1"/>
      </contour>
    </TTGlyph>
    <TTGlyph name="Udieresis" xMin="26" yMin="-15" xMax="615" yMax="844">
      <contour>
        <pt x="448" y="777" on="0"/>
        <pt x="421" y="750" on="0"/>
        <pt x="381" y="750" on="0"/>
        <pt x="354" y="778" on="0"/>
        <pt x="354" y="816" on="0"/>
        <pt x="381" y="844" on="0"/>
        <pt x="421" y="844" on="0"/>
        <pt x="448" y="816" on="0"/>
      </contour>
      <contour>
        <pt x="290" y="777" on="0"/>
        <pt x="263" y="750" on="0"/>
        <pt x="224" y="750" on="0"/>
        <pt x="196" y="777" on="0"/>
        <pt x="196" y="816" on="0"/>
        <pt x="224" y="844" on="0"/>
        <pt x="263" y="844" on="0"/>
        <pt x="290" y="816" on="0"/>
      </contour>
      <contour>
        <pt x="442" y="675" on="1"/>
        <pt x="615" y="675" on="1"/>
        <pt x="615" y="668" on="1"/>
        <pt x="615" y="646" on="0"/>
        <pt x="602" y="639" on="1"/>
        <pt x="596" y="636" on="0"/>
        <pt x="587" y="635" on="1"/>
        <pt x="539" y="632" on="1"/>
        <pt x="539" y="244" on="1"/>
        <pt x="539" y="125" on="0"/>
        <pt x="427" y="-15" on="0"/>
        <pt x="307" y="-15" on="1"/>
        <pt x="99" y="-15" on="0"/>
        <pt x="99" y="228" on="1"/>
        <pt x="99" y="630" on="1"/>
        <pt x="26" y="636" on="1"/>
        <pt x="22" y="675" on="0"/>
        <pt x="49" y="675" on="1"/>
        <pt x="235" y="675" on="1"/>
        <pt x="235" y="668" on="1"/>
        <pt x="235" y="646" on="0"/>
        <pt x="222" y="639" on="1"/>
        <pt x="216" y="636" on="0"/>
        <pt x="207" y="635" on="1"/>
        <pt x="157" y="632" on="1"/>
        <pt x="156" y="237" on="1"/>
        <pt x="156" y="30" on="0"/>
        <pt x="314" y="30" on="1"/>
        <pt x="399" y="30" on="0"/>
        <pt x="492" y="132" on="0"/>
        <pt x="492" y="236" on="1"/>
        <pt x="492" y="630" on="1"/>
        <pt x="419" y="636" on="1"/>
        <pt x="415" y="675" on="0"/>
      </contour>
    </TTGlyph>
    <TTGlyph name="Ugrave" xMin="26" yMin="-15" xMax="615" yMax="869">
      <contour>
        <pt x="392" y="719" on="1"/>
        <pt x="196" y="825" on="1"/>
        <pt x="205" y="842" on="0"/>
        <pt x="237" y="868" on="0"/>
        <pt x="254" y="869" on="1"/>
        <pt x="418" y="745" on="1"/>
        <pt x="407" y="726" on="0"/>
      </contour>
      <contour>
        <pt x="442" y="675" on="1"/>
        <pt x="615" y="675" on="1"/>
        <pt x="615" y="675" on="0"/>
        <pt x="615" y="668" on="1"/>
        <pt x="615" y="646" on="0"/>
        <pt x="602" y="639" on="1"/>
        <pt x="596" y="636" on="0"/>
        <pt x="587" y="635" on="1"/>
        <pt x="539" y="632" on="1"/>
        <pt x="539" y="244" on="1"/>
        <pt x="539" y="125" on="0"/>
        <pt x="427" y="-15" on="0"/>
        <pt x="307" y="-15" on="1"/>
        <pt x="99" y="-15" on="0"/>
        <pt x="99" y="228" on="1"/>
        <pt x="99" y="630" on="1"/>
        <pt x="26" y="636" on="1"/>
        <pt x="22" y="675" on="0"/>
        <pt x="49" y="675" on="1"/>
        <pt x="235" y="675" on="1"/>
        <pt x="235" y="675" on="0"/>
        <pt x="235" y="668" on="1"/>
        <pt x="235" y="646" on="0"/>
        <pt x="222" y="639" on="1"/>
        <pt x="216" y="636" on="0"/>
        <pt x="207" y="635" on="1"/>
        <pt x="157" y="632" on="1"/>
        <pt x="156" y="237" on="1"/>
        <pt x="156" y="30" on="0"/>
        <pt x="314" y="30" on="1"/>
        <pt x="399" y="30" on="0"/>
        <pt x="492" y="132" on="0"/>
        <pt x="492" y="236" on="1"/>
        <pt x="492" y="630" on="1"/>
        <pt x="419" y="636" on="1"/>
        <pt x="415" y="675" on="0"/>
      </contour>
    </TTGlyph>
    <TTGlyph name="Uhungarumlaut" xMin="26" yMin="-15" xMax="615" yMax="838">
      <contour>
        <pt x="442" y="675" on="1"/>
        <pt x="615" y="675" on="1"/>
        <pt x="615" y="675" on="0"/>
        <pt x="615" y="668" on="1"/>
        <pt x="615" y="646" on="0"/>
        <pt x="602" y="639" on="1"/>
        <pt x="596" y="636" on="0"/>
        <pt x="587" y="635" on="1"/>
        <pt x="539" y="632" on="1"/>
        <pt x="539" y="244" on="1"/>
        <pt x="539" y="125" on="0"/>
        <pt x="427" y="-15" on="0"/>
        <pt x="307" y="-15" on="1"/>
        <pt x="99" y="-15" on="0"/>
        <pt x="99" y="228" on="1"/>
        <pt x="99" y="630" on="1"/>
        <pt x="26" y="636" on="1"/>
        <pt x="22" y="675" on="0"/>
        <pt x="49" y="675" on="1"/>
        <pt x="235" y="675" on="1"/>
        <pt x="235" y="675" on="0"/>
        <pt x="235" y="668" on="1"/>
        <pt x="235" y="646" on="0"/>
        <pt x="222" y="639" on="1"/>
        <pt x="216" y="636" on="0"/>
        <pt x="207" y="635" on="1"/>
        <pt x="157" y="632" on="1"/>
        <pt x="156" y="237" on="1"/>
        <pt x="156" y="30" on="0"/>
        <pt x="314" y="30" on="1"/>
        <pt x="399" y="30" on="0"/>
        <pt x="492" y="132" on="0"/>
        <pt x="492" y="236" on="1"/>
        <pt x="492" y="630" on="1"/>
        <pt x="419" y="636" on="1"/>
        <pt x="415" y="675" on="0"/>
      </contour>
      <contour>
        <pt x="402" y="794" on="1"/>
        <pt x="206" y="688" on="1"/>
        <pt x="191" y="695" on="0"/>
        <pt x="180" y="714" on="1"/>
        <pt x="344" y="838" on="1"/>
        <pt x="361" y="837" on="0"/>
        <pt x="393" y="811" on="0"/>
      </contour>
      <contour>
        <pt x="581" y="794" on="1"/>
        <pt x="385" y="688" on="1"/>
        <pt x="370" y="695" on="0"/>
        <pt x="359" y="714" on="1"/>
        <pt x="523" y="838" on="1"/>
        <pt x="540" y="837" on="0"/>
        <pt x="572" y="811" on="0"/>
      </contour>
    </TTGlyph>
    <TTGlyph name="Umacron" xMin="26" yMin="-15" xMax="615" yMax="821">
      <contour>
        <pt x="194" y="821" on="1"/>
        <pt x="449" y="821" on="1"/>
        <pt x="449" y="768" on="1"/>
        <pt x="194" y="768" on="1"/>
      </contour>
      <contour>
        <pt x="442" y="675" on="1"/>
        <pt x="615" y="675" on="1"/>
        <pt x="615" y="675" on="0"/>
        <pt x="615" y="668" on="1"/>
        <pt x="615" y="646" on="0"/>
        <pt x="602" y="639" on="1"/>
        <pt x="596" y="636" on="0"/>
        <pt x="587" y="635" on="1"/>
        <pt x="539" y="632" on="1"/>
        <pt x="539" y="244" on="1"/>
        <pt x="539" y="125" on="0"/>
        <pt x="427" y="-15" on="0"/>
        <pt x="307" y="-15" on="1"/>
        <pt x="99" y="-15" on="0"/>
        <pt x="99" y="228" on="1"/>
        <pt x="99" y="630" on="1"/>
        <pt x="26" y="636" on="1"/>
        <pt x="22" y="675" on="0"/>
        <pt x="49" y="675" on="1"/>
        <pt x="235" y="675" on="1"/>
        <pt x="235" y="675" on="0"/>
        <pt x="235" y="668" on="1"/>
        <pt x="235" y="646" on="0"/>
        <pt x="222" y="639" on="1"/>
        <pt x="216" y="636" on="0"/>
        <pt x="207" y="635" on="1"/>
        <pt x="157" y="632" on="1"/>
        <pt x="156" y="237" on="1"/>
        <pt x="156" y="30" on="0"/>
        <pt x="314" y="30" on="1"/>
        <pt x="399" y="30" on="0"/>
        <pt x="492" y="132" on="0"/>
        <pt x="492" y="236" on="1"/>
        <pt x="492" y="630" on="1"/>
        <pt x="419" y="636" on="1"/>
        <pt x="415" y="675" on="0"/>
      </contour>
    </TTGlyph>
    <TTGlyph name="Uogonek" xMin="26" yMin="-172" xMax="615" yMax="675">
      <contour>
        <pt x="442" y="675" on="1"/>
        <pt x="615" y="675" on="1"/>
        <pt x="615" y="675" on="0"/>
        <pt x="615" y="668" on="1"/>
        <pt x="615" y="646" on="0"/>
        <pt x="602" y="639" on="1"/>
        <pt x="596" y="636" on="0"/>
        <pt x="587" y="635" on="1"/>
        <pt x="539" y="632" on="1"/>
        <pt x="539" y="244" on="1"/>
        <pt x="539" y="43" on="0"/>
        <pt x="394" y="-3" on="1"/>
        <pt x="314" y="-31" on="0"/>
        <pt x="314" y="-84" on="1"/>
        <pt x="314" y="-131" on="0"/>
        <pt x="367" y="-131" on="1"/>
        <pt x="394" y="-131" on="0"/>
        <pt x="425" y="-108" on="1"/>
        <pt x="429" y="-111" on="0"/>
        <pt x="434" y="-131" on="0"/>
        <pt x="432" y="-137" on="1"/>
        <pt x="407" y="-172" on="0"/>
        <pt x="348" y="-172" on="1"/>
        <pt x="311" y="-172" on="0"/>
        <pt x="260" y="-132" on="0"/>
        <pt x="260" y="-48" on="0"/>
        <pt x="303" y="-15" on="1"/>
        <pt x="99" y="-12" on="0"/>
        <pt x="99" y="228" on="1"/>
        <pt x="99" y="630" on="1"/>
        <pt x="26" y="636" on="1"/>
        <pt x="22" y="675" on="0"/>
        <pt x="49" y="675" on="1"/>
        <pt x="235" y="675" on="1"/>
        <pt x="235" y="668" on="1"/>
        <pt x="235" y="646" on="0"/>
        <pt x="222" y="639" on="1"/>
        <pt x="216" y="636" on="0"/>
        <pt x="207" y="635" on="1"/>
        <pt x="157" y="632" on="1"/>
        <pt x="156" y="237" on="1"/>
        <pt x="156" y="30" on="0"/>
        <pt x="314" y="30" on="1"/>
        <pt x="399" y="30" on="0"/>
        <pt x="492" y="132" on="0"/>
        <pt x="492" y="236" on="1"/>
        <pt x="492" y="630" on="1"/>
        <pt x="419" y="636" on="1"/>
        <pt x="415" y="675" on="0"/>
      </contour>
    </TTGlyph>
    <TTGlyph name="Uring" xMin="26" yMin="-15" xMax="615" yMax="904">
      <contour>
        <pt x="345" y="864" on="0"/>
        <pt x="303" y="864" on="0"/>
        <pt x="278" y="839" on="0"/>
        <pt x="278" y="797" on="0"/>
        <pt x="303" y="772" on="0"/>
        <pt x="345" y="772" on="0"/>
        <pt x="370" y="797" on="0"/>
        <pt x="370" y="839" on="0"/>
      </contour>
      <contour>
        <pt x="234" y="856" on="0"/>
        <pt x="285" y="904" on="0"/>
        <pt x="366" y="904" on="0"/>
        <pt x="414" y="858" on="0"/>
        <pt x="413" y="780" on="0"/>
        <pt x="363" y="732" on="0"/>
        <pt x="282" y="732" on="0"/>
        <pt x="234" y="778" on="0"/>
      </contour>
      <contour>
        <pt x="442" y="675" on="1"/>
        <pt x="615" y="675" on="1"/>
        <pt x="615" y="668" on="1"/>
        <pt x="615" y="646" on="0"/>
        <pt x="602" y="639" on="1"/>
        <pt x="596" y="636" on="0"/>
        <pt x="587" y="635" on="1"/>
        <pt x="539" y="632" on="1"/>
        <pt x="539" y="244" on="1"/>
        <pt x="539" y="125" on="0"/>
        <pt x="427" y="-15" on="0"/>
        <pt x="307" y="-15" on="1"/>
        <pt x="99" y="-15" on="0"/>
        <pt x="99" y="228" on="1"/>
        <pt x="99" y="630" on="1"/>
        <pt x="26" y="636" on="1"/>
        <pt x="22" y="675" on="0"/>
        <pt x="49" y="675" on="1"/>
        <pt x="235" y="675" on="1"/>
        <pt x="235" y="668" on="1"/>
        <pt x="235" y="646" on="0"/>
        <pt x="222" y="639" on="1"/>
        <pt x="216" y="636" on="0"/>
        <pt x="207" y="635" on="1"/>
        <pt x="157" y="632" on="1"/>
        <pt x="156" y="237" on="1"/>
        <pt x="156" y="30" on="0"/>
        <pt x="314" y="30" on="1"/>
        <pt x="399" y="30" on="0"/>
        <pt x="492" y="132" on="0"/>
        <pt x="492" y="236" on="1"/>
        <pt x="492" y="630" on="1"/>
        <pt x="419" y="636" on="1"/>
        <pt x="415" y="675" on="0"/>
      </contour>
    </TTGlyph>
    <TTGlyph name="Utilde" xMin="26" yMin="-15" xMax="615" yMax="860">
      <contour>
        <pt x="442" y="675" on="1"/>
        <pt x="615" y="675" on="1"/>
        <pt x="615" y="675" on="0"/>
        <pt x="615" y="668" on="1"/>
        <pt x="615" y="646" on="0"/>
        <pt x="602" y="639" on="1"/>
        <pt x="596" y="636" on="0"/>
        <pt x="587" y="635" on="1"/>
        <pt x="539" y="632" on="1"/>
        <pt x="539" y="244" on="1"/>
        <pt x="539" y="125" on="0"/>
        <pt x="427" y="-15" on="0"/>
        <pt x="307" y="-15" on="1"/>
        <pt x="99" y="-15" on="0"/>
        <pt x="99" y="228" on="1"/>
        <pt x="99" y="630" on="1"/>
        <pt x="26" y="636" on="1"/>
        <pt x="22" y="675" on="0"/>
        <pt x="49" y="675" on="1"/>
        <pt x="235" y="675" on="1"/>
        <pt x="235" y="675" on="0"/>
        <pt x="235" y="668" on="1"/>
        <pt x="235" y="646" on="0"/>
        <pt x="222" y="639" on="1"/>
        <pt x="216" y="636" on="0"/>
        <pt x="207" y="635" on="1"/>
        <pt x="157" y="632" on="1"/>
        <pt x="156" y="237" on="1"/>
        <pt x="156" y="30" on="0"/>
        <pt x="314" y="30" on="1"/>
        <pt x="399" y="30" on="0"/>
        <pt x="492" y="132" on="0"/>
        <pt x="492" y="236" on="1"/>
        <pt x="492" y="630" on="1"/>
        <pt x="419" y="636" on="1"/>
        <pt x="415" y="675" on="0"/>
      </contour>
      <contour>
        <pt x="168" y="813" on="0"/>
        <pt x="225" y="860" on="0"/>
        <pt x="289" y="860" on="0"/>
        <pt x="368" y="808" on="0"/>
        <pt x="418" y="808" on="0"/>
        <pt x="450" y="837" on="0"/>
        <pt x="456" y="860" on="1"/>
        <pt x="486" y="851" on="1"/>
        <pt x="478" y="810" on="0"/>
        <pt x="425" y="756" on="0"/>
        <pt x="349" y="756" on="0"/>
        <pt x="266" y="806" on="0"/>
        <pt x="244" y="806" on="1"/>
        <pt x="204" y="806" on="0"/>
        <pt x="187" y="757" on="1"/>
        <pt x="157" y="768" on="1"/>
      </contour>
    </TTGlyph>
    <TTGlyph name="V" xMin="6" yMin="0" xMax="600" yMax="675">
      <contour>
        <pt x="454" y="675" on="1"/>
        <pt x="600" y="675" on="1"/>
        <pt x="600" y="675" on="0"/>
        <pt x="600" y="668" on="1"/>
        <pt x="600" y="638" on="0"/>
        <pt x="572" y="635" on="1"/>
        <pt x="553" y="632" on="1"/>
        <pt x="319" y="0" on="1"/>
        <pt x="277" y="0" on="1"/>
        <pt x="60" y="630" on="1"/>
        <pt x="6" y="636" on="1"/>
        <pt x="2" y="675" on="0"/>
        <pt x="29" y="675" on="1"/>
        <pt x="203" y="675" on="1"/>
        <pt x="203" y="668" on="1"/>
        <pt x="203" y="646" on="0"/>
        <pt x="190" y="639" on="1"/>
        <pt x="184" y="636" on="0"/>
        <pt x="175" y="635" on="1"/>
        <pt x="125" y="632" on="1"/>
        <pt x="124" y="632" on="1"/>
        <pt x="305" y="83" on="1"/>
        <pt x="501" y="630" on="1"/>
        <pt x="431" y="636" on="1"/>
        <pt x="427" y="675" on="0"/>
      </contour>
    </TTGlyph>
    <TTGlyph name="W" xMin="6" yMin="0" xMax="933" yMax="675">
      <contour>
        <pt x="780" y="675" on="1"/>
        <pt x="933" y="675" on="1"/>
        <pt x="933" y="675" on="0"/>
        <pt x="933" y="668" on="1"/>
        <pt x="933" y="646" on="0"/>
        <pt x="920" y="639" on="1"/>
        <pt x="914" y="636" on="0"/>
        <pt x="887" y="633" on="1"/>
        <pt x="679" y="0" on="1"/>
        <pt x="632" y="0" on="1"/>
        <pt x="471" y="511" on="1"/>
        <pt x="291" y="0" on="1"/>
        <pt x="248" y="0" on="1"/>
        <pt x="59" y="630" on="1"/>
        <pt x="6" y="636" on="1"/>
        <pt x="2" y="675" on="0"/>
        <pt x="29" y="675" on="1"/>
        <pt x="200" y="675" on="1"/>
        <pt x="200" y="668" on="1"/>
        <pt x="200" y="646" on="0"/>
        <pt x="187" y="639" on="1"/>
        <pt x="180" y="636" on="0"/>
        <pt x="125" y="632" on="1"/>
        <pt x="276" y="94" on="1"/>
        <pt x="453" y="616" on="1"/>
        <pt x="505" y="616" on="1"/>
        <pt x="661" y="91" on="1"/>
        <pt x="831" y="630" on="1"/>
        <pt x="757" y="636" on="1"/>
        <pt x="753" y="675" on="0"/>
      </contour>
    </TTGlyph>
    <TTGlyph name="Wacute" xMin="6" yMin="0" xMax="933" yMax="879">
      <contour>
        <pt x="780" y="675" on="1"/>
        <pt x="933" y="675" on="1"/>
        <pt x="933" y="675" on="0"/>
        <pt x="933" y="668" on="1"/>
        <pt x="933" y="646" on="0"/>
        <pt x="920" y="639" on="1"/>
        <pt x="914" y="636" on="0"/>
        <pt x="887" y="633" on="1"/>
        <pt x="679" y="0" on="1"/>
        <pt x="632" y="0" on="1"/>
        <pt x="471" y="511" on="1"/>
        <pt x="291" y="0" on="1"/>
        <pt x="248" y="0" on="1"/>
        <pt x="59" y="630" on="1"/>
        <pt x="6" y="636" on="1"/>
        <pt x="2" y="675" on="0"/>
        <pt x="29" y="675" on="1"/>
        <pt x="200" y="675" on="1"/>
        <pt x="200" y="668" on="1"/>
        <pt x="200" y="646" on="0"/>
        <pt x="187" y="639" on="1"/>
        <pt x="180" y="636" on="0"/>
        <pt x="125" y="632" on="1"/>
        <pt x="276" y="94" on="1"/>
        <pt x="453" y="616" on="1"/>
        <pt x="505" y="616" on="1"/>
        <pt x="661" y="91" on="1"/>
        <pt x="831" y="630" on="1"/>
        <pt x="757" y="636" on="1"/>
        <pt x="753" y="675" on="0"/>
      </contour>
      <contour>
        <pt x="624" y="835" on="1"/>
        <pt x="428" y="729" on="1"/>
        <pt x="413" y="736" on="0"/>
        <pt x="402" y="755" on="1"/>
        <pt x="566" y="879" on="1"/>
        <pt x="583" y="878" on="0"/>
        <pt x="615" y="852" on="0"/>
      </contour>
    </TTGlyph>
    <TTGlyph name="Wcircumflex" xMin="6" yMin="0" xMax="933" yMax="864">
      <contour>
        <pt x="780" y="675" on="1"/>
        <pt x="933" y="675" on="1"/>
        <pt x="933" y="675" on="0"/>
        <pt x="933" y="668" on="1"/>
        <pt x="933" y="646" on="0"/>
        <pt x="920" y="639" on="1"/>
        <pt x="914" y="636" on="0"/>
        <pt x="887" y="633" on="1"/>
        <pt x="679" y="0" on="1"/>
        <pt x="632" y="0" on="1"/>
        <pt x="471" y="511" on="1"/>
        <pt x="291" y="0" on="1"/>
        <pt x="248" y="0" on="1"/>
        <pt x="59" y="630" on="1"/>
        <pt x="6" y="636" on="1"/>
        <pt x="2" y="675" on="0"/>
        <pt x="29" y="675" on="1"/>
        <pt x="200" y="675" on="1"/>
        <pt x="200" y="668" on="1"/>
        <pt x="200" y="646" on="0"/>
        <pt x="187" y="639" on="1"/>
        <pt x="180" y="636" on="0"/>
        <pt x="125" y="632" on="1"/>
        <pt x="276" y="94" on="1"/>
        <pt x="453" y="616" on="1"/>
        <pt x="505" y="616" on="1"/>
        <pt x="661" y="91" on="1"/>
        <pt x="831" y="630" on="1"/>
        <pt x="757" y="636" on="1"/>
        <pt x="753" y="675" on="0"/>
      </contour>
      <contour>
        <pt x="481" y="808" on="1"/>
        <pt x="348" y="719" on="1"/>
        <pt x="333" y="726" on="0"/>
        <pt x="322" y="745" on="1"/>
        <pt x="452" y="864" on="1"/>
        <pt x="481" y="872" on="0"/>
        <pt x="510" y="864" on="1"/>
        <pt x="640" y="745" on="1"/>
        <pt x="629" y="726" on="0"/>
        <pt x="614" y="719" on="1"/>
      </contour>
    </TTGlyph>
    <TTGlyph name="Wdieresis" xMin="6" yMin="0" xMax="933" yMax="844">
      <contour>
        <pt x="780" y="675" on="1"/>
        <pt x="933" y="675" on="1"/>
        <pt x="933" y="675" on="0"/>
        <pt x="933" y="668" on="1"/>
        <pt x="933" y="646" on="0"/>
        <pt x="920" y="639" on="1"/>
        <pt x="914" y="636" on="0"/>
        <pt x="887" y="633" on="1"/>
        <pt x="679" y="0" on="1"/>
        <pt x="632" y="0" on="1"/>
        <pt x="471" y="511" on="1"/>
        <pt x="291" y="0" on="1"/>
        <pt x="248" y="0" on="1"/>
        <pt x="59" y="630" on="1"/>
        <pt x="6" y="636" on="1"/>
        <pt x="2" y="675" on="0"/>
        <pt x="29" y="675" on="1"/>
        <pt x="200" y="675" on="1"/>
        <pt x="200" y="668" on="1"/>
        <pt x="200" y="646" on="0"/>
        <pt x="187" y="639" on="1"/>
        <pt x="180" y="636" on="0"/>
        <pt x="125" y="632" on="1"/>
        <pt x="276" y="94" on="1"/>
        <pt x="453" y="616" on="1"/>
        <pt x="505" y="616" on="1"/>
        <pt x="661" y="91" on="1"/>
        <pt x="831" y="630" on="1"/>
        <pt x="757" y="636" on="1"/>
        <pt x="753" y="675" on="0"/>
      </contour>
      <contour>
        <pt x="449" y="777" on="0"/>
        <pt x="422" y="750" on="0"/>
        <pt x="383" y="750" on="0"/>
        <pt x="355" y="777" on="0"/>
        <pt x="355" y="816" on="0"/>
        <pt x="383" y="844" on="0"/>
        <pt x="422" y="844" on="0"/>
        <pt x="449" y="816" on="0"/>
      </contour>
      <contour>
        <pt x="607" y="777" on="0"/>
        <pt x="580" y="750" on="0"/>
        <pt x="540" y="750" on="0"/>
        <pt x="513" y="778" on="0"/>
        <pt x="513" y="816" on="0"/>
        <pt x="540" y="844" on="0"/>
        <pt x="580" y="844" on="0"/>
        <pt x="607" y="816" on="0"/>
      </contour>
    </TTGlyph>
    <TTGlyph name="Wgrave" xMin="6" yMin="0" xMax="933" yMax="869">
      <contour>
        <pt x="780" y="675" on="1"/>
        <pt x="933" y="675" on="1"/>
        <pt x="933" y="675" on="0"/>
        <pt x="933" y="668" on="1"/>
        <pt x="933" y="646" on="0"/>
        <pt x="920" y="639" on="1"/>
        <pt x="914" y="636" on="0"/>
        <pt x="887" y="633" on="1"/>
        <pt x="679" y="0" on="1"/>
        <pt x="632" y="0" on="1"/>
        <pt x="471" y="511" on="1"/>
        <pt x="291" y="0" on="1"/>
        <pt x="248" y="0" on="1"/>
        <pt x="59" y="630" on="1"/>
        <pt x="6" y="636" on="1"/>
        <pt x="2" y="675" on="0"/>
        <pt x="29" y="675" on="1"/>
        <pt x="200" y="675" on="1"/>
        <pt x="200" y="668" on="1"/>
        <pt x="200" y="646" on="0"/>
        <pt x="187" y="639" on="1"/>
        <pt x="180" y="636" on="0"/>
        <pt x="125" y="632" on="1"/>
        <pt x="276" y="94" on="1"/>
        <pt x="453" y="616" on="1"/>
        <pt x="505" y="616" on="1"/>
        <pt x="661" y="91" on="1"/>
        <pt x="831" y="630" on="1"/>
        <pt x="757" y="636" on="1"/>
        <pt x="753" y="675" on="0"/>
      </contour>
      <contour>
        <pt x="413" y="869" on="1"/>
        <pt x="577" y="745" on="1"/>
        <pt x="566" y="726" on="0"/>
        <pt x="551" y="719" on="1"/>
        <pt x="355" y="825" on="1"/>
        <pt x="364" y="842" on="0"/>
        <pt x="396" y="868" on="0"/>
      </contour>
    </TTGlyph>
    <TTGlyph name="X" xMin="10" yMin="0" xMax="595" yMax="677">
      <contour>
        <pt x="572" y="0" on="1"/>
        <pt x="411" y="0" on="1"/>
        <pt x="411" y="8" on="1"/>
        <pt x="411" y="30" on="0"/>
        <pt x="424" y="36" on="1"/>
        <pt x="430" y="39" on="0"/>
        <pt x="469" y="43" on="1"/>
        <pt x="298" y="296" on="1"/>
        <pt x="133" y="45" on="1"/>
        <pt x="134" y="45" on="1"/>
        <pt x="191" y="39" on="1"/>
        <pt x="195" y="0" on="0"/>
        <pt x="168" y="0" on="1"/>
        <pt x="10" y="0" on="1"/>
        <pt x="10" y="8" on="1"/>
        <pt x="10" y="30" on="0"/>
        <pt x="23" y="36" on="1"/>
        <pt x="30" y="40" on="0"/>
        <pt x="71" y="42" on="1"/>
        <pt x="271" y="335" on="1"/>
        <pt x="70" y="632" on="1"/>
        <pt x="16" y="638" on="1"/>
        <pt x="12" y="677" on="0"/>
        <pt x="39" y="677" on="1"/>
        <pt x="203" y="677" on="1"/>
        <pt x="203" y="670" on="1"/>
        <pt x="203" y="648" on="0"/>
        <pt x="190" y="641" on="1"/>
        <pt x="183" y="638" on="0"/>
        <pt x="141" y="634" on="1"/>
        <pt x="311" y="384" on="1"/>
        <pt x="459" y="633" on="1"/>
        <pt x="402" y="638" on="1"/>
        <pt x="398" y="677" on="0"/>
        <pt x="425" y="677" on="1"/>
        <pt x="574" y="677" on="1"/>
        <pt x="574" y="670" on="1"/>
        <pt x="574" y="648" on="0"/>
        <pt x="561" y="641" on="1"/>
        <pt x="555" y="638" on="0"/>
        <pt x="527" y="635" on="1"/>
        <pt x="520" y="635" on="1"/>
        <pt x="337" y="345" on="1"/>
        <pt x="541" y="45" on="1"/>
        <pt x="595" y="39" on="1"/>
        <pt x="599" y="0" on="0"/>
      </contour>
    </TTGlyph>
    <TTGlyph name="Y" xMin="6" yMin="0" xMax="575" yMax="677">
      <contour>
        <pt x="427" y="677" on="1"/>
        <pt x="575" y="677" on="1"/>
        <pt x="575" y="677" on="0"/>
        <pt x="575" y="670" on="1"/>
        <pt x="575" y="640" on="0"/>
        <pt x="547" y="637" on="1"/>
        <pt x="527" y="634" on="1"/>
        <pt x="526" y="634" on="1"/>
        <pt x="324" y="272" on="1"/>
        <pt x="324" y="45" on="1"/>
        <pt x="398" y="39" on="1"/>
        <pt x="402" y="0" on="0"/>
        <pt x="375" y="0" on="1"/>
        <pt x="186" y="0" on="1"/>
        <pt x="186" y="8" on="1"/>
        <pt x="186" y="30" on="0"/>
        <pt x="199" y="36" on="1"/>
        <pt x="205" y="39" on="0"/>
        <pt x="214" y="40" on="1"/>
        <pt x="264" y="43" on="1"/>
        <pt x="264" y="272" on="1"/>
        <pt x="60" y="632" on="1"/>
        <pt x="6" y="638" on="1"/>
        <pt x="2" y="677" on="0"/>
        <pt x="29" y="677" on="1"/>
        <pt x="202" y="677" on="1"/>
        <pt x="202" y="670" on="1"/>
        <pt x="202" y="648" on="0"/>
        <pt x="189" y="641" on="1"/>
        <pt x="183" y="638" on="0"/>
        <pt x="174" y="637" on="1"/>
        <pt x="126" y="634" on="1"/>
        <pt x="304" y="317" on="1"/>
        <pt x="473" y="632" on="1"/>
        <pt x="404" y="638" on="1"/>
        <pt x="400" y="677" on="0"/>
      </contour>
    </TTGlyph>
    <TTGlyph name="Yacute" xMin="6" yMin="0" xMax="575" yMax="879">
      <contour>
        <pt x="427" y="677" on="1"/>
        <pt x="575" y="677" on="1"/>
        <pt x="575" y="677" on="0"/>
        <pt x="575" y="670" on="1"/>
        <pt x="575" y="640" on="0"/>
        <pt x="547" y="637" on="1"/>
        <pt x="527" y="634" on="1"/>
        <pt x="526" y="634" on="1"/>
        <pt x="324" y="272" on="1"/>
        <pt x="324" y="45" on="1"/>
        <pt x="398" y="39" on="1"/>
        <pt x="402" y="0" on="0"/>
        <pt x="375" y="0" on="1"/>
        <pt x="186" y="0" on="1"/>
        <pt x="186" y="8" on="1"/>
        <pt x="186" y="30" on="0"/>
        <pt x="199" y="36" on="1"/>
        <pt x="205" y="39" on="0"/>
        <pt x="214" y="40" on="1"/>
        <pt x="264" y="43" on="1"/>
        <pt x="264" y="272" on="1"/>
        <pt x="60" y="632" on="1"/>
        <pt x="6" y="638" on="1"/>
        <pt x="2" y="677" on="0"/>
        <pt x="29" y="677" on="1"/>
        <pt x="202" y="677" on="1"/>
        <pt x="202" y="670" on="1"/>
        <pt x="202" y="648" on="0"/>
        <pt x="189" y="641" on="1"/>
        <pt x="183" y="638" on="0"/>
        <pt x="174" y="637" on="1"/>
        <pt x="126" y="634" on="1"/>
        <pt x="304" y="317" on="1"/>
        <pt x="473" y="632" on="1"/>
        <pt x="404" y="638" on="1"/>
        <pt x="400" y="677" on="0"/>
      </contour>
      <contour>
        <pt x="442" y="835" on="1"/>
        <pt x="246" y="729" on="1"/>
        <pt x="231" y="736" on="0"/>
        <pt x="220" y="755" on="1"/>
        <pt x="384" y="879" on="1"/>
        <pt x="401" y="878" on="0"/>
        <pt x="433" y="852" on="0"/>
      </contour>
    </TTGlyph>
    <TTGlyph name="Ycircumflex" xMin="6" yMin="0" xMax="575" yMax="864">
      <contour>
        <pt x="427" y="677" on="1"/>
        <pt x="575" y="677" on="1"/>
        <pt x="575" y="677" on="0"/>
        <pt x="575" y="670" on="1"/>
        <pt x="575" y="640" on="0"/>
        <pt x="547" y="637" on="1"/>
        <pt x="527" y="634" on="1"/>
        <pt x="526" y="634" on="1"/>
        <pt x="324" y="272" on="1"/>
        <pt x="324" y="45" on="1"/>
        <pt x="398" y="39" on="1"/>
        <pt x="402" y="0" on="0"/>
        <pt x="375" y="0" on="1"/>
        <pt x="186" y="0" on="1"/>
        <pt x="186" y="8" on="1"/>
        <pt x="186" y="30" on="0"/>
        <pt x="199" y="36" on="1"/>
        <pt x="205" y="39" on="0"/>
        <pt x="214" y="40" on="1"/>
        <pt x="264" y="43" on="1"/>
        <pt x="264" y="272" on="1"/>
        <pt x="60" y="632" on="1"/>
        <pt x="6" y="638" on="1"/>
        <pt x="2" y="677" on="0"/>
        <pt x="29" y="677" on="1"/>
        <pt x="202" y="677" on="1"/>
        <pt x="202" y="670" on="1"/>
        <pt x="202" y="648" on="0"/>
        <pt x="189" y="641" on="1"/>
        <pt x="183" y="638" on="0"/>
        <pt x="174" y="637" on="1"/>
        <pt x="126" y="634" on="1"/>
        <pt x="304" y="317" on="1"/>
        <pt x="473" y="632" on="1"/>
        <pt x="404" y="638" on="1"/>
        <pt x="400" y="677" on="0"/>
      </contour>
      <contour>
        <pt x="299" y="808" on="1"/>
        <pt x="166" y="719" on="1"/>
        <pt x="151" y="726" on="0"/>
        <pt x="140" y="745" on="1"/>
        <pt x="270" y="864" on="1"/>
        <pt x="299" y="872" on="0"/>
        <pt x="328" y="864" on="1"/>
        <pt x="458" y="745" on="1"/>
        <pt x="447" y="726" on="0"/>
        <pt x="432" y="719" on="1"/>
      </contour>
    </TTGlyph>
    <TTGlyph name="Ydieresis" xMin="6" yMin="0" xMax="575" yMax="844">
      <contour>
        <pt x="427" y="677" on="1"/>
        <pt x="575" y="677" on="1"/>
        <pt x="575" y="677" on="0"/>
        <pt x="575" y="670" on="1"/>
        <pt x="575" y="640" on="0"/>
        <pt x="547" y="637" on="1"/>
        <pt x="527" y="634" on="1"/>
        <pt x="526" y="634" on="1"/>
        <pt x="324" y="272" on="1"/>
        <pt x="324" y="45" on="1"/>
        <pt x="398" y="39" on="1"/>
        <pt x="402" y="0" on="0"/>
        <pt x="375" y="0" on="1"/>
        <pt x="186" y="0" on="1"/>
        <pt x="186" y="8" on="1"/>
        <pt x="186" y="30" on="0"/>
        <pt x="199" y="36" on="1"/>
        <pt x="205" y="39" on="0"/>
        <pt x="214" y="40" on="1"/>
        <pt x="264" y="43" on="1"/>
        <pt x="264" y="272" on="1"/>
        <pt x="60" y="632" on="1"/>
        <pt x="6" y="638" on="1"/>
        <pt x="2" y="677" on="0"/>
        <pt x="29" y="677" on="1"/>
        <pt x="202" y="677" on="1"/>
        <pt x="202" y="670" on="1"/>
        <pt x="202" y="648" on="0"/>
        <pt x="189" y="641" on="1"/>
        <pt x="183" y="638" on="0"/>
        <pt x="174" y="637" on="1"/>
        <pt x="126" y="634" on="1"/>
        <pt x="304" y="317" on="1"/>
        <pt x="473" y="632" on="1"/>
        <pt x="404" y="638" on="1"/>
        <pt x="400" y="677" on="0"/>
      </contour>
      <contour>
        <pt x="267" y="777" on="0"/>
        <pt x="240" y="750" on="0"/>
        <pt x="201" y="750" on="0"/>
        <pt x="173" y="777" on="0"/>
        <pt x="173" y="816" on="0"/>
        <pt x="201" y="844" on="0"/>
        <pt x="240" y="844" on="0"/>
        <pt x="267" y="816" on="0"/>
      </contour>
      <contour>
        <pt x="425" y="777" on="0"/>
        <pt x="398" y="750" on="0"/>
        <pt x="358" y="750" on="0"/>
        <pt x="331" y="778" on="0"/>
        <pt x="331" y="816" on="0"/>
        <pt x="358" y="844" on="0"/>
        <pt x="398" y="844" on="0"/>
        <pt x="425" y="816" on="0"/>
      </contour>
    </TTGlyph>
    <TTGlyph name="Ygrave" xMin="6" yMin="0" xMax="575" yMax="869">
      <contour>
        <pt x="427" y="677" on="1"/>
        <pt x="575" y="677" on="1"/>
        <pt x="575" y="677" on="0"/>
        <pt x="575" y="670" on="1"/>
        <pt x="575" y="640" on="0"/>
        <pt x="547" y="637" on="1"/>
        <pt x="527" y="634" on="1"/>
        <pt x="526" y="634" on="1"/>
        <pt x="324" y="272" on="1"/>
        <pt x="324" y="45" on="1"/>
        <pt x="398" y="39" on="1"/>
        <pt x="402" y="0" on="0"/>
        <pt x="375" y="0" on="1"/>
        <pt x="186" y="0" on="1"/>
        <pt x="186" y="8" on="1"/>
        <pt x="186" y="30" on="0"/>
        <pt x="199" y="36" on="1"/>
        <pt x="205" y="39" on="0"/>
        <pt x="214" y="40" on="1"/>
        <pt x="264" y="43" on="1"/>
        <pt x="264" y="272" on="1"/>
        <pt x="60" y="632" on="1"/>
        <pt x="6" y="638" on="1"/>
        <pt x="2" y="677" on="0"/>
        <pt x="29" y="677" on="1"/>
        <pt x="202" y="677" on="1"/>
        <pt x="202" y="670" on="1"/>
        <pt x="202" y="648" on="0"/>
        <pt x="189" y="641" on="1"/>
        <pt x="183" y="638" on="0"/>
        <pt x="174" y="637" on="1"/>
        <pt x="126" y="634" on="1"/>
        <pt x="304" y="317" on="1"/>
        <pt x="473" y="632" on="1"/>
        <pt x="404" y="638" on="1"/>
        <pt x="400" y="677" on="0"/>
      </contour>
      <contour>
        <pt x="231" y="869" on="1"/>
        <pt x="395" y="745" on="1"/>
        <pt x="384" y="726" on="0"/>
        <pt x="369" y="719" on="1"/>
        <pt x="173" y="825" on="1"/>
        <pt x="182" y="842" on="0"/>
        <pt x="214" y="868" on="0"/>
      </contour>
    </TTGlyph>
    <TTGlyph name="Z" xMin="23" yMin="0" xMax="491" yMax="685">
      <contour>
        <pt x="490" y="0" on="1"/>
        <pt x="33" y="0" on="1"/>
        <pt x="31" y="3" on="0"/>
        <pt x="23" y="21" on="1"/>
        <pt x="410" y="638" on="1"/>
        <pt x="119" y="629" on="1"/>
        <pt x="106" y="538" on="1"/>
        <pt x="103" y="518" on="0"/>
        <pt x="80" y="504" on="0"/>
        <pt x="67" y="507" on="1"/>
        <pt x="67" y="685" on="1"/>
        <pt x="481" y="685" on="1"/>
        <pt x="485" y="678" on="0"/>
        <pt x="491" y="664" on="1"/>
        <pt x="103" y="45" on="1"/>
        <pt x="437" y="54" on="1"/>
        <pt x="450" y="153" on="1"/>
        <pt x="453" y="173" on="0"/>
        <pt x="476" y="187" on="0"/>
        <pt x="490" y="184" on="1"/>
      </contour>
    </TTGlyph>
    <TTGlyph name="Zacute" xMin="23" yMin="0" xMax="491" yMax="879">
      <contour>
        <pt x="490" y="0" on="1"/>
        <pt x="33" y="0" on="1"/>
        <pt x="31" y="3" on="0"/>
        <pt x="23" y="21" on="1"/>
        <pt x="410" y="638" on="1"/>
        <pt x="119" y="629" on="1"/>
        <pt x="106" y="538" on="1"/>
        <pt x="103" y="518" on="0"/>
        <pt x="80" y="504" on="0"/>
        <pt x="67" y="507" on="1"/>
        <pt x="67" y="685" on="1"/>
        <pt x="481" y="685" on="1"/>
        <pt x="485" y="678" on="0"/>
        <pt x="491" y="664" on="1"/>
        <pt x="103" y="45" on="1"/>
        <pt x="437" y="54" on="1"/>
        <pt x="450" y="153" on="1"/>
        <pt x="453" y="173" on="0"/>
        <pt x="476" y="187" on="0"/>
        <pt x="490" y="184" on="1"/>
      </contour>
      <contour>
        <pt x="429" y="835" on="1"/>
        <pt x="233" y="729" on="1"/>
        <pt x="218" y="736" on="0"/>
        <pt x="207" y="755" on="1"/>
        <pt x="371" y="879" on="1"/>
        <pt x="388" y="878" on="0"/>
        <pt x="420" y="852" on="0"/>
      </contour>
    </TTGlyph>
    <TTGlyph name="Zcaron" xMin="23" yMin="0" xMax="491" yMax="879">
      <contour>
        <pt x="490" y="0" on="1"/>
        <pt x="33" y="0" on="1"/>
        <pt x="31" y="3" on="0"/>
        <pt x="23" y="21" on="1"/>
        <pt x="410" y="638" on="1"/>
        <pt x="119" y="629" on="1"/>
        <pt x="106" y="538" on="1"/>
        <pt x="103" y="518" on="0"/>
        <pt x="80" y="504" on="0"/>
        <pt x="67" y="507" on="1"/>
        <pt x="67" y="685" on="1"/>
        <pt x="481" y="685" on="1"/>
        <pt x="485" y="678" on="0"/>
        <pt x="491" y="664" on="1"/>
        <pt x="103" y="45" on="1"/>
        <pt x="437" y="54" on="1"/>
        <pt x="450" y="153" on="1"/>
        <pt x="453" y="173" on="0"/>
        <pt x="476" y="187" on="0"/>
        <pt x="490" y="184" on="1"/>
      </contour>
      <contour>
        <pt x="445" y="853" on="1"/>
        <pt x="315" y="734" on="1"/>
        <pt x="286" y="726" on="0"/>
        <pt x="257" y="734" on="1"/>
        <pt x="127" y="853" on="1"/>
        <pt x="138" y="872" on="0"/>
        <pt x="153" y="879" on="1"/>
        <pt x="286" y="790" on="1"/>
        <pt x="419" y="879" on="1"/>
        <pt x="434" y="872" on="0"/>
      </contour>
    </TTGlyph>
    <TTGlyph name="Zdotaccent" xMin="23" yMin="0" xMax="491" yMax="883">
      <contour>
        <pt x="490" y="0" on="1"/>
        <pt x="33" y="0" on="1"/>
        <pt x="31" y="3" on="0"/>
        <pt x="23" y="21" on="1"/>
        <pt x="410" y="638" on="1"/>
        <pt x="119" y="629" on="1"/>
        <pt x="106" y="538" on="1"/>
        <pt x="103" y="518" on="0"/>
        <pt x="80" y="504" on="0"/>
        <pt x="67" y="507" on="1"/>
        <pt x="67" y="685" on="1"/>
        <pt x="481" y="685" on="1"/>
        <pt x="485" y="678" on="0"/>
        <pt x="491" y="664" on="1"/>
        <pt x="103" y="45" on="1"/>
        <pt x="437" y="54" on="1"/>
        <pt x="450" y="153" on="1"/>
        <pt x="453" y="173" on="0"/>
        <pt x="476" y="187" on="0"/>
        <pt x="490" y="184" on="1"/>
      </contour>
      <contour>
        <pt x="304" y="797" on="0"/>
        <pt x="264" y="797" on="0"/>
        <pt x="241" y="820" on="0"/>
        <pt x="241" y="860" on="0"/>
        <pt x="264" y="883" on="0"/>
        <pt x="304" y="883" on="0"/>
        <pt x="327" y="860" on="0"/>
        <pt x="327" y="820" on="0"/>
      </contour>
    </TTGlyph>
    <TTGlyph name="a" xMin="50" yMin="-16" xMax="477" yMax="500">
      <contour>
        <pt x="422" y="-16" on="1"/>
        <pt x="363" y="-16" on="0"/>
        <pt x="356" y="51" on="1"/>
        <pt x="330" y="24" on="0"/>
        <pt x="248" y="-15" on="0"/>
        <pt x="129" y="-15" on="0"/>
        <pt x="50" y="55" on="0"/>
        <pt x="50" y="118" on="1"/>
        <pt x="50" y="171" on="0"/>
        <pt x="87" y="210" on="1"/>
        <pt x="131" y="258" on="0"/>
        <pt x="240" y="258" on="1"/>
        <pt x="302" y="258" on="0"/>
        <pt x="355" y="242" on="1"/>
        <pt x="355" y="331" on="1"/>
        <pt x="355" y="384" on="0"/>
        <pt x="294" y="456" on="0"/>
        <pt x="237" y="456" on="1"/>
        <pt x="137" y="456" on="0"/>
        <pt x="125" y="357" on="1"/>
        <pt x="105" y="355" on="0"/>
        <pt x="79" y="377" on="0"/>
        <pt x="79" y="403" on="1"/>
        <pt x="79" y="444" on="0"/>
        <pt x="164" y="500" on="0"/>
        <pt x="231" y="500" on="1"/>
        <pt x="283" y="500" on="0"/>
        <pt x="338" y="475" on="1"/>
        <pt x="370" y="460" on="0"/>
        <pt x="410" y="387" on="0"/>
        <pt x="410" y="334" on="1"/>
        <pt x="410" y="35" on="1"/>
        <pt x="477" y="27" on="1"/>
        <pt x="477" y="-16" on="0"/>
      </contour>
      <contour>
        <pt x="355" y="185" on="1"/>
        <pt x="307" y="215" on="0"/>
        <pt x="173" y="215" on="0"/>
        <pt x="114" y="166" on="0"/>
        <pt x="114" y="83" on="0"/>
        <pt x="167" y="33" on="0"/>
        <pt x="214" y="33" on="1"/>
        <pt x="295" y="33" on="0"/>
        <pt x="355" y="96" on="1"/>
      </contour>
    </TTGlyph>
    <TTGlyph name="aacute" xMin="50" yMin="-16" xMax="477" yMax="679">
      <contour>
        <pt x="422" y="-16" on="1"/>
        <pt x="363" y="-16" on="0"/>
        <pt x="356" y="51" on="1"/>
        <pt x="330" y="24" on="0"/>
        <pt x="248" y="-15" on="0"/>
        <pt x="129" y="-15" on="0"/>
        <pt x="50" y="55" on="0"/>
        <pt x="50" y="118" on="1"/>
        <pt x="50" y="171" on="0"/>
        <pt x="87" y="210" on="1"/>
        <pt x="131" y="258" on="0"/>
        <pt x="240" y="258" on="1"/>
        <pt x="302" y="258" on="0"/>
        <pt x="355" y="242" on="1"/>
        <pt x="355" y="331" on="1"/>
        <pt x="355" y="384" on="0"/>
        <pt x="294" y="456" on="0"/>
        <pt x="237" y="456" on="1"/>
        <pt x="137" y="456" on="0"/>
        <pt x="125" y="357" on="1"/>
        <pt x="105" y="355" on="0"/>
        <pt x="79" y="377" on="0"/>
        <pt x="79" y="403" on="1"/>
        <pt x="79" y="444" on="0"/>
        <pt x="164" y="500" on="0"/>
        <pt x="231" y="500" on="1"/>
        <pt x="283" y="500" on="0"/>
        <pt x="338" y="475" on="1"/>
        <pt x="370" y="460" on="0"/>
        <pt x="410" y="387" on="0"/>
        <pt x="410" y="334" on="1"/>
        <pt x="410" y="35" on="1"/>
        <pt x="477" y="27" on="1"/>
        <pt x="477" y="-16" on="0"/>
      </contour>
      <contour>
        <pt x="355" y="185" on="1"/>
        <pt x="307" y="215" on="0"/>
        <pt x="173" y="215" on="0"/>
        <pt x="114" y="166" on="0"/>
        <pt x="114" y="83" on="0"/>
        <pt x="167" y="33" on="0"/>
        <pt x="214" y="33" on="1"/>
        <pt x="295" y="33" on="0"/>
        <pt x="355" y="96" on="1"/>
      </contour>
      <contour>
        <pt x="372" y="635" on="1"/>
        <pt x="176" y="529" on="1"/>
        <pt x="161" y="536" on="0"/>
        <pt x="150" y="555" on="1"/>
        <pt x="314" y="679" on="1"/>
        <pt x="331" y="678" on="0"/>
        <pt x="363" y="652" on="0"/>
      </contour>
    </TTGlyph>
    <TTGlyph name="abreve" xMin="50" yMin="-16" xMax="477" yMax="667">
      <contour>
        <pt x="422" y="-16" on="1"/>
        <pt x="363" y="-16" on="0"/>
        <pt x="356" y="51" on="1"/>
        <pt x="330" y="24" on="0"/>
        <pt x="248" y="-15" on="0"/>
        <pt x="129" y="-15" on="0"/>
        <pt x="50" y="55" on="0"/>
        <pt x="50" y="118" on="1"/>
        <pt x="50" y="171" on="0"/>
        <pt x="87" y="210" on="1"/>
        <pt x="131" y="258" on="0"/>
        <pt x="240" y="258" on="1"/>
        <pt x="302" y="258" on="0"/>
        <pt x="355" y="242" on="1"/>
        <pt x="355" y="331" on="1"/>
        <pt x="355" y="384" on="0"/>
        <pt x="294" y="456" on="0"/>
        <pt x="237" y="456" on="1"/>
        <pt x="137" y="456" on="0"/>
        <pt x="125" y="357" on="1"/>
        <pt x="105" y="355" on="0"/>
        <pt x="79" y="377" on="0"/>
        <pt x="79" y="403" on="1"/>
        <pt x="79" y="444" on="0"/>
        <pt x="164" y="500" on="0"/>
        <pt x="231" y="500" on="1"/>
        <pt x="283" y="500" on="0"/>
        <pt x="338" y="475" on="1"/>
        <pt x="370" y="460" on="0"/>
        <pt x="410" y="387" on="0"/>
        <pt x="410" y="334" on="1"/>
        <pt x="410" y="35" on="1"/>
        <pt x="477" y="27" on="1"/>
        <pt x="477" y="-16" on="0"/>
      </contour>
      <contour>
        <pt x="355" y="185" on="1"/>
        <pt x="307" y="215" on="0"/>
        <pt x="173" y="215" on="0"/>
        <pt x="114" y="166" on="0"/>
        <pt x="114" y="83" on="0"/>
        <pt x="167" y="33" on="0"/>
        <pt x="214" y="33" on="1"/>
        <pt x="295" y="33" on="0"/>
        <pt x="355" y="96" on="1"/>
      </contour>
      <contour>
        <pt x="374" y="605" on="0"/>
        <pt x="295" y="529" on="0"/>
        <pt x="162" y="529" on="0"/>
        <pt x="84" y="605" on="0"/>
        <pt x="77" y="652" on="1"/>
        <pt x="110" y="667" on="1"/>
        <pt x="121" y="638" on="0"/>
        <pt x="181" y="588" on="0"/>
        <pt x="230" y="588" on="1"/>
        <pt x="319" y="588" on="0"/>
        <pt x="348" y="665" on="1"/>
        <pt x="381" y="652" on="1"/>
      </contour>
    </TTGlyph>
    <TTGlyph name="acircumflex" xMin="50" yMin="-16" xMax="477" yMax="674">
      <contour>
        <pt x="422" y="-16" on="1"/>
        <pt x="363" y="-16" on="0"/>
        <pt x="356" y="51" on="1"/>
        <pt x="330" y="24" on="0"/>
        <pt x="248" y="-15" on="0"/>
        <pt x="129" y="-15" on="0"/>
        <pt x="50" y="55" on="0"/>
        <pt x="50" y="118" on="1"/>
        <pt x="50" y="171" on="0"/>
        <pt x="87" y="210" on="1"/>
        <pt x="131" y="258" on="0"/>
        <pt x="240" y="258" on="1"/>
        <pt x="302" y="258" on="0"/>
        <pt x="355" y="242" on="1"/>
        <pt x="355" y="331" on="1"/>
        <pt x="355" y="384" on="0"/>
        <pt x="294" y="456" on="0"/>
        <pt x="237" y="456" on="1"/>
        <pt x="137" y="456" on="0"/>
        <pt x="125" y="357" on="1"/>
        <pt x="105" y="355" on="0"/>
        <pt x="79" y="377" on="0"/>
        <pt x="79" y="403" on="1"/>
        <pt x="79" y="444" on="0"/>
        <pt x="164" y="500" on="0"/>
        <pt x="231" y="500" on="1"/>
        <pt x="283" y="500" on="0"/>
        <pt x="338" y="475" on="1"/>
        <pt x="370" y="460" on="0"/>
        <pt x="410" y="387" on="0"/>
        <pt x="410" y="334" on="1"/>
        <pt x="410" y="35" on="1"/>
        <pt x="477" y="27" on="1"/>
        <pt x="477" y="-16" on="0"/>
      </contour>
      <contour>
        <pt x="355" y="185" on="1"/>
        <pt x="307" y="215" on="0"/>
        <pt x="173" y="215" on="0"/>
        <pt x="114" y="166" on="0"/>
        <pt x="114" y="83" on="0"/>
        <pt x="167" y="33" on="0"/>
        <pt x="214" y="33" on="1"/>
        <pt x="295" y="33" on="0"/>
        <pt x="355" y="96" on="1"/>
      </contour>
      <contour>
        <pt x="229" y="618" on="1"/>
        <pt x="96" y="529" on="1"/>
        <pt x="81" y="536" on="0"/>
        <pt x="70" y="555" on="1"/>
        <pt x="200" y="674" on="1"/>
        <pt x="229" y="682" on="0"/>
        <pt x="258" y="674" on="1"/>
        <pt x="388" y="555" on="1"/>
        <pt x="377" y="536" on="0"/>
        <pt x="362" y="529" on="1"/>
      </contour>
    </TTGlyph>
    <TTGlyph name="acute" xMin="186" yMin="529" xMax="408" yMax="679">
      <contour>
        <pt x="408" y="635" on="1"/>
        <pt x="212" y="529" on="1"/>
        <pt x="197" y="536" on="0"/>
        <pt x="186" y="555" on="1"/>
        <pt x="350" y="679" on="1"/>
        <pt x="367" y="678" on="0"/>
        <pt x="399" y="652" on="0"/>
      </contour>
    </TTGlyph>
    <TTGlyph name="acute.cap" xMin="186" yMin="539" xMax="408" yMax="689">
      <contour>
        <pt x="408" y="645" on="1"/>
        <pt x="212" y="539" on="1"/>
        <pt x="197" y="546" on="0"/>
        <pt x="186" y="565" on="1"/>
        <pt x="350" y="689" on="1"/>
        <pt x="367" y="688" on="0"/>
        <pt x="399" y="662" on="0"/>
      </contour>
    </TTGlyph>
    <TTGlyph name="adieresis" xMin="50" yMin="-16" xMax="477" yMax="654">
      <contour>
        <pt x="422" y="-16" on="1"/>
        <pt x="363" y="-16" on="0"/>
        <pt x="356" y="51" on="1"/>
        <pt x="330" y="24" on="0"/>
        <pt x="248" y="-15" on="0"/>
        <pt x="129" y="-15" on="0"/>
        <pt x="50" y="55" on="0"/>
        <pt x="50" y="118" on="1"/>
        <pt x="50" y="171" on="0"/>
        <pt x="87" y="210" on="1"/>
        <pt x="131" y="258" on="0"/>
        <pt x="240" y="258" on="1"/>
        <pt x="302" y="258" on="0"/>
        <pt x="355" y="242" on="1"/>
        <pt x="355" y="331" on="1"/>
        <pt x="355" y="384" on="0"/>
        <pt x="294" y="456" on="0"/>
        <pt x="237" y="456" on="1"/>
        <pt x="137" y="456" on="0"/>
        <pt x="125" y="357" on="1"/>
        <pt x="105" y="355" on="0"/>
        <pt x="79" y="377" on="0"/>
        <pt x="79" y="403" on="1"/>
        <pt x="79" y="444" on="0"/>
        <pt x="164" y="500" on="0"/>
        <pt x="231" y="500" on="1"/>
        <pt x="283" y="500" on="0"/>
        <pt x="338" y="475" on="1"/>
        <pt x="370" y="460" on="0"/>
        <pt x="410" y="387" on="0"/>
        <pt x="410" y="334" on="1"/>
        <pt x="410" y="35" on="1"/>
        <pt x="477" y="27" on="1"/>
        <pt x="477" y="-16" on="0"/>
      </contour>
      <contour>
        <pt x="355" y="185" on="1"/>
        <pt x="307" y="215" on="0"/>
        <pt x="173" y="215" on="0"/>
        <pt x="114" y="166" on="0"/>
        <pt x="114" y="83" on="0"/>
        <pt x="167" y="33" on="0"/>
        <pt x="214" y="33" on="1"/>
        <pt x="295" y="33" on="0"/>
        <pt x="355" y="96" on="1"/>
      </contour>
      <contour>
        <pt x="197" y="587" on="0"/>
        <pt x="170" y="560" on="0"/>
        <pt x="131" y="560" on="0"/>
        <pt x="103" y="587" on="0"/>
        <pt x="103" y="626" on="0"/>
        <pt x="131" y="654" on="0"/>
        <pt x="170" y="654" on="0"/>
        <pt x="197" y="626" on="0"/>
      </contour>
      <contour>
        <pt x="355" y="587" on="0"/>
        <pt x="328" y="560" on="0"/>
        <pt x="288" y="560" on="0"/>
        <pt x="261" y="588" on="0"/>
        <pt x="261" y="626" on="0"/>
        <pt x="288" y="654" on="0"/>
        <pt x="328" y="654" on="0"/>
        <pt x="355" y="626" on="0"/>
      </contour>
    </TTGlyph>
    <TTGlyph name="ae" xMin="50" yMin="-15" xMax="736" yMax="500">
      <contour>
        <pt x="676" y="372" on="0"/>
        <pt x="620" y="458" on="0"/>
        <pt x="516" y="458" on="0"/>
        <pt x="439" y="375" on="0"/>
        <pt x="425" y="307" on="1"/>
        <pt x="674" y="307" on="1"/>
      </contour>
      <contour>
        <pt x="355" y="185" on="1"/>
        <pt x="307" y="215" on="0"/>
        <pt x="174" y="215" on="0"/>
        <pt x="114" y="167" on="0"/>
        <pt x="114" y="82" on="0"/>
        <pt x="169" y="33" on="0"/>
        <pt x="215" y="33" on="1"/>
        <pt x="292" y="33" on="0"/>
        <pt x="355" y="94" on="1"/>
      </contour>
      <contour>
        <pt x="432" y="447" on="0"/>
        <pt x="526" y="500" on="0"/>
        <pt x="622" y="500" on="0"/>
        <pt x="686" y="466" on="0"/>
        <pt x="703" y="438" on="1"/>
        <pt x="736" y="382" on="0"/>
        <pt x="736" y="314" on="1"/>
        <pt x="736" y="268" on="1"/>
        <pt x="419" y="268" on="1"/>
        <pt x="417" y="244" on="0"/>
        <pt x="417" y="229" on="1"/>
        <pt x="417" y="145" on="0"/>
        <pt x="493" y="34" on="0"/>
        <pt x="649" y="34" on="0"/>
        <pt x="715" y="87" on="1"/>
        <pt x="725" y="80" on="0"/>
        <pt x="725" y="67" on="1"/>
        <pt x="725" y="41" on="0"/>
        <pt x="617" y="-15" on="0"/>
        <pt x="553" y="-15" on="1"/>
        <pt x="441" y="-15" on="0"/>
        <pt x="390" y="73" on="1"/>
        <pt x="362" y="38" on="0"/>
        <pt x="264" y="-15" on="0"/>
        <pt x="130" y="-15" on="0"/>
        <pt x="50" y="55" on="0"/>
        <pt x="50" y="175" on="0"/>
        <pt x="137" y="258" on="0"/>
        <pt x="240" y="258" on="1"/>
        <pt x="302" y="258" on="0"/>
        <pt x="355" y="242" on="1"/>
        <pt x="355" y="331" on="1"/>
        <pt x="355" y="384" on="0"/>
        <pt x="294" y="456" on="0"/>
        <pt x="234" y="456" on="1"/>
        <pt x="164" y="456" on="0"/>
        <pt x="138" y="404" on="1"/>
        <pt x="127" y="381" on="0"/>
        <pt x="125" y="357" on="1"/>
        <pt x="107" y="355" on="0"/>
        <pt x="79" y="376" on="0"/>
        <pt x="79" y="401" on="1"/>
        <pt x="79" y="444" on="0"/>
        <pt x="164" y="501" on="0"/>
        <pt x="231" y="500" on="1"/>
        <pt x="260" y="500" on="0"/>
        <pt x="300" y="488" on="1"/>
        <pt x="382" y="465" on="0"/>
        <pt x="400" y="397" on="1"/>
      </contour>
    </TTGlyph>
</ttFont>
